{"glyphs":{"0":{"ha":822,"x_min":0,"x_max":0,"o":"m 411 1000 b 46 492 174 1000 46 811 b 411 -17 46 175 172 -17 b 776 492 650 -17 776 172 b 411 1000 776 810 650 1000 z m 254 492 b 410 808 254 713 310 808 b 568 492 514 808 568 714 b 411 175 568 271 514 175 b 254 492 310 175 254 269 z "},"1":{"ha":822,"x_min":0,"x_max":0,"o":"m 600 983 l 406 983 l 85 713 l 203 576 l 400 750 l 400 0 l 600 0 z "},"2":{"ha":822,"x_min":0,"x_max":0,"o":"m 428 1000 b 81 699 225 1000 93 893 l 289 683 b 417 808 296 760 346 808 b 538 701 481 808 538 765 b 450 564 538 658 519 626 l 68 221 l 68 0 l 754 0 l 754 183 l 318 183 l 596 422 b 746 704 701 514 746 579 b 428 1000 746 890 617 1000 z "},"3":{"ha":822,"x_min":0,"x_max":0,"o":"m 403 1000 b 53 764 215 1000 93 918 l 282 717 b 404 808 297 776 346 808 b 526 706 471 808 526 768 b 364 596 526 628 472 596 l 300 596 l 300 415 l 354 415 b 543 301 431 415 543 415 b 410 175 543 222 494 175 b 264 289 322 175 278 218 l 44 238 b 397 -17 81 75 207 -17 b 751 278 606 -17 751 93 b 567 507 751 393 683 492 l 567 511 b 735 726 672 533 735 614 b 403 1000 735 901 597 1000 z "},"4":{"ha":822,"x_min":0,"x_max":0,"o":"m 33 197 l 463 197 l 463 0 l 663 0 l 663 197 l 789 197 l 789 372 l 663 372 l 663 983 l 435 983 l 33 372 z m 460 711 l 463 711 l 463 372 l 242 372 z "},"5":{"ha":822,"x_min":0,"x_max":0,"o":"m 718 983 l 124 983 l 113 440 b 317 476 181 464 250 476 b 543 314 463 476 543 419 b 397 167 543 224 479 167 b 263 285 324 167 274 214 l 44 235 b 376 -17 88 69 206 -17 b 751 335 600 -17 751 119 b 410 660 751 526 622 660 b 324 649 375 660 347 657 l 328 800 l 718 800 z "},"6":{"ha":822,"x_min":0,"x_max":0,"o":"m 375 983 l 161 649 b 42 321 90 539 42 457 b 408 -17 42 107 217 -17 b 775 321 607 -17 775 113 b 467 642 775 503 649 642 b 399 632 443 642 421 638 l 629 983 z m 250 329 b 407 483 250 418 318 483 b 567 329 496 483 567 424 b 408 175 567 235 497 175 b 250 329 328 175 250 231 z "},"7":{"ha":822,"x_min":0,"x_max":0,"o":"m 771 983 l 51 983 l 51 792 l 538 792 l 135 0 l 378 0 l 771 800 z "},"8":{"ha":822,"x_min":0,"x_max":0,"o":"m 411 1000 b 82 729 208 1000 82 892 b 249 511 82 622 143 542 l 249 508 b 65 269 131 476 65 393 b 411 -17 65 90 211 -17 b 757 269 613 -17 757 94 b 574 508 757 393 693 475 l 574 511 b 740 729 681 542 740 624 b 411 1000 740 896 611 1000 z m 290 700 b 410 808 290 757 335 808 b 532 700 482 808 532 763 b 411 590 532 639 483 590 b 290 700 340 590 290 639 z m 274 299 b 410 424 274 372 333 424 b 549 299 489 424 549 371 b 411 175 549 224 488 175 b 274 299 333 175 274 226 z "},"9":{"ha":822,"x_min":0,"x_max":0,"o":"m 414 1000 b 47 663 214 1000 47 868 b 354 342 47 481 172 342 b 424 351 378 342 401 346 l 193 0 l 447 0 l 660 332 b 781 663 729 442 781 525 b 414 1000 781 871 613 1000 z m 256 654 b 413 808 256 744 324 808 b 572 654 503 808 572 746 b 414 500 572 563 504 500 b 256 654 321 500 256 564 z "},"\u0000":{"ha":0,"x_min":0,"x_max":0,"o":""},"\r":{"ha":411,"x_min":0,"x_max":0,"o":""}," ":{"ha":411,"x_min":0,"x_max":0,"o":""},"!":{"ha":617,"x_min":0,"x_max":0,"o":"m 413 983 l 204 983 l 204 325 l 413 325 z m 436 119 b 308 247 436 192 378 247 b 181 119 239 247 181 192 b 308 -8 181 50 236 -8 b 436 119 382 -8 436 51 z "},"\"":{"ha":722,"x_min":0,"x_max":0,"o":"m 435 592 l 610 592 l 610 983 l 435 983 z m 113 592 l 288 592 l 288 983 l 113 983 z "},"#":{"ha":822,"x_min":0,"x_max":0,"o":"m 63 404 l 63 279 l 179 279 l 140 0 l 275 0 l 314 279 l 451 279 l 413 0 l 547 0 l 586 279 l 719 279 l 719 404 l 603 404 l 626 579 l 760 579 l 760 704 l 643 704 l 682 983 l 547 983 l 508 704 l 371 704 l 410 983 l 275 983 l 236 704 l 103 704 l 103 579 l 219 579 l 196 404 z m 354 579 l 492 579 l 468 404 l 331 404 z "},"$":{"ha":822,"x_min":0,"x_max":0,"o":"m 21 96 b 364 -17 101 22 217 -17 l 364 -114 l 456 -114 l 456 -17 b 790 297 665 4 790 126 b 586 550 790 421 717 511 l 456 588 l 456 808 b 619 750 515 806 575 789 l 753 913 b 456 1000 685 967 576 1000 l 456 1097 l 364 1097 l 364 1000 b 47 700 171 976 47 853 b 268 439 47 564 118 485 l 364 410 l 364 175 b 168 261 289 181 217 201 z m 456 386 b 574 281 551 354 574 331 b 456 178 574 229 532 193 z m 264 710 b 364 804 264 757 296 790 l 364 610 b 264 710 340 618 264 626 z "},"%":{"ha":1260,"x_min":0,"x_max":0,"o":"m 292 15 l 397 -44 l 971 963 l 854 1028 z m 554 725 b 281 1000 554 879 431 1000 b 7 725 128 1000 7 878 b 281 450 7 575 126 450 b 554 725 433 450 554 572 z m 281 592 b 149 725 207 592 149 653 b 281 858 149 797 207 858 b 413 725 353 858 413 801 b 281 592 413 649 353 592 z m 1253 260 b 979 535 1253 411 1131 535 b 706 260 828 535 706 411 b 979 -17 706 107 826 -17 b 1253 260 1132 -17 1253 108 z m 979 125 b 847 260 906 125 847 186 b 979 393 847 332 906 393 b 1111 260 1051 393 1111 336 b 979 125 1111 183 1053 125 z "},"&":{"ha":1054,"x_min":0,"x_max":0,"o":"m 465 1008 b 158 758 321 1008 158 944 b 267 538 158 683 181 628 b 58 269 136 492 58 383 b 407 -25 58 89 210 -25 b 696 93 522 -25 614 8 l 778 0 l 1046 0 l 826 232 l 1033 507 l 792 507 l 696 376 l 569 511 b 751 767 689 574 751 665 b 465 1008 751 931 618 1008 z m 367 750 b 463 842 367 804 407 842 b 560 753 521 842 560 804 b 449 626 560 710 519 667 b 367 750 392 678 367 714 z m 283 279 b 396 419 283 353 340 385 l 569 231 b 415 158 507 176 471 158 b 283 279 346 158 283 208 z "},"'":{"ha":411,"x_min":0,"x_max":0,"o":"m 293 983 l 118 983 l 118 592 l 293 592 z "},"(":{"ha":436,"x_min":0,"x_max":0,"o":"m 407 933 l 264 1017 l 261 1011 b 61 400 178 886 61 688 b 261 -211 61 186 124 -6 l 264 -217 l 407 -133 b 228 400 269 79 228 219 b 407 933 228 578 268 718 z "},")":{"ha":436,"x_min":0,"x_max":0,"o":"m 172 1017 l 29 933 b 208 400 142 760 208 611 b 29 -133 208 186 143 46 l 172 -217 l 175 -211 b 375 400 301 -22 375 165 b 175 1011 375 642 290 844 z "},"*":{"ha":669,"x_min":0,"x_max":0,"o":"m 407 983 l 265 983 l 265 792 l 83 857 l 39 725 l 224 661 l 107 510 l 219 425 l 332 578 l 449 418 l 564 503 l 449 661 l 631 719 l 589 851 l 407 792 z "},"+":{"ha":925,"x_min":0,"x_max":0,"o":"m 82 333 l 375 333 l 375 40 l 550 40 l 550 333 l 843 333 l 843 508 l 550 508 l 550 801 l 375 801 l 375 508 l 82 508 z "},",":{"ha":411,"x_min":0,"x_max":0,"o":"m 326 225 l 126 225 l 24 -167 l 201 -167 z "},"-":{"ha":411,"x_min":0,"x_max":0,"o":"m 376 429 l 35 429 l 35 263 l 376 263 z "},".":{"ha":411,"x_min":0,"x_max":0,"o":"m 206 247 b 78 119 135 247 78 190 b 206 -8 78 50 133 -8 b 333 119 276 -8 333 47 b 206 247 333 192 275 247 z "},"/":{"ha":565,"x_min":0,"x_max":0,"o":"m 569 1008 l 411 1057 l -4 -25 l 153 -74 z "},":":{"ha":411,"x_min":0,"x_max":0,"o":"m 206 692 b 78 564 136 692 78 635 b 206 436 78 493 136 436 b 333 564 276 436 333 494 b 206 692 333 638 275 692 z m 206 247 b 78 119 136 247 78 190 b 206 -8 78 46 136 -8 b 333 119 276 -8 333 50 b 206 247 333 193 275 247 z "},";":{"ha":411,"x_min":0,"x_max":0,"o":"m 206 692 b 78 564 135 692 78 635 b 206 436 78 493 136 436 b 333 564 276 436 333 494 b 206 692 333 633 278 692 z m 326 225 l 126 225 l 24 -167 l 201 -167 z "},"<":{"ha":925,"x_min":0,"x_max":0,"o":"m 814 58 l 814 247 l 374 419 l 374 422 l 814 594 l 814 783 l 111 508 l 111 333 z "},"=":{"ha":925,"x_min":0,"x_max":0,"o":"m 843 467 l 843 642 l 82 642 l 82 467 z m 82 375 l 82 200 l 843 200 l 843 375 z "},">":{"ha":925,"x_min":0,"x_max":0,"o":"m 111 783 l 111 594 l 551 422 l 551 419 l 111 247 l 111 58 l 814 333 l 814 508 z "},"?":{"ha":772,"x_min":0,"x_max":0,"o":"m 422 1008 b 75 707 226 1008 94 900 l 289 693 b 426 817 297 772 350 817 b 526 721 486 817 526 778 b 468 621 526 686 506 656 l 350 513 b 300 376 308 474 300 435 l 300 325 l 508 325 l 508 360 b 571 468 508 410 528 433 b 735 735 681 557 735 615 b 422 1008 735 908 597 1008 z m 404 247 b 276 119 335 247 276 190 b 404 -8 276 46 335 -8 b 532 119 474 -8 532 47 b 404 247 532 192 472 247 z "},"@":{"ha":1111,"x_min":0,"x_max":0,"o":"m 575 1008 b 44 490 283 1008 44 786 b 583 -25 44 188 288 -25 b 1010 185 756 -25 910 49 l 857 185 b 594 100 778 122 685 100 b 186 490 361 100 186 247 b 571 883 186 711 335 883 b 933 544 782 883 933 768 b 814 338 933 422 886 338 b 776 376 789 338 776 353 b 790 475 776 410 785 443 l 840 742 l 710 742 l 699 679 l 696 679 b 546 758 665 742 611 758 b 268 446 375 758 268 611 b 468 213 268 321 338 213 b 646 288 539 213 597 236 l 649 288 b 758 213 650 256 678 213 b 975 297 829 213 910 236 b 1067 551 1046 363 1067 463 b 575 1008 1067 828 840 1008 z m 418 461 b 556 633 418 546 465 633 b 660 506 631 633 660 572 b 515 338 660 408 617 338 b 418 461 440 338 418 396 z "},"A":{"ha":1029,"x_min":0,"x_max":0,"o":"m 238 0 l 319 208 l 701 208 l 786 0 l 1031 0 l 603 983 l 424 983 l -1 0 z m 507 697 l 628 392 l 388 392 z "},"B":{"ha":900,"x_min":0,"x_max":0,"o":"m 100 983 l 100 0 l 504 0 b 872 274 678 0 872 68 b 657 514 872 414 772 500 l 657 517 b 826 733 758 549 826 624 b 475 983 826 940 649 983 z m 317 407 l 486 407 b 656 299 557 407 656 389 b 515 183 656 219 586 183 l 317 183 z m 468 800 b 610 697 535 800 610 776 b 478 590 610 622 544 590 l 317 590 l 317 800 z "},"C":{"ha":951,"x_min":0,"x_max":0,"o":"m 578 1008 b 47 492 268 1008 47 803 b 578 -25 47 178 269 -25 b 933 146 713 -25 856 32 l 753 281 b 550 175 706 210 635 175 b 272 492 378 175 272 328 b 557 808 272 685 403 808 b 743 728 631 808 696 785 l 910 864 b 578 1008 836 958 707 1008 z "},"D":{"ha":1054,"x_min":0,"x_max":0,"o":"m 100 983 l 100 0 l 460 0 b 1007 490 754 0 1007 178 b 433 983 1007 843 744 983 z m 317 200 l 317 783 l 450 783 b 782 499 626 783 782 694 b 436 200 782 279 629 200 z "},"E":{"ha":875,"x_min":0,"x_max":0,"o":"m 108 0 l 801 0 l 801 200 l 325 200 l 325 400 l 751 400 l 751 600 l 325 600 l 325 783 l 776 783 l 776 983 l 108 983 z "},"F":{"ha":824,"x_min":0,"x_max":0,"o":"m 108 0 l 325 0 l 325 383 l 735 383 l 735 583 l 325 583 l 325 783 l 768 783 l 768 983 l 108 983 z "},"G":{"ha":1081,"x_min":0,"x_max":0,"o":"m 579 1008 b 47 492 269 1008 47 807 b 579 -25 47 175 269 -25 b 990 69 722 -25 863 1 l 990 583 l 606 583 l 606 383 l 782 383 l 782 224 b 579 175 719 190 650 175 b 272 492 394 175 272 306 b 579 808 272 676 394 808 b 817 715 672 808 751 785 l 969 882 b 579 1008 863 979 724 1008 z "},"H":{"ha":1054,"x_min":0,"x_max":0,"o":"m 100 0 l 317 0 l 317 425 l 738 425 l 738 0 l 954 0 l 954 983 l 738 983 l 738 617 l 317 617 l 317 983 l 100 983 z "},"I":{"ha":411,"x_min":0,"x_max":0,"o":"m 314 983 l 97 983 l 97 0 l 314 0 z "},"J":{"ha":694,"x_min":0,"x_max":0,"o":"m 608 983 l 392 983 l 392 346 b 289 167 392 215 360 167 b 192 253 243 167 199 203 l -7 204 b 294 -25 25 53 132 -25 b 608 321 503 -25 608 79 z "},"K":{"ha":1003,"x_min":0,"x_max":0,"o":"m 108 0 l 325 0 l 325 467 l 725 0 l 1028 0 l 553 526 l 990 983 l 707 983 l 325 575 l 325 983 l 108 983 z "},"L":{"ha":746,"x_min":0,"x_max":0,"o":"m 325 983 l 108 983 l 108 0 l 726 0 l 726 200 l 325 200 z "},"M":{"ha":1311,"x_min":0,"x_max":0,"o":"m 100 0 l 317 0 l 317 754 l 319 754 l 568 0 l 733 0 l 992 754 l 994 754 l 994 0 l 1211 0 l 1211 983 l 885 983 l 657 342 l 654 342 l 428 983 l 100 983 z "},"N":{"ha":1132,"x_min":0,"x_max":0,"o":"m 317 0 l 317 700 l 319 700 l 749 0 l 1032 0 l 1032 983 l 815 983 l 815 300 l 813 300 l 394 983 l 100 983 l 100 0 z "},"O":{"ha":1156,"x_min":0,"x_max":0,"o":"m 578 1008 b 47 492 268 1008 47 806 b 578 -25 47 178 268 -25 b 1108 492 886 -25 1108 179 b 578 1008 1108 804 890 1008 z m 272 492 b 576 808 272 678 394 808 b 883 492 761 808 883 676 b 578 175 883 307 761 175 b 272 492 393 175 272 307 z "},"P":{"ha":875,"x_min":0,"x_max":0,"o":"m 317 0 l 317 383 l 482 383 b 839 685 708 383 839 476 b 472 983 839 888 708 983 l 100 983 l 100 0 z m 317 800 l 433 800 b 614 685 556 800 614 761 b 465 567 614 604 551 567 l 317 567 z "},"Q":{"ha":1183,"x_min":0,"x_max":0,"o":"m 572 1008 b 47 504 282 1008 47 801 b 574 0 47 189 276 0 l 1176 0 l 1176 167 l 901 167 l 901 169 b 1097 504 1033 225 1097 365 b 572 1008 1097 804 861 1008 z m 272 504 b 571 808 272 668 403 808 b 872 504 738 808 872 675 b 572 200 872 338 740 200 b 272 504 404 200 272 338 z "},"R":{"ha":900,"x_min":0,"x_max":0,"o":"m 317 0 l 317 393 l 424 393 l 629 0 l 889 0 l 639 415 b 851 685 772 440 851 540 b 488 983 851 924 665 983 l 100 983 l 100 0 z m 317 576 l 317 800 l 464 800 b 626 686 567 800 626 767 b 451 576 626 593 551 576 z "},"S":{"ha":797,"x_min":0,"x_max":0,"o":"m 433 1008 b 58 689 242 1008 58 899 b 306 422 58 517 185 461 b 519 278 415 386 519 364 b 369 175 519 201 429 175 b 181 268 296 175 226 210 l 26 99 b 357 -25 119 11 231 -25 b 736 299 557 -25 736 75 b 496 569 736 476 614 533 b 283 707 388 603 283 621 b 429 808 283 781 369 808 b 586 743 482 808 551 788 l 735 906 b 433 1008 650 979 543 1008 z "},"T":{"ha":797,"x_min":0,"x_max":0,"o":"m 10 792 l 290 792 l 290 0 l 507 0 l 507 792 l 788 792 l 788 983 l 10 983 z "},"U":{"ha":1029,"x_min":0,"x_max":0,"o":"m 100 983 l 100 375 b 515 -25 100 161 232 -25 b 929 375 799 -25 929 161 l 929 983 l 713 983 l 713 385 b 515 175 713 257 618 175 b 317 385 400 175 317 268 l 317 983 z "},"V":{"ha":978,"x_min":0,"x_max":0,"o":"m 3 983 l 396 0 l 569 0 l 975 983 l 743 983 l 496 339 l 493 339 l 250 983 z "},"W":{"ha":1389,"x_min":0,"x_max":0,"o":"m 289 0 l 475 0 l 692 681 l 694 681 l 911 0 l 1104 0 l 1392 983 l 1172 983 l 1007 336 l 1004 336 l 800 983 l 599 983 l 393 353 l 390 353 l 233 983 l -3 983 z "},"X":{"ha":1003,"x_min":0,"x_max":0,"o":"m 257 0 l 490 396 l 731 0 l 1003 0 l 647 518 l 965 983 l 703 983 l 501 639 l 292 983 l 19 983 l 344 514 l 0 0 z "},"Y":{"ha":900,"x_min":0,"x_max":0,"o":"m -28 983 l 342 419 l 342 0 l 558 0 l 558 419 l 928 983 l 671 983 l 450 615 l 242 983 z "},"Z":{"ha":875,"x_min":0,"x_max":0,"o":"m 810 983 l 67 983 l 67 792 l 547 792 l 49 200 l 49 0 l 826 0 l 826 200 l 321 200 l 810 792 z "},"[":{"ha":411,"x_min":0,"x_max":0,"o":"m 92 -217 l 383 -217 l 383 -92 l 258 -92 l 258 892 l 383 892 l 383 1017 l 92 1017 z "},"\\":{"ha":565,"x_min":0,"x_max":0,"o":"m 154 1057 l -4 1008 l 413 -74 l 569 -25 z "},"]":{"ha":411,"x_min":0,"x_max":0,"o":"m 319 -217 l 319 1017 l 28 1017 l 28 892 l 153 892 l 153 -92 l 28 -92 l 28 -217 z "},"^":{"ha":925,"x_min":0,"x_max":0,"o":"m 307 476 l 463 807 l 617 476 l 814 476 l 564 983 l 361 983 l 111 476 z "},"_":{"ha":694,"x_min":0,"x_max":0,"o":"m 694 -104 l 0 -104 l 0 -174 l 694 -174 z "},"`":{"ha":361,"x_min":0,"x_max":0,"o":"m 182 983 l -101 983 l 139 783 l 322 783 z "},"a":{"ha":746,"x_min":0,"x_max":0,"o":"m 40 192 b 281 -17 40 56 156 -17 b 494 85 364 -17 449 13 l 497 85 l 497 0 l 689 0 l 689 353 b 381 692 689 576 614 692 b 83 583 275 692 161 658 l 194 469 b 364 550 239 519 296 550 b 497 429 433 550 497 506 b 40 192 332 429 40 428 z m 435 296 l 497 296 l 497 253 b 340 125 497 167 419 125 b 240 199 296 125 240 146 b 435 296 240 286 372 296 z "},"b":{"ha":875,"x_min":0,"x_max":0,"o":"m 93 1050 l 93 0 l 285 0 l 285 89 l 288 89 b 494 -17 333 24 415 -17 b 826 332 697 -17 826 131 b 518 692 826 513 715 692 b 304 603 439 692 353 671 l 301 603 l 301 1050 z m 285 338 b 450 508 285 450 357 508 b 618 338 553 508 618 443 b 451 167 618 233 553 167 b 285 338 349 167 285 236 z "},"c":{"ha":669,"x_min":0,"x_max":0,"o":"m 428 692 b 53 338 219 692 53 553 b 428 -17 53 122 219 -17 b 668 74 514 -17 607 11 l 531 218 b 428 167 499 179 458 167 b 261 338 329 167 261 232 b 428 508 261 439 325 508 b 531 457 467 508 507 489 l 668 601 b 428 692 608 664 513 692 z "},"d":{"ha":875,"x_min":0,"x_max":0,"o":"m 574 1050 l 574 603 l 571 603 b 357 692 521 671 438 692 b 49 332 160 692 49 513 b 379 -17 49 131 176 -17 b 588 89 458 -17 542 24 l 590 89 l 590 0 l 782 0 l 782 1050 z m 257 338 b 422 508 257 442 321 508 b 590 338 521 508 590 447 b 424 167 590 233 525 167 b 257 338 321 167 257 236 z "},"e":{"ha":797,"x_min":0,"x_max":0,"o":"m 53 338 b 428 -17 53 117 226 -17 b 713 117 533 -17 647 32 l 567 224 b 418 142 532 178 489 142 b 261 272 333 142 278 196 l 744 272 l 744 331 b 433 692 744 611 564 692 b 53 338 217 692 53 551 z m 261 414 b 407 542 268 492 329 542 b 536 414 479 542 536 490 z "},"f":{"ha":514,"x_min":0,"x_max":0,"o":"m 146 508 l 146 0 l 354 0 l 354 508 l 508 508 l 508 675 l 354 675 l 354 781 b 454 892 354 861 378 892 b 522 878 476 892 494 888 l 532 1054 b 410 1067 493 1064 453 1067 b 146 801 208 1067 146 968 l 146 675 l 8 675 l 8 508 z "},"g":{"ha":875,"x_min":0,"x_max":0,"o":"m 357 692 b 49 340 167 692 49 518 b 379 -8 49 143 176 -8 b 571 81 451 -8 528 22 l 574 81 l 574 13 b 388 -150 574 -99 492 -150 b 168 -62 303 -150 232 -115 l 53 -235 b 392 -333 151 -312 269 -333 b 782 50 643 -333 782 -203 l 782 675 l 590 675 l 590 586 l 588 586 b 357 692 535 661 443 692 z m 257 342 b 422 508 257 431 332 508 b 590 342 515 508 590 432 b 424 175 590 250 513 175 b 257 342 333 175 257 249 z "},"h":{"ha":797,"x_min":0,"x_max":0,"o":"m 282 0 l 282 343 b 407 508 282 458 324 508 b 515 343 478 508 515 469 l 515 0 l 724 0 l 724 379 b 474 692 724 592 654 692 b 285 583 388 692 310 649 l 282 583 l 282 1050 l 74 1050 l 74 0 z "},"i":{"ha":361,"x_min":0,"x_max":0,"o":"m 181 1008 b 60 888 115 1008 60 957 b 181 767 60 822 114 767 b 301 888 249 767 301 822 b 181 1008 301 953 249 1008 z m 285 675 l 76 675 l 76 0 l 285 0 z "},"j":{"ha":361,"x_min":0,"x_max":0,"o":"m 181 1008 b 60 888 113 1008 60 953 b 181 767 60 822 114 767 b 301 888 249 767 301 822 b 181 1008 301 953 249 1008 z m 285 675 l 76 675 l 76 -19 b 3 -150 76 -112 53 -150 b -51 -137 -17 -150 -33 -146 l -62 -322 b 35 -333 -32 -332 4 -333 b 285 -57 206 -333 285 -243 z "},"k":{"ha":772,"x_min":0,"x_max":0,"o":"m 74 0 l 282 0 l 282 342 l 285 342 l 513 0 l 775 0 l 500 371 l 768 675 l 513 675 l 282 408 l 282 1050 l 74 1050 z "},"l":{"ha":361,"x_min":0,"x_max":0,"o":"m 285 1050 l 76 1050 l 76 0 l 285 0 z "},"m":{"ha":1208,"x_min":0,"x_max":0,"o":"m 282 0 l 282 343 b 407 508 282 461 324 508 b 500 369 467 508 500 472 l 500 0 l 708 0 l 708 361 b 835 508 708 451 749 508 b 926 396 896 508 926 465 l 926 0 l 1135 0 l 1135 406 b 896 692 1135 589 1057 692 b 682 571 796 692 731 657 b 474 692 644 653 569 692 b 276 583 389 692 314 651 l 274 583 l 274 675 l 74 675 l 74 0 z "},"n":{"ha":797,"x_min":0,"x_max":0,"o":"m 282 0 l 282 343 b 407 508 282 458 324 508 b 515 347 479 508 515 467 l 515 0 l 724 0 l 724 382 b 474 692 724 604 644 692 b 276 583 388 692 314 651 l 274 583 l 274 675 l 74 675 l 74 0 z "},"o":{"ha":847,"x_min":0,"x_max":0,"o":"m 424 692 b 49 338 215 692 49 553 b 424 -17 49 121 215 -17 b 799 338 631 -17 799 124 b 424 692 799 553 632 692 z m 257 338 b 422 508 257 438 321 508 b 590 338 525 508 590 443 b 424 167 590 233 525 167 b 257 338 321 167 257 236 z "},"p":{"ha":875,"x_min":0,"x_max":0,"o":"m 494 692 b 288 586 415 692 333 650 l 285 586 l 285 675 l 93 675 l 93 -317 l 301 -317 l 301 72 l 304 72 b 518 -17 356 1 444 -17 b 826 343 721 -17 826 169 b 494 692 826 544 697 692 z m 285 338 b 450 508 285 438 349 508 b 618 338 553 508 618 443 b 451 167 618 233 553 167 b 285 338 349 167 285 236 z "},"q":{"ha":875,"x_min":0,"x_max":0,"o":"m 379 692 b 49 343 178 692 49 544 b 357 -17 49 165 158 -17 b 571 72 438 -17 521 4 l 574 72 l 574 -317 l 782 -317 l 782 675 l 590 675 l 590 586 l 588 586 b 379 692 544 650 460 692 z m 257 338 b 422 508 257 429 313 508 b 590 338 525 508 590 443 b 424 167 590 233 525 167 b 257 338 321 167 257 236 z "},"r":{"ha":565,"x_min":0,"x_max":0,"o":"m 74 0 l 282 0 l 282 290 b 460 508 282 429 311 508 b 549 494 492 508 518 503 l 549 685 b 481 692 529 690 503 692 b 285 567 388 692 329 649 l 282 567 l 282 675 l 74 675 z "},"s":{"ha":643,"x_min":0,"x_max":0,"o":"m 333 692 b 50 464 171 692 50 607 b 294 256 50 308 179 279 b 401 190 358 243 401 228 b 307 142 401 160 368 142 b 160 215 244 142 200 168 l 33 75 b 299 -17 92 15 185 -17 b 610 206 478 -17 610 54 b 383 413 610 315 550 381 b 258 478 293 431 258 444 b 336 533 258 511 290 533 b 456 476 383 533 424 515 l 583 603 b 333 692 529 660 443 692 z "},"t":{"ha":565,"x_min":0,"x_max":0,"o":"m 142 508 l 142 182 b 388 -17 142 61 225 -17 b 533 4 435 -17 485 -12 l 533 178 b 449 158 522 167 489 158 b 350 271 379 158 350 188 l 350 508 l 533 508 l 533 675 l 350 675 l 350 875 l 142 875 l 142 675 l 8 675 l 8 508 z "},"u":{"ha":797,"x_min":0,"x_max":0,"o":"m 74 675 l 74 294 b 322 -17 74 79 146 -17 b 521 92 410 -17 483 24 l 524 92 l 524 0 l 724 0 l 724 675 l 515 675 l 515 333 b 390 167 515 221 478 167 b 282 340 282 167 282 272 l 282 675 z "},"v":{"ha":772,"x_min":0,"x_max":0,"o":"m 3 675 l 282 0 l 503 0 l 769 675 l 560 675 l 401 217 l 399 217 l 228 675 z "},"w":{"ha":1157,"x_min":0,"x_max":0,"o":"m 240 0 l 450 0 l 575 449 l 578 449 l 718 0 l 924 0 l 1164 675 l 953 675 l 826 251 l 824 251 l 699 675 l 471 675 l 356 251 l 353 251 l 215 675 l -7 675 z "},"x":{"ha":772,"x_min":0,"x_max":0,"o":"m 232 0 l 390 225 l 538 0 l 783 0 l 524 361 l 743 675 l 511 675 l 396 492 l 276 675 l 31 675 l 256 361 l -11 0 z "},"y":{"ha":772,"x_min":0,"x_max":0,"o":"m 300 -6 b 146 -158 265 -94 257 -158 b 49 -137 111 -158 81 -151 l 21 -308 b 176 -333 71 -325 124 -333 b 465 -103 378 -333 407 -253 l 768 675 l 554 675 l 406 229 l 403 229 l 229 675 l 4 675 z "},"z":{"ha":694,"x_min":0,"x_max":0,"o":"m 639 675 l 56 675 l 56 508 l 397 508 l 47 208 l 47 0 l 647 0 l 647 167 l 272 167 l 639 475 z "},"{":{"ha":514,"x_min":0,"x_max":0,"o":"m 19 479 l 19 321 b 169 225 108 321 169 285 l 169 -11 b 344 -217 169 -150 242 -217 l 494 -217 l 494 -58 l 435 -58 b 336 33 371 -58 336 -43 l 336 257 b 197 399 336 375 267 394 l 197 401 b 336 554 299 408 336 451 l 336 774 b 440 858 336 857 394 858 l 494 858 l 494 1017 l 344 1017 b 169 819 261 1017 169 971 l 169 572 b 19 479 169 518 110 479 z "},"|":{"ha":308,"x_min":0,"x_max":0,"o":"m 242 1042 l 67 1042 l 67 -347 l 242 -347 z "},"}":{"ha":514,"x_min":0,"x_max":0,"o":"m 19 858 l 75 858 b 178 774 126 858 178 853 l 178 554 b 317 401 178 450 213 408 l 317 399 b 178 254 246 394 178 371 l 178 31 b 75 -58 178 -54 128 -58 l 19 -58 l 19 -217 l 167 -217 b 344 -11 350 -217 344 -37 l 344 228 b 494 321 344 285 406 321 l 494 479 b 344 571 404 479 344 517 l 344 821 b 169 1017 344 935 282 1017 l 19 1017 z "},"~":{"ha":925,"x_min":0,"x_max":0,"o":"m 315 556 b 142 436 242 556 186 519 l 192 286 b 314 381 249 365 279 381 b 456 331 339 381 364 372 b 610 286 514 304 567 286 b 783 406 683 286 739 322 l 733 556 b 611 461 676 475 647 461 b 469 511 585 461 558 471 b 315 556 407 539 358 556 z "},"Á":{"ha":1029,"x_min":0,"x_max":0,"o":"m 238 0 l 319 208 l 701 208 l 786 0 l 1031 0 l 603 983 l 424 983 l -1 0 z m 376 1056 l 560 1056 l 800 1256 l 517 1256 z m 507 697 l 628 392 l 388 392 z "},"Â":{"ha":1029,"x_min":0,"x_max":0,"o":"m -1 0 l 238 0 l 319 208 l 701 208 l 786 0 l 1031 0 l 603 983 l 424 983 z m 239 1056 l 426 1056 l 513 1164 l 600 1056 l 792 1056 l 631 1256 l 404 1256 z m 507 697 l 628 392 l 388 392 z "},"Ä":{"ha":1029,"x_min":0,"x_max":0,"o":"m -1 0 l 238 0 l 319 208 l 701 208 l 786 0 l 1031 0 l 603 983 l 424 983 z m 254 1167 b 369 1047 254 1103 306 1047 b 488 1167 439 1047 488 1101 b 367 1281 488 1233 432 1281 b 254 1167 306 1281 254 1226 z m 543 1167 b 658 1047 543 1103 594 1047 b 776 1167 728 1047 776 1101 b 656 1281 776 1233 721 1281 b 543 1167 596 1281 543 1228 z m 388 392 l 507 697 l 628 392 z "},"À":{"ha":1029,"x_min":0,"x_max":0,"o":"m 238 0 l 319 208 l 701 208 l 786 0 l 1031 0 l 603 983 l 424 983 l -1 0 z m 233 1256 l 474 1056 l 657 1056 l 517 1256 z m 507 697 l 628 392 l 388 392 z "},"Å":{"ha":1029,"x_min":0,"x_max":0,"o":"m -1 0 l 238 0 l 319 208 l 701 208 l 786 0 l 1031 0 l 603 983 l 424 983 z m 361 1169 b 515 1015 361 1086 432 1015 b 669 1169 597 1015 669 1085 b 515 1324 669 1250 603 1324 b 361 1169 431 1324 361 1251 z m 507 697 l 628 392 l 388 392 z m 444 1169 b 514 1240 444 1210 479 1240 b 586 1169 554 1240 586 1208 b 515 1099 586 1132 556 1099 b 444 1169 476 1099 444 1131 z "},"Ã":{"ha":1029,"x_min":0,"x_max":0,"o":"m -1 0 l 238 0 l 319 208 l 701 208 l 786 0 l 1031 0 l 603 983 l 424 983 z m 353 1064 b 411 1122 363 1096 383 1122 b 499 1093 440 1122 471 1106 b 607 1064 533 1078 567 1064 b 788 1256 704 1064 765 1124 l 679 1256 b 618 1206 667 1228 650 1206 b 540 1226 600 1206 579 1210 b 419 1256 503 1242 465 1256 b 243 1064 328 1256 261 1175 z m 388 392 l 507 697 l 628 392 z "},"Æ":{"ha":1440,"x_min":0,"x_max":0,"o":"m 244 0 l 376 208 l 742 208 l 742 0 l 1367 0 l 1367 200 l 958 200 l 958 400 l 1317 400 l 1317 600 l 958 600 l 958 783 l 1350 783 l 1350 983 l 603 983 l -21 0 z m 469 392 l 718 783 l 742 783 l 742 392 z "},"Ç":{"ha":951,"x_min":0,"x_max":0,"o":"m 578 1008 b 47 492 268 1008 47 803 b 464 -15 47 218 217 29 l 389 -129 l 433 -169 b 483 -158 450 -162 465 -158 b 553 -206 519 -158 553 -176 b 461 -250 553 -235 518 -250 b 354 -226 435 -250 410 -247 l 319 -292 b 493 -333 376 -319 446 -333 b 686 -199 588 -333 686 -287 b 519 -83 686 -122 636 -83 l 511 -83 l 551 -24 b 578 -25 561 -25 568 -25 b 933 146 714 -25 856 32 l 753 281 b 550 175 706 210 635 175 b 272 492 378 175 272 328 b 557 808 272 685 403 808 b 743 728 631 808 696 785 l 910 864 b 578 1008 836 958 707 1008 z "},"Ð":{"ha":1054,"x_min":0,"x_max":0,"o":"m 100 442 l 100 0 l 460 0 b 1007 490 754 0 1007 178 b 433 983 1007 843 744 983 l 100 983 l 100 583 l 17 583 l 17 442 z m 317 783 l 450 783 b 782 499 626 783 782 694 b 436 200 782 279 629 200 l 317 200 l 317 442 l 592 442 l 592 583 l 317 583 z "},"É":{"ha":875,"x_min":0,"x_max":0,"o":"m 108 0 l 801 0 l 801 200 l 325 200 l 325 400 l 751 400 l 751 600 l 325 600 l 325 783 l 776 783 l 776 983 l 108 983 z m 299 1056 l 482 1056 l 722 1256 l 439 1256 z "},"Ê":{"ha":875,"x_min":0,"x_max":0,"o":"m 108 983 l 108 0 l 801 0 l 801 200 l 325 200 l 325 400 l 751 400 l 751 600 l 325 600 l 325 783 l 776 783 l 776 983 z m 349 1056 l 435 1164 l 522 1056 l 714 1056 l 553 1256 l 326 1256 l 161 1056 z "},"Ë":{"ha":875,"x_min":0,"x_max":0,"o":"m 801 0 l 801 200 l 325 200 l 325 400 l 751 400 l 751 600 l 325 600 l 325 783 l 776 783 l 776 983 l 108 983 l 108 0 z m 176 1167 b 292 1047 176 1103 228 1047 b 410 1167 361 1047 410 1101 b 289 1281 410 1233 354 1281 b 176 1167 228 1281 176 1226 z m 465 1167 b 581 1047 465 1103 517 1047 b 699 1167 650 1047 699 1101 b 578 1281 699 1233 643 1281 b 465 1167 518 1281 465 1228 z "},"È":{"ha":875,"x_min":0,"x_max":0,"o":"m 108 0 l 801 0 l 801 200 l 325 200 l 325 400 l 751 400 l 751 600 l 325 600 l 325 783 l 776 783 l 776 983 l 108 983 z m 156 1256 l 396 1056 l 579 1056 l 439 1256 z "},"Í":{"ha":411,"x_min":0,"x_max":0,"o":"m 490 1256 l 207 1256 l 67 1056 l 250 1056 z m 314 983 l 97 983 l 97 0 l 314 0 z "},"Î":{"ha":411,"x_min":0,"x_max":0,"o":"m 97 0 l 314 0 l 314 983 l 97 983 z m 117 1056 l 203 1164 l 290 1056 l 482 1056 l 321 1256 l 94 1256 l -71 1056 z "},"Ï":{"ha":411,"x_min":0,"x_max":0,"o":"m 57 1281 b -56 1167 -4 1281 -56 1226 b 60 1047 -56 1103 -4 1047 b 178 1167 129 1047 178 1101 b 57 1281 178 1233 122 1281 z m 346 1281 b 233 1167 286 1281 233 1228 b 349 1047 233 1103 285 1047 b 467 1167 418 1047 467 1101 b 346 1281 467 1233 411 1281 z m 314 983 l 97 983 l 97 0 l 314 0 z "},"Ì":{"ha":411,"x_min":0,"x_max":0,"o":"m 207 1256 l -76 1256 l 164 1056 l 347 1056 z m 314 983 l 97 983 l 97 0 l 314 0 z "},"Ł":{"ha":746,"x_min":0,"x_max":0,"o":"m 25 333 l 25 150 l 108 222 l 108 0 l 726 0 l 726 200 l 325 200 l 325 414 l 617 669 l 617 850 l 325 593 l 325 983 l 108 983 l 108 406 z "},"Ñ":{"ha":1132,"x_min":0,"x_max":0,"o":"m 317 0 l 317 700 l 319 700 l 749 0 l 1032 0 l 1032 983 l 815 983 l 815 300 l 813 300 l 394 983 l 100 983 l 100 0 z m 404 1064 b 463 1122 414 1096 435 1122 b 550 1093 492 1122 522 1106 b 658 1064 585 1078 618 1064 b 839 1256 756 1064 817 1124 l 731 1256 b 669 1206 718 1228 701 1206 b 592 1226 651 1206 631 1210 b 471 1256 554 1242 517 1256 b 294 1064 379 1256 313 1175 z "},"Ó":{"ha":1156,"x_min":0,"x_max":0,"o":"m 863 1256 l 579 1256 l 439 1056 l 622 1056 z m 578 1008 b 47 492 268 1008 47 806 b 578 -25 47 178 268 -25 b 1108 492 886 -25 1108 179 b 578 1008 1108 804 890 1008 z m 272 492 b 576 808 272 678 394 808 b 883 492 761 808 883 676 b 578 175 883 307 761 175 b 272 492 393 175 272 307 z "},"Ô":{"ha":1156,"x_min":0,"x_max":0,"o":"m 47 492 b 578 -25 47 178 268 -25 b 1108 492 886 -25 1108 179 b 578 1008 1108 804 890 1008 b 47 492 268 1008 47 806 z m 576 808 b 883 492 761 808 883 676 b 578 175 883 307 761 175 b 272 492 393 175 272 307 b 576 808 272 678 394 808 z m 489 1056 l 575 1164 l 663 1056 l 854 1056 l 693 1256 l 467 1256 l 301 1056 z "},"Ö":{"ha":1156,"x_min":0,"x_max":0,"o":"m 429 1281 b 317 1167 368 1281 317 1226 b 432 1047 317 1103 368 1047 b 550 1167 501 1047 550 1101 b 429 1281 550 1233 494 1281 z m 718 1281 b 606 1167 658 1281 606 1228 b 721 1047 606 1103 657 1047 b 839 1167 790 1047 839 1101 b 718 1281 839 1233 783 1281 z m 578 1008 b 47 492 268 1008 47 806 b 578 -25 47 178 268 -25 b 1108 492 886 -25 1108 179 b 578 1008 1108 804 890 1008 z m 272 492 b 576 808 272 678 394 808 b 883 492 761 808 883 676 b 578 175 883 307 761 175 b 272 492 393 175 272 307 z "},"Ò":{"ha":1156,"x_min":0,"x_max":0,"o":"m 579 1256 l 296 1256 l 536 1056 l 719 1056 z m 578 1008 b 47 492 268 1008 47 806 b 578 -25 47 178 268 -25 b 1108 492 886 -25 1108 179 b 578 1008 1108 804 890 1008 z m 272 492 b 576 808 272 678 394 808 b 883 492 761 808 883 676 b 578 175 883 307 761 175 b 272 492 393 175 272 307 z "},"Ø":{"ha":1156,"x_min":0,"x_max":0,"o":"m 1021 1058 l 893 919 b 578 1008 799 982 690 1008 b 47 492 268 1008 47 806 b 176 138 47 360 86 236 l 47 -4 l 125 -71 l 254 69 b 578 -25 347 3 464 -25 b 1108 492 886 -25 1108 178 b 972 854 1108 624 1068 756 l 1097 990 z m 272 492 b 576 808 272 671 393 808 b 749 761 638 808 696 794 l 326 301 b 272 492 289 358 272 424 z m 822 690 b 883 492 867 631 883 563 b 578 175 883 307 761 175 b 399 228 514 175 451 190 z "},"Õ":{"ha":1156,"x_min":0,"x_max":0,"o":"m 482 1256 b 306 1064 390 1256 324 1175 l 415 1064 b 474 1122 425 1096 446 1122 b 561 1093 503 1122 533 1106 b 669 1064 596 1078 629 1064 b 850 1256 767 1064 828 1124 l 742 1256 b 681 1206 729 1228 713 1206 b 603 1226 663 1206 642 1210 b 482 1256 565 1242 528 1256 z m 578 1008 b 47 492 268 1008 47 806 b 578 -25 47 178 268 -25 b 1108 492 886 -25 1108 179 b 578 1008 1108 804 890 1008 z m 272 492 b 576 808 272 678 394 808 b 883 492 761 808 883 676 b 578 175 883 307 761 175 b 272 492 393 175 272 307 z "},"Œ":{"ha":1414,"x_min":0,"x_max":0,"o":"m 47 492 b 596 0 47 128 368 0 l 1340 0 l 1340 200 l 924 200 l 924 400 l 1290 400 l 1290 600 l 924 600 l 924 783 l 1324 783 l 1324 983 l 583 983 b 47 492 285 983 47 806 z m 636 783 l 707 783 l 707 200 l 628 200 b 272 492 435 200 272 290 b 636 783 272 719 471 783 z "},"Þ":{"ha":875,"x_min":0,"x_max":0,"o":"m 100 0 l 317 0 l 317 208 l 482 208 b 839 510 717 208 839 308 b 472 808 839 710 713 808 l 317 808 l 317 983 l 100 983 z m 317 392 l 317 625 l 433 625 b 614 510 556 625 614 586 b 464 392 614 433 558 392 z "},"Š":{"ha":797,"x_min":0,"x_max":0,"o":"m 26 99 b 357 -25 119 11 231 -25 b 736 299 557 -25 736 75 b 496 569 736 476 614 533 b 283 707 388 603 283 621 b 429 808 283 781 369 808 b 586 743 482 808 551 788 l 735 906 b 433 1008 650 979 543 1008 b 58 689 242 1008 58 899 b 306 422 58 517 185 461 b 519 278 415 386 519 364 b 369 175 519 201 429 175 b 181 268 296 175 226 210 z m 278 1092 l 504 1092 l 669 1292 l 482 1292 l 396 1183 l 308 1292 l 117 1292 z "},"ẞ":{"ha":1069,"x_min":0,"x_max":0,"o":"m 897 801 l 897 990 b 556 1008 771 1004 682 1008 b 86 647 293 1008 86 910 l 86 0 l 303 0 l 303 649 b 538 822 303 807 458 822 l 583 822 b 461 647 513 783 461 729 b 651 408 461 540 553 471 b 800 258 731 358 800 338 b 696 167 800 203 750 167 b 519 247 632 167 579 193 l 365 90 b 689 -25 465 -1 581 -25 b 1022 264 885 -25 1022 75 b 853 538 1022 406 960 467 b 671 694 756 601 671 633 b 897 801 671 796 826 801 z "},"Ú":{"ha":1029,"x_min":0,"x_max":0,"o":"m 100 983 l 100 375 b 515 -25 100 161 232 -25 b 929 375 799 -25 929 161 l 929 983 l 713 983 l 713 385 b 515 175 713 257 618 175 b 317 385 400 175 317 268 l 317 983 z m 560 1056 l 800 1256 l 517 1256 l 376 1056 z "},"Û":{"ha":1029,"x_min":0,"x_max":0,"o":"m 100 983 l 100 375 b 515 -25 100 161 232 -25 b 929 375 799 -25 929 161 l 929 983 l 713 983 l 713 385 b 515 175 713 257 618 175 b 317 385 400 175 317 268 l 317 983 z m 426 1056 l 513 1164 l 600 1056 l 792 1056 l 631 1256 l 404 1256 l 239 1056 z "},"Ü":{"ha":1029,"x_min":0,"x_max":0,"o":"m 515 -25 b 929 375 799 -25 929 161 l 929 983 l 713 983 l 713 385 b 515 175 713 257 618 175 b 317 385 400 175 317 268 l 317 983 l 100 983 l 100 375 b 515 -25 100 161 232 -25 z m 254 1167 b 369 1047 254 1103 306 1047 b 488 1167 439 1047 488 1101 b 367 1281 488 1233 432 1281 b 254 1167 306 1281 254 1226 z m 658 1047 b 776 1167 728 1047 776 1101 b 656 1281 776 1233 721 1281 b 543 1167 596 1281 543 1228 b 658 1047 543 1103 594 1047 z "},"Ù":{"ha":1029,"x_min":0,"x_max":0,"o":"m 100 983 l 100 375 b 515 -25 100 161 232 -25 b 929 375 799 -25 929 161 l 929 983 l 713 983 l 713 385 b 515 175 713 257 618 175 b 317 385 400 175 317 268 l 317 983 z m 233 1256 l 474 1056 l 657 1056 l 517 1256 z "},"Ý":{"ha":900,"x_min":0,"x_max":0,"o":"m 342 419 l 342 0 l 558 0 l 558 419 l 928 983 l 671 983 l 450 615 l 242 983 l -28 983 z m 311 1092 l 494 1092 l 735 1292 l 451 1292 z "},"Ÿ":{"ha":900,"x_min":0,"x_max":0,"o":"m 342 419 l 342 0 l 558 0 l 558 419 l 928 983 l 671 983 l 450 615 l 242 983 l -28 983 z m 189 1203 b 304 1083 189 1139 240 1083 b 422 1203 374 1083 422 1138 b 301 1317 422 1269 367 1317 b 189 1203 240 1317 189 1263 z m 593 1083 b 711 1203 663 1083 711 1138 b 590 1317 711 1269 656 1317 b 478 1203 531 1317 478 1264 b 593 1083 478 1139 529 1083 z "},"Ž":{"ha":875,"x_min":0,"x_max":0,"o":"m 49 0 l 826 0 l 826 200 l 321 200 l 810 792 l 810 983 l 67 983 l 67 792 l 547 792 l 49 200 z m 317 1093 l 543 1093 l 708 1293 l 521 1293 l 435 1185 l 347 1293 l 156 1293 z "},"á":{"ha":746,"x_min":0,"x_max":0,"o":"m 40 192 b 281 -17 40 56 156 -17 b 494 85 364 -17 449 13 l 497 85 l 497 0 l 689 0 l 689 353 b 381 692 689 576 614 692 b 83 583 275 692 161 658 l 194 469 b 364 550 239 519 296 550 b 497 429 433 550 497 506 b 40 192 332 429 40 428 z m 418 783 l 658 983 l 375 983 l 235 783 z m 240 199 b 435 296 240 286 372 296 l 497 296 l 497 253 b 340 125 497 167 419 125 b 240 199 296 125 240 146 z "},"â":{"ha":746,"x_min":0,"x_max":0,"o":"m 281 -17 b 494 85 364 -17 449 13 l 497 85 l 497 0 l 689 0 l 689 353 b 381 692 689 576 614 692 b 83 583 275 692 161 658 l 194 469 b 364 550 239 519 296 550 b 497 429 433 550 497 506 b 40 192 332 429 40 428 b 281 -17 40 56 156 -17 z m 285 783 l 371 892 l 458 783 l 650 783 l 489 983 l 263 983 l 97 783 z m 240 199 b 435 296 240 286 372 296 l 497 296 l 497 253 b 340 125 497 167 419 125 b 240 199 296 125 240 146 z "},"ä":{"ha":746,"x_min":0,"x_max":0,"o":"m 281 -17 b 494 85 364 -17 449 13 l 497 85 l 497 0 l 689 0 l 689 353 b 381 692 689 576 614 692 b 83 583 275 692 161 658 l 194 469 b 364 550 239 519 296 550 b 497 429 433 550 497 506 b 40 192 332 429 40 428 b 281 -17 40 56 156 -17 z m 113 894 b 228 775 113 832 161 775 b 346 894 297 775 346 829 b 225 1008 346 965 283 1008 b 113 894 164 1008 113 954 z m 401 894 b 517 775 401 829 453 775 b 635 894 586 775 635 829 b 514 1008 635 961 578 1008 b 401 894 454 1008 401 956 z m 435 296 l 497 296 l 497 253 b 340 125 497 167 419 125 b 240 199 296 125 240 146 b 435 296 240 286 372 296 z "},"à":{"ha":746,"x_min":0,"x_max":0,"o":"m 281 -17 b 494 85 364 -17 449 13 l 497 85 l 497 0 l 689 0 l 689 353 b 381 692 689 576 614 692 b 83 583 275 692 161 658 l 194 469 b 364 550 239 519 296 550 b 497 429 433 550 497 506 b 40 192 332 429 40 428 b 281 -17 40 56 156 -17 z m 92 983 l 332 783 l 515 783 l 375 983 z m 435 296 l 497 296 l 497 253 b 340 125 497 167 419 125 b 240 199 296 125 240 146 b 435 296 240 286 372 296 z "},"å":{"ha":746,"x_min":0,"x_max":0,"o":"m 281 -17 b 494 85 364 -17 449 13 l 497 85 l 497 0 l 689 0 l 689 353 b 381 692 689 576 614 692 b 83 583 275 692 161 658 l 194 469 b 364 550 239 519 296 550 b 497 429 433 550 497 506 b 40 192 332 429 40 428 b 281 -17 40 56 156 -17 z m 219 911 b 374 757 219 828 292 757 b 528 911 461 757 528 832 b 374 1065 528 992 460 1065 b 219 911 289 1065 219 993 z m 240 199 b 435 296 240 286 372 296 l 497 296 l 497 253 b 340 125 497 167 419 125 b 240 199 296 125 240 146 z m 303 911 b 372 982 303 951 338 982 b 444 911 414 982 444 950 b 374 840 444 874 414 840 b 303 911 335 840 303 872 z "},"ã":{"ha":746,"x_min":0,"x_max":0,"o":"m 40 192 b 281 -17 40 56 156 -17 b 494 85 364 -17 449 13 l 497 85 l 497 0 l 689 0 l 689 353 b 381 692 689 576 614 692 b 83 583 275 692 161 658 l 194 469 b 364 550 239 519 296 550 b 497 429 433 550 497 506 b 40 192 332 429 40 428 z m 211 792 b 269 850 221 824 242 850 b 357 821 299 850 329 833 b 465 792 392 806 425 792 b 646 983 563 792 624 851 l 538 983 b 476 933 525 956 508 933 b 399 954 458 933 438 938 b 278 983 361 969 324 983 b 101 792 186 983 119 903 z m 435 296 l 497 296 l 497 253 b 340 125 497 167 419 125 b 240 199 296 125 240 146 b 435 296 240 286 372 296 z "},"æ":{"ha":1183,"x_min":0,"x_max":0,"o":"m 40 192 b 282 -17 40 51 161 -17 b 557 93 383 -17 496 7 b 826 -17 617 6 726 -17 b 1111 117 935 -17 1043 32 l 965 224 b 817 142 928 172 882 142 b 660 272 736 142 676 194 l 1143 272 l 1143 336 b 826 692 1143 575 1001 692 b 600 610 744 692 660 668 b 379 692 542 667 460 692 b 83 583 275 692 160 657 l 194 469 b 364 550 239 519 296 550 b 485 414 443 550 485 489 l 461 414 b 40 192 300 414 40 406 z m 240 193 b 447 272 240 269 386 272 b 458 272 451 272 456 272 l 485 272 l 485 269 b 347 125 485 179 442 125 b 240 193 299 125 240 132 z m 660 414 b 806 542 668 492 728 542 b 935 414 878 542 935 489 z "},"ç":{"ha":669,"x_min":0,"x_max":0,"o":"m 428 692 b 53 338 219 692 53 553 b 329 -6 53 157 169 31 l 247 -129 l 292 -169 b 342 -158 308 -162 324 -158 b 411 -206 378 -158 411 -176 b 319 -250 411 -235 379 -250 b 213 -226 292 -250 268 -247 l 178 -292 b 351 -333 235 -319 304 -333 b 544 -199 414 -333 544 -304 b 378 -83 544 -122 494 -83 l 369 -83 l 414 -17 l 428 -17 b 668 74 514 -17 607 11 l 531 218 b 428 167 499 179 458 167 b 261 338 329 167 261 232 b 428 508 261 439 325 508 b 531 457 467 508 507 489 l 668 601 b 428 692 608 664 513 692 z "},"ð":{"ha":847,"x_min":0,"x_max":0,"o":"m 185 1015 b 281 933 218 993 253 963 l 131 869 l 231 775 l 378 838 b 532 658 436 782 488 721 l 529 656 b 393 692 490 686 440 692 b 49 338 226 692 49 556 b 428 -17 49 117 219 -17 b 799 394 682 -17 799 160 b 560 915 799 606 706 765 l 731 986 l 624 1079 l 465 1013 b 354 1113 429 1049 394 1082 z m 257 338 b 422 508 257 438 319 508 b 590 338 526 508 590 439 b 424 167 590 238 529 167 b 257 338 321 167 257 236 z "},"é":{"ha":797,"x_min":0,"x_max":0,"o":"m 683 983 l 400 983 l 260 783 l 443 783 z m 53 338 b 428 -17 53 117 226 -17 b 713 117 533 -17 647 32 l 567 224 b 418 142 532 178 489 142 b 261 272 333 142 278 196 l 744 272 l 744 331 b 433 692 744 611 564 692 b 53 338 217 692 53 551 z m 261 414 b 407 542 268 492 329 542 b 536 414 479 542 536 490 z "},"ê":{"ha":797,"x_min":0,"x_max":0,"o":"m 428 -17 b 713 117 533 -17 647 32 l 567 224 b 418 142 532 178 489 142 b 261 272 333 142 278 196 l 744 272 l 744 331 b 433 692 744 611 564 692 b 53 338 217 692 53 551 b 428 -17 53 117 226 -17 z m 122 783 l 310 783 l 396 892 l 483 783 l 675 783 l 514 983 l 288 983 z m 261 414 b 407 542 268 492 329 542 b 536 414 479 542 536 490 z "},"ë":{"ha":797,"x_min":0,"x_max":0,"o":"m 250 1008 b 138 894 189 1008 138 954 b 253 775 138 832 186 775 b 371 894 322 775 371 829 b 250 1008 371 965 308 1008 z m 539 1008 b 426 894 479 1008 426 956 b 542 775 426 829 478 775 b 660 894 611 775 660 829 b 539 1008 660 961 603 1008 z m 53 338 b 428 -17 53 117 226 -17 b 713 117 533 -17 647 32 l 567 224 b 418 142 532 178 489 142 b 261 272 333 142 278 196 l 744 272 l 744 331 b 433 692 744 611 564 692 b 53 338 217 692 53 551 z m 261 414 b 407 542 268 492 329 542 b 536 414 479 542 536 490 z "},"è":{"ha":797,"x_min":0,"x_max":0,"o":"m 400 983 l 117 983 l 357 783 l 540 783 z m 53 338 b 428 -17 53 117 226 -17 b 713 117 533 -17 647 32 l 567 224 b 418 142 532 178 489 142 b 261 272 333 142 278 196 l 744 272 l 744 331 b 433 692 744 611 564 692 b 53 338 217 692 53 551 z m 261 414 b 407 542 268 492 329 542 b 536 414 479 542 536 490 z "},"ı":{"ha":361,"x_min":0,"x_max":0,"o":"m 285 675 l 76 675 l 76 0 l 285 0 z "},"í":{"ha":361,"x_min":0,"x_max":0,"o":"m 465 983 l 182 983 l 42 783 l 225 783 z m 285 675 l 76 675 l 76 0 l 285 0 z "},"î":{"ha":361,"x_min":0,"x_max":0,"o":"m 76 0 l 285 0 l 285 675 l 76 675 z m 92 783 l 178 892 l 265 783 l 457 783 l 296 983 l 69 983 l -96 783 z "},"ï":{"ha":361,"x_min":0,"x_max":0,"o":"m 32 1008 b -81 894 -29 1008 -81 954 b 35 775 -81 832 -32 775 b 153 894 104 775 153 829 b 32 1008 153 965 90 1008 z m 321 1008 b 208 894 261 1008 208 956 b 324 775 208 829 260 775 b 442 894 393 775 442 829 b 321 1008 442 961 385 1008 z m 285 675 l 76 675 l 76 0 l 285 0 z "},"ì":{"ha":361,"x_min":0,"x_max":0,"o":"m 182 983 l -101 983 l 139 783 l 322 783 z m 285 675 l 76 675 l 76 0 l 285 0 z "},"ł":{"ha":361,"x_min":0,"x_max":0,"o":"m 76 344 l 76 0 l 285 0 l 285 553 l 368 638 l 368 817 l 285 732 l 285 1050 l 76 1050 l 76 524 l -7 439 l -7 260 z "},"ñ":{"ha":797,"x_min":0,"x_max":0,"o":"m 282 0 l 282 343 b 407 508 282 458 324 508 b 515 347 479 508 515 467 l 515 0 l 724 0 l 724 382 b 474 692 724 604 644 692 b 276 583 388 692 314 651 l 274 583 l 274 675 l 74 675 l 74 0 z m 236 792 b 294 850 246 824 267 850 b 382 821 324 850 354 833 b 490 792 417 806 450 792 b 671 983 588 792 649 851 l 563 983 b 501 933 550 956 533 933 b 424 954 483 933 463 938 b 303 983 386 969 349 983 b 126 792 211 983 144 903 z "},"ó":{"ha":847,"x_min":0,"x_max":0,"o":"m 708 983 l 425 983 l 285 783 l 468 783 z m 424 692 b 49 338 215 692 49 553 b 424 -17 49 121 215 -17 b 799 338 631 -17 799 124 b 424 692 799 553 632 692 z m 257 338 b 422 508 257 438 321 508 b 590 338 525 508 590 443 b 424 167 590 233 525 167 b 257 338 321 167 257 236 z "},"ô":{"ha":847,"x_min":0,"x_max":0,"o":"m 49 338 b 424 -17 49 121 215 -17 b 799 338 631 -17 799 124 b 424 692 799 553 632 692 b 49 338 215 692 49 553 z m 422 508 b 590 338 525 508 590 443 b 424 167 590 233 525 167 b 257 338 321 167 257 236 b 422 508 257 438 321 508 z m 147 783 l 335 783 l 421 892 l 508 783 l 700 783 l 539 983 l 313 983 z "},"ö":{"ha":847,"x_min":0,"x_max":0,"o":"m 275 1008 b 163 894 214 1008 163 954 b 278 775 163 832 211 775 b 396 894 347 775 396 829 b 275 1008 396 965 333 1008 z m 564 1008 b 451 894 504 1008 451 956 b 567 775 451 829 503 775 b 685 894 636 775 685 829 b 564 1008 685 961 628 1008 z m 424 692 b 49 338 215 692 49 553 b 424 -17 49 121 215 -17 b 799 338 631 -17 799 124 b 424 692 799 553 632 692 z m 257 338 b 422 508 257 438 321 508 b 590 338 525 508 590 443 b 424 167 590 233 525 167 b 257 338 321 167 257 236 z "},"ò":{"ha":847,"x_min":0,"x_max":0,"o":"m 425 983 l 142 983 l 382 783 l 565 783 z m 424 692 b 49 338 215 692 49 553 b 424 -17 49 121 215 -17 b 799 338 631 -17 799 124 b 424 692 799 553 632 692 z m 257 338 b 422 508 257 438 321 508 b 590 338 525 508 590 443 b 424 167 590 233 525 167 b 257 338 321 167 257 236 z "},"ø":{"ha":847,"x_min":0,"x_max":0,"o":"m 36 8 l 101 -54 l 203 47 b 424 -17 267 4 346 -17 b 799 338 633 -17 799 124 b 719 563 799 421 774 499 l 811 654 l 746 717 l 653 624 b 424 692 586 669 504 692 b 49 338 215 692 49 553 b 133 106 49 250 75 171 z m 422 508 b 514 486 454 508 486 503 l 278 250 b 257 338 263 276 257 307 b 422 508 257 438 321 508 z m 574 417 b 590 338 585 392 590 365 b 424 167 590 235 525 167 b 342 186 396 167 367 174 z "},"õ":{"ha":847,"x_min":0,"x_max":0,"o":"m 328 983 b 151 792 236 983 169 903 l 261 792 b 319 850 271 824 292 850 b 407 821 349 850 379 833 b 515 792 442 806 475 792 b 696 983 613 792 674 851 l 588 983 b 526 933 575 956 558 933 b 449 954 508 933 488 938 b 328 983 411 969 374 983 z m 424 692 b 49 338 215 692 49 553 b 424 -17 49 121 215 -17 b 799 338 631 -17 799 124 b 424 692 799 553 632 692 z m 257 338 b 422 508 257 438 321 508 b 590 338 525 508 590 443 b 424 167 590 233 525 167 b 257 338 321 167 257 236 z "},"œ":{"ha":1311,"x_min":0,"x_max":0,"o":"m 425 692 b 49 338 215 692 49 554 b 425 -17 49 121 215 -17 b 678 79 522 -17 608 8 b 942 -17 749 3 840 -17 b 1226 117 1050 -17 1158 32 l 1081 224 b 932 142 1043 174 996 142 b 775 272 851 142 792 194 l 1258 272 l 1258 335 b 942 692 1258 540 1147 692 b 678 590 844 692 749 665 b 425 692 610 658 522 692 z m 775 414 b 921 542 782 492 843 542 b 1050 414 993 542 1050 490 z m 257 338 b 424 508 257 439 321 508 b 592 338 526 508 592 443 b 425 167 592 233 526 167 b 257 338 321 167 257 235 z "},"þ":{"ha":875,"x_min":0,"x_max":0,"o":"m 301 -317 l 301 71 l 306 71 b 518 -17 354 4 439 -17 b 826 343 717 -17 826 165 b 494 692 826 544 697 692 b 304 603 426 692 342 663 l 301 603 l 301 1050 l 93 1050 l 93 -317 z m 285 338 b 450 508 285 436 346 508 b 618 338 553 508 618 443 b 451 167 618 233 553 167 b 285 338 346 167 285 238 z "},"š":{"ha":643,"x_min":0,"x_max":0,"o":"m 33 75 b 299 -17 92 15 185 -17 b 610 206 478 -17 610 54 b 383 413 610 315 550 381 b 258 478 293 431 258 444 b 336 533 258 511 290 533 b 456 476 383 533 424 515 l 583 603 b 333 692 529 660 443 692 b 50 464 171 692 50 607 b 294 256 50 308 179 279 b 401 190 358 243 401 228 b 307 142 401 160 368 142 b 160 215 244 142 200 168 z m 201 783 l 428 783 l 593 983 l 406 983 l 319 875 l 232 983 l 40 983 z "},"ß":{"ha":875,"x_min":0,"x_max":0,"o":"m 429 1067 b 74 718 188 1067 74 942 l 74 0 l 282 0 l 282 751 b 424 883 282 825 336 883 b 550 775 490 883 550 843 b 421 665 550 707 499 665 l 407 665 l 407 490 l 431 490 b 625 321 561 490 625 426 b 433 158 625 221 550 158 b 365 169 410 158 388 163 l 365 0 b 494 -17 411 -11 451 -17 b 825 301 689 -17 825 106 b 608 588 825 454 746 560 l 608 590 b 750 813 707 631 750 706 b 429 1067 750 972 608 1067 z "},"ú":{"ha":797,"x_min":0,"x_max":0,"o":"m 74 294 b 322 -17 74 79 146 -17 b 521 92 410 -17 483 24 l 524 92 l 524 0 l 724 0 l 724 675 l 515 675 l 515 333 b 390 167 515 221 478 167 b 282 340 282 167 282 272 l 282 675 l 74 675 z m 443 783 l 683 983 l 400 983 l 260 783 z "},"û":{"ha":797,"x_min":0,"x_max":0,"o":"m 74 294 b 322 -17 74 79 146 -17 b 521 92 410 -17 483 24 l 524 92 l 524 0 l 724 0 l 724 675 l 515 675 l 515 333 b 390 167 515 221 478 167 b 282 340 282 167 282 272 l 282 675 l 74 675 z m 310 783 l 396 892 l 483 783 l 675 783 l 514 983 l 288 983 l 122 783 z "},"ü":{"ha":797,"x_min":0,"x_max":0,"o":"m 74 675 l 74 294 b 322 -17 74 79 146 -17 b 521 92 410 -17 483 24 l 524 92 l 524 0 l 724 0 l 724 675 l 515 675 l 515 333 b 390 167 515 221 478 167 b 282 340 282 167 282 272 l 282 675 z m 138 894 b 253 775 138 832 186 775 b 371 894 322 775 371 829 b 250 1008 371 965 308 1008 b 138 894 189 1008 138 954 z m 426 894 b 542 775 426 829 478 775 b 660 894 611 775 660 829 b 539 1008 660 961 603 1008 b 426 894 479 1008 426 956 z "},"ù":{"ha":797,"x_min":0,"x_max":0,"o":"m 74 294 b 322 -17 74 79 146 -17 b 521 92 410 -17 483 24 l 524 92 l 524 0 l 724 0 l 724 675 l 515 675 l 515 333 b 390 167 515 221 478 167 b 282 340 282 167 282 272 l 282 675 l 74 675 z m 117 983 l 357 783 l 540 783 l 400 983 z "},"ý":{"ha":772,"x_min":0,"x_max":0,"o":"m 300 -6 b 146 -158 265 -94 257 -158 b 49 -137 111 -158 81 -151 l 21 -308 b 176 -333 71 -325 124 -333 b 465 -103 378 -333 407 -253 l 768 675 l 554 675 l 406 229 l 403 229 l 229 675 l 4 675 z m 247 783 l 431 783 l 671 983 l 388 983 z "},"ÿ":{"ha":772,"x_min":0,"x_max":0,"o":"m 300 -6 b 146 -158 265 -94 257 -158 b 49 -137 111 -158 81 -151 l 21 -308 b 176 -333 71 -325 124 -333 b 465 -103 378 -333 407 -253 l 768 675 l 554 675 l 406 229 l 403 229 l 229 675 l 4 675 z m 125 894 b 240 775 125 832 174 775 b 358 894 310 775 358 829 b 238 1008 358 965 296 1008 b 125 894 176 1008 125 954 z m 529 775 b 647 894 599 775 647 829 b 526 1008 647 961 590 1008 b 414 894 467 1008 414 956 b 529 775 414 829 465 775 z "},"ž":{"ha":694,"x_min":0,"x_max":0,"o":"m 47 0 l 647 0 l 647 167 l 272 167 l 639 475 l 639 675 l 56 675 l 56 508 l 397 508 l 47 208 z m 65 983 l 226 783 l 453 783 l 618 983 l 431 983 l 344 875 l 257 983 z "},"ﬁ":{"ha":875,"x_min":0,"x_max":0,"o":"m 8 508 l 146 508 l 146 0 l 354 0 l 354 508 l 508 508 l 508 675 l 354 675 l 354 781 b 454 892 354 861 378 892 b 522 878 476 892 494 888 l 532 1054 b 410 1067 493 1064 453 1067 b 146 801 208 1067 146 968 l 146 675 l 8 675 z m 590 0 l 799 0 l 799 675 l 590 675 z m 574 888 b 694 767 574 822 628 767 b 815 888 763 767 815 822 b 694 1008 815 953 763 1008 b 574 888 629 1008 574 957 z "},"ﬂ":{"ha":875,"x_min":0,"x_max":0,"o":"m 8 675 l 8 508 l 146 508 l 146 0 l 354 0 l 354 508 l 508 508 l 508 675 l 354 675 l 354 781 b 454 892 354 861 378 892 b 522 878 476 892 494 888 l 532 1054 b 410 1067 493 1064 453 1067 b 146 801 208 1067 146 968 l 146 675 z m 590 0 l 799 0 l 799 1050 l 590 1050 z "},"ª":{"ha":485,"x_min":0,"x_max":0,"o":"m 254 1008 b 60 943 181 1008 111 986 l 132 875 b 242 925 161 904 197 925 b 319 860 285 925 319 897 l 308 860 b 32 714 118 860 32 811 b 188 590 32 638 101 590 b 317 650 250 590 299 611 l 319 650 l 319 599 l 453 599 l 453 811 b 254 1008 453 950 393 1008 z m 174 719 b 307 776 174 754 211 776 l 328 776 l 328 751 b 233 682 328 711 279 682 b 174 719 196 682 174 693 z "},"º":{"ha":551,"x_min":0,"x_max":0,"o":"m 275 1008 b 32 799 135 1008 32 921 b 275 590 32 674 131 590 b 519 799 418 590 519 672 b 275 1008 519 921 415 1008 z m 174 800 b 275 892 174 856 219 892 b 378 799 331 892 378 856 b 275 707 378 747 335 707 b 174 800 214 707 174 749 z "},"Δ":{"ha":963,"x_min":0,"x_max":0,"o":"m 600 1001 l 371 1001 l 38 108 l 38 0 l 924 0 l 924 110 z m 475 806 l 479 806 b 560 558 501 726 533 642 l 715 151 l 236 151 l 401 579 b 475 806 424 653 456 731 z "},"δ":{"ha":963,"x_min":0,"x_max":0,"o":"m 600 1001 l 371 1001 l 38 108 l 38 0 l 924 0 l 924 110 z m 475 806 l 479 806 b 560 558 501 726 533 642 l 715 151 l 236 151 l 401 579 b 475 806 424 653 456 731 z "},"Ω":{"ha":1043,"x_min":0,"x_max":0,"o":"m 54 0 l 449 0 l 449 113 b 269 506 318 193 269 360 b 524 840 269 667 349 840 b 772 513 697 840 772 664 b 593 113 772 363 729 196 l 593 0 l 986 0 l 986 151 l 785 151 l 785 156 b 967 551 899 253 967 401 b 525 994 967 783 793 994 b 75 544 268 994 75 801 b 253 156 75 392 139 257 l 253 151 l 54 151 z "},"ω":{"ha":1043,"x_min":0,"x_max":0,"o":"m 54 0 l 449 0 l 449 113 b 269 506 318 193 269 360 b 524 840 269 667 349 840 b 772 513 697 840 772 664 b 593 113 772 363 729 196 l 593 0 l 986 0 l 986 151 l 785 151 l 785 156 b 967 551 899 253 967 401 b 525 994 967 783 793 994 b 75 544 268 994 75 801 b 253 156 75 392 139 257 l 253 151 l 54 151 z "},"μ":{"ha":797,"x_min":0,"x_max":0,"o":"m 74 -317 l 282 -317 l 282 -12 b 324 -17 294 -15 310 -17 b 521 92 408 -17 483 24 l 524 92 l 524 0 l 724 0 l 724 675 l 515 675 l 515 333 b 390 167 515 221 478 167 b 282 329 314 167 282 215 l 282 675 l 74 675 z "},"π":{"ha":885,"x_min":0,"x_max":0,"o":"m 6 688 l 26 564 b 169 578 58 574 103 578 b 81 0 163 364 115 117 l 267 0 b 358 578 326 179 351 453 l 556 578 l 556 193 b 581 0 556 119 561 29 l 767 0 b 747 201 753 57 747 131 l 747 578 l 850 578 l 864 736 l 238 736 b 6 688 122 736 40 715 z "},"ء":{"ha":656,"x_min":0,"x_max":0,"o":"m 78 163 l 78 0 l 586 0 l 586 163 l 347 163 b 322 251 335 181 322 222 b 425 349 322 307 361 349 b 524 335 453 349 482 344 l 561 503 b 410 524 529 511 478 524 b 135 281 243 524 135 426 b 164 163 135 244 143 200 z "},"ا":{"ha":367,"x_min":0,"x_max":0,"o":"m 81 0 l 286 0 l 286 1050 l 81 1050 z "},"ﺎ":{"ha":406,"x_min":0,"x_max":0,"o":"m 406 0 b 433 83 425 0 433 21 b 406 179 433 153 425 179 b 286 275 319 179 286 210 l 286 1050 l 81 1050 l 81 272 b 406 0 81 89 160 0 z "},"أ":{"ha":367,"x_min":0,"x_max":0,"o":"m 81 0 l 286 0 l 286 1050 l 81 1050 z m 56 1203 l 56 1110 l 303 1110 l 303 1203 l 192 1203 b 182 1238 186 1214 182 1225 b 231 1278 182 1265 201 1278 b 274 1272 247 1278 263 1275 l 290 1361 b 217 1371 271 1367 243 1371 b 85 1260 135 1371 85 1325 b 100 1203 85 1240 90 1221 z "},"ﺄ":{"ha":406,"x_min":0,"x_max":0,"o":"m 81 1050 l 81 272 b 406 0 81 89 160 0 b 433 83 425 0 433 21 b 406 179 433 153 425 179 b 286 275 319 179 286 210 l 286 1050 z m 303 1110 l 303 1203 l 192 1203 b 182 1238 186 1214 182 1225 b 231 1278 182 1265 201 1278 b 274 1272 247 1278 263 1275 l 290 1361 b 217 1371 271 1367 243 1371 b 85 1260 135 1371 85 1325 b 100 1203 85 1240 90 1221 l 56 1203 l 56 1110 z "},"إ":{"ha":367,"x_min":0,"x_max":0,"o":"m 81 0 l 286 0 l 286 1050 l 81 1050 z m 306 -360 l 306 -268 l 196 -268 b 185 -232 189 -257 185 -244 b 233 -192 185 -204 204 -192 b 276 -197 250 -192 265 -194 l 293 -108 b 219 -99 274 -103 246 -99 b 88 -210 138 -99 88 -144 b 104 -268 88 -229 93 -250 l 58 -268 l 58 -360 z "},"ﺈ":{"ha":406,"x_min":0,"x_max":0,"o":"m 81 1050 l 81 272 b 406 0 81 89 160 0 b 433 83 425 0 433 21 b 406 179 433 153 425 179 b 286 275 319 179 286 210 l 286 1050 z m 67 -360 l 314 -360 l 314 -268 l 204 -268 b 193 -232 197 -257 193 -244 b 242 -192 193 -204 213 -192 b 285 -197 258 -192 274 -194 l 301 -108 b 228 -99 282 -103 254 -99 b 96 -210 146 -99 96 -144 b 113 -268 96 -229 101 -250 l 67 -268 z "},"آ":{"ha":367,"x_min":0,"x_max":0,"o":"m 285 1113 b 414 1186 335 1113 372 1132 l 349 1257 b 279 1225 322 1233 304 1225 b 67 1265 218 1225 121 1265 b -58 1207 19 1265 -26 1239 l 0 1126 b 65 1150 14 1136 35 1150 b 285 1113 110 1150 211 1113 z m 81 0 l 286 0 l 286 1050 l 81 1050 z "},"ﺂ":{"ha":406,"x_min":0,"x_max":0,"o":"m 285 1113 b 414 1186 335 1113 372 1132 l 349 1257 b 279 1225 322 1233 304 1225 b 67 1265 218 1225 121 1265 b -58 1207 19 1265 -26 1239 l 0 1126 b 65 1150 14 1136 35 1150 b 285 1113 110 1150 211 1113 z m 406 0 b 433 83 425 0 433 21 b 406 179 433 153 425 179 b 286 275 319 179 286 210 l 286 1050 l 81 1050 l 81 272 b 406 0 81 89 160 0 z "},"ٱ":{"ha":367,"x_min":0,"x_max":0,"o":"m 286 0 l 286 1050 l 81 1050 l 81 0 z m 350 1114 b 372 1218 365 1151 372 1188 b 253 1347 372 1297 325 1347 b 138 1288 204 1347 168 1324 l 138 1343 l 53 1343 l 53 1204 l -3 1204 l -3 1114 z m 132 1204 b 228 1256 164 1242 199 1256 b 279 1215 261 1256 279 1236 b 276 1204 279 1213 278 1208 z "},"ﭑ":{"ha":406,"x_min":0,"x_max":0,"o":"m 406 0 b 433 83 425 0 433 21 b 406 179 433 153 425 179 b 286 275 319 179 286 210 l 286 1050 l 81 1050 l 81 272 b 406 0 81 89 160 0 z m -3 1114 l 350 1114 b 372 1218 365 1151 372 1188 b 253 1347 372 1297 325 1347 b 138 1288 204 1347 168 1324 l 138 1343 l 53 1343 l 53 1204 l -3 1204 z m 132 1204 b 228 1256 164 1242 199 1256 b 279 1215 261 1256 279 1236 b 276 1204 279 1213 278 1208 z "},"ٮ":{"ha":1347,"x_min":0,"x_max":0,"o":"m 1078 592 l 1078 296 b 972 179 1078 210 1050 179 l 421 179 b 226 335 304 179 226 238 b 249 471 226 367 232 399 l 72 517 b 28 292 51 461 28 378 b 388 0 28 124 161 0 l 1047 0 b 1283 228 1204 0 1283 85 l 1283 592 z "},"ب":{"ha":1347,"x_min":0,"x_max":0,"o":"m 1078 592 l 1078 296 b 972 179 1078 210 1050 179 l 421 179 b 226 335 304 179 226 238 b 249 471 226 367 232 399 l 72 517 b 28 292 51 461 28 378 b 388 0 28 124 161 0 l 1047 0 b 1283 228 1204 0 1283 85 l 1283 592 z m 658 -107 b 556 -212 596 -107 556 -153 b 658 -314 556 -271 596 -314 b 758 -212 721 -314 758 -271 b 658 -107 758 -153 721 -107 z "},"ﺐ":{"ha":1407,"x_min":0,"x_max":0,"o":"m 1407 179 b 1283 307 1333 179 1283 217 l 1283 592 l 1078 592 l 1078 296 b 972 179 1078 210 1050 179 l 421 179 b 226 335 304 179 226 238 b 249 471 226 367 232 399 l 72 517 b 28 292 51 461 28 378 b 388 0 28 124 161 0 l 1047 0 b 1226 63 1128 0 1188 22 b 1407 0 1263 22 1319 0 b 1435 83 1426 0 1435 21 b 1407 179 1435 153 1426 179 z m 658 -107 b 556 -212 596 -107 556 -153 b 658 -314 556 -271 596 -314 b 758 -212 721 -314 758 -271 b 658 -107 758 -153 721 -107 z "},"ﺒ":{"ha":450,"x_min":0,"x_max":0,"o":"m 450 179 b 326 307 376 179 326 217 l 326 592 l 121 592 l 121 326 b 0 179 121 204 96 179 l 0 0 b 260 75 121 0 207 19 b 450 0 294 26 354 0 b 478 83 469 0 478 21 b 450 179 478 153 469 179 z m 206 -107 b 103 -212 143 -107 103 -153 b 206 -314 103 -271 143 -314 b 306 -212 268 -314 306 -271 b 206 -107 306 -153 268 -107 z "},"ﺑ":{"ha":390,"x_min":0,"x_max":0,"o":"m 0 0 b 326 301 221 0 326 65 l 326 592 l 121 592 l 121 326 b 0 179 121 204 96 179 z m 168 -314 b 268 -212 231 -314 268 -271 b 168 -107 268 -153 231 -107 b 65 -212 106 -107 65 -153 b 168 -314 65 -271 106 -314 z "},"پ":{"ha":1347,"x_min":0,"x_max":0,"o":"m 1078 592 l 1078 296 b 972 179 1078 210 1050 179 l 421 179 b 226 335 304 179 226 238 b 249 471 226 367 232 399 l 72 517 b 28 292 51 461 28 378 b 388 0 28 124 161 0 l 1047 0 b 1283 228 1204 0 1283 85 l 1283 592 z m 632 -212 b 531 -108 632 -154 590 -108 b 426 -212 471 -108 426 -154 b 531 -315 426 -272 471 -315 b 632 -212 590 -315 632 -272 z m 781 -108 b 676 -212 721 -108 676 -154 b 781 -315 676 -272 721 -315 b 882 -212 839 -315 882 -272 b 781 -108 882 -154 839 -108 z m 658 -317 b 554 -422 600 -317 554 -361 b 658 -524 554 -481 600 -524 b 760 -422 719 -524 760 -481 b 658 -317 760 -361 719 -317 z "},"ﭗ":{"ha":1407,"x_min":0,"x_max":0,"o":"m 1407 179 b 1283 307 1333 179 1283 217 l 1283 592 l 1078 592 l 1078 296 b 972 179 1078 210 1050 179 l 421 179 b 226 335 304 179 226 238 b 249 471 226 367 232 399 l 72 517 b 28 292 51 461 28 378 b 388 0 28 124 161 0 l 1047 0 b 1226 63 1128 0 1188 22 b 1407 0 1263 22 1319 0 b 1435 83 1426 0 1435 21 b 1407 179 1435 153 1426 179 z m 632 -212 b 531 -108 632 -154 590 -108 b 426 -212 471 -108 426 -154 b 531 -315 426 -272 471 -315 b 632 -212 590 -315 632 -272 z m 781 -108 b 676 -212 721 -108 676 -154 b 781 -315 676 -272 721 -315 b 882 -212 839 -315 882 -272 b 781 -108 882 -154 839 -108 z m 658 -317 b 554 -422 600 -317 554 -361 b 658 -524 554 -481 600 -524 b 760 -422 719 -524 760 -481 b 658 -317 760 -361 719 -317 z "},"ﭙ":{"ha":504,"x_min":0,"x_max":0,"o":"m 504 179 b 381 307 431 179 381 217 l 381 592 l 175 592 l 175 326 b 40 179 175 208 151 179 l 0 179 l 0 0 l 46 0 b 314 75 174 0 261 21 b 504 0 349 26 408 0 b 532 83 524 0 532 21 b 504 179 532 153 524 179 z m 225 -212 b 124 -108 225 -154 183 -108 b 19 -212 64 -108 19 -154 b 124 -315 19 -272 64 -315 b 225 -212 183 -315 225 -272 z m 374 -108 b 269 -212 314 -108 269 -154 b 374 -315 269 -272 314 -315 b 475 -212 432 -315 475 -272 b 374 -108 475 -154 432 -108 z m 251 -317 b 147 -422 193 -317 147 -361 b 251 -524 147 -481 193 -524 b 353 -422 313 -524 353 -481 b 251 -317 353 -361 313 -317 z "},"ﭘ":{"ha":433,"x_min":0,"x_max":0,"o":"m 0 0 l 46 0 b 381 301 285 0 381 71 l 381 592 l 175 592 l 175 326 b 40 179 175 208 151 179 l 0 179 z m 106 -315 b 207 -212 165 -315 207 -272 b 106 -108 207 -154 165 -108 b 1 -212 46 -108 1 -154 b 106 -315 1 -272 46 -315 z m 356 -315 b 457 -212 414 -315 457 -272 b 356 -108 457 -154 414 -108 b 251 -212 296 -108 251 -154 b 356 -315 251 -272 296 -315 z m 233 -524 b 335 -422 294 -524 335 -481 b 233 -317 335 -361 294 -317 b 129 -422 175 -317 129 -361 b 233 -524 129 -481 175 -524 z "},"ﯩ":{"ha":450,"x_min":0,"x_max":0,"o":"m 450 179 b 326 307 376 179 326 217 l 326 592 l 121 592 l 121 326 b 0 179 121 204 96 179 l 0 0 b 260 75 121 0 207 19 b 450 0 294 26 354 0 b 478 83 469 0 478 21 b 450 179 478 153 469 179 z "},"ﯨ":{"ha":390,"x_min":0,"x_max":0,"o":"m 0 0 b 326 301 221 0 326 65 l 326 592 l 121 592 l 121 326 b 0 179 121 204 96 179 z "},"ت":{"ha":1347,"x_min":0,"x_max":0,"o":"m 546 596 b 647 700 606 596 647 642 b 546 803 647 760 606 803 b 442 700 486 803 442 760 b 546 596 442 642 486 596 z m 796 596 b 897 700 854 596 897 642 b 796 803 897 760 854 803 b 692 700 736 803 692 760 b 796 596 692 642 736 596 z m 1078 592 l 1078 296 b 972 179 1078 210 1050 179 l 421 179 b 226 335 304 179 226 238 b 249 471 226 367 232 399 l 72 517 b 28 292 51 461 28 378 b 388 0 28 124 161 0 l 1047 0 b 1283 228 1204 0 1283 85 l 1283 592 z "},"ﺖ":{"ha":1407,"x_min":0,"x_max":0,"o":"m 546 596 b 647 700 606 596 647 642 b 546 803 647 760 606 803 b 442 700 486 803 442 760 b 546 596 442 642 486 596 z m 796 596 b 897 700 854 596 897 642 b 796 803 897 760 854 803 b 692 700 736 803 692 760 b 796 596 692 642 736 596 z m 1407 179 b 1283 307 1333 179 1283 217 l 1283 592 l 1078 592 l 1078 296 b 972 179 1078 210 1050 179 l 421 179 b 226 335 304 179 226 238 b 249 471 226 367 232 399 l 72 517 b 28 292 51 461 28 378 b 388 0 28 124 161 0 l 1047 0 b 1226 63 1128 0 1188 22 b 1407 0 1263 22 1319 0 b 1435 83 1426 0 1435 21 b 1407 179 1435 153 1426 179 z "},"ﺘ":{"ha":504,"x_min":0,"x_max":0,"o":"m 124 753 b 225 857 183 753 225 799 b 124 960 225 917 183 960 b 19 857 64 960 19 917 b 124 753 19 799 64 753 z m 374 753 b 475 857 432 753 475 799 b 374 960 475 917 432 960 b 269 857 314 960 269 917 b 374 753 269 799 314 753 z m 504 179 b 381 307 431 179 381 217 l 381 592 l 175 592 l 175 326 b 40 179 175 208 151 179 l 0 179 l 0 0 l 46 0 b 314 75 174 0 261 21 b 504 0 349 26 408 0 b 532 83 524 0 532 21 b 504 179 532 153 524 179 z "},"ﺗ":{"ha":486,"x_min":0,"x_max":0,"o":"m 124 753 b 225 857 183 753 225 799 b 124 960 225 917 183 960 b 19 857 64 960 19 917 b 124 753 19 799 64 753 z m 374 753 b 475 857 432 753 475 799 b 374 960 475 917 432 960 b 269 857 314 960 269 917 b 374 753 269 799 314 753 z m 0 0 l 46 0 b 381 301 285 0 381 71 l 381 592 l 175 592 l 175 326 b 40 179 175 208 151 179 l 0 179 z "},"ث":{"ha":1347,"x_min":0,"x_max":0,"o":"m 675 792 b 778 896 738 792 778 839 b 675 1001 778 954 738 1001 b 574 896 618 1001 574 954 b 675 792 574 839 618 792 z m 546 579 b 647 685 606 579 647 625 b 546 788 647 744 606 788 b 442 685 486 788 442 744 b 546 579 442 625 486 579 z m 692 685 b 796 579 692 625 736 579 b 897 685 854 579 897 625 b 796 788 897 744 854 788 b 692 685 736 788 692 744 z m 1078 592 l 1078 296 b 972 179 1078 210 1050 179 l 421 179 b 226 335 304 179 226 238 b 249 471 226 367 232 399 l 72 517 b 28 292 51 461 28 378 b 388 0 28 124 161 0 l 1047 0 b 1283 228 1204 0 1283 85 l 1283 592 z "},"ﺚ":{"ha":1407,"x_min":0,"x_max":0,"o":"m 675 792 b 778 896 738 792 778 839 b 675 1001 778 954 738 1001 b 574 896 618 1001 574 954 b 675 792 574 839 618 792 z m 546 579 b 647 685 606 579 647 625 b 546 788 647 744 606 788 b 442 685 486 788 442 744 b 546 579 442 625 486 579 z m 692 685 b 796 579 692 625 736 579 b 897 685 854 579 897 625 b 796 788 897 744 854 788 b 692 685 736 788 692 744 z m 1407 179 b 1283 307 1333 179 1283 217 l 1283 592 l 1078 592 l 1078 296 b 972 179 1078 210 1050 179 l 421 179 b 226 335 304 179 226 238 b 249 471 226 367 232 399 l 72 517 b 28 292 51 461 28 378 b 388 0 28 124 161 0 l 1047 0 b 1226 63 1128 0 1188 22 b 1407 0 1263 22 1319 0 b 1435 83 1426 0 1435 21 b 1407 179 1435 153 1426 179 z "},"ﺜ":{"ha":504,"x_min":0,"x_max":0,"o":"m 253 949 b 356 1053 315 949 356 996 b 253 1158 356 1111 315 1158 b 151 1053 196 1158 151 1111 b 253 949 151 996 196 949 z m 124 736 b 225 842 183 736 225 782 b 124 944 225 901 183 944 b 19 842 64 944 19 901 b 124 736 19 782 64 736 z m 269 842 b 374 736 269 782 314 736 b 475 842 432 736 475 782 b 374 944 475 901 432 944 b 269 842 314 944 269 901 z m 504 179 b 381 307 431 179 381 217 l 381 592 l 175 592 l 175 326 b 40 179 175 208 151 179 l 0 179 l 0 0 l 46 0 b 314 75 174 0 261 21 b 504 0 349 26 408 0 b 532 83 524 0 532 21 b 504 179 532 153 524 179 z "},"ﺛ":{"ha":486,"x_min":0,"x_max":0,"o":"m 253 949 b 356 1053 315 949 356 996 b 253 1158 356 1111 315 1158 b 151 1053 196 1158 151 1111 b 253 949 151 996 196 949 z m 124 736 b 225 842 183 736 225 782 b 124 944 225 901 183 944 b 19 842 64 944 19 901 b 124 736 19 782 64 736 z m 374 736 b 475 842 432 736 475 782 b 374 944 475 901 432 944 b 269 842 314 944 269 901 b 374 736 269 782 314 736 z m 0 0 l 46 0 b 381 301 285 0 381 71 l 381 592 l 175 592 l 175 326 b 40 179 175 208 151 179 l 0 179 z "},"ٹ":{"ha":1347,"x_min":0,"x_max":0,"o":"m 388 0 l 1047 0 b 1283 228 1204 0 1283 85 l 1283 592 l 1078 592 l 1078 296 b 972 179 1078 210 1050 179 l 421 179 b 226 335 304 179 226 238 b 249 471 226 367 232 399 l 72 517 b 28 292 51 461 28 378 b 388 0 28 124 161 0 z m 839 601 b 864 719 856 646 864 685 b 719 876 864 818 804 876 b 596 810 664 876 626 851 l 596 942 l 501 942 l 501 703 l 439 703 l 439 601 z m 596 703 b 707 775 628 750 671 775 b 760 719 739 775 760 754 b 758 703 760 714 760 708 z "},"ﭧ":{"ha":1407,"x_min":0,"x_max":0,"o":"m 28 292 b 388 0 28 124 161 0 l 1047 0 b 1226 63 1128 0 1188 22 b 1407 0 1263 22 1319 0 b 1435 83 1426 0 1435 21 b 1407 179 1435 153 1426 179 b 1283 307 1333 179 1283 217 l 1283 592 l 1078 592 l 1078 296 b 972 179 1078 210 1050 179 l 421 179 b 226 335 304 179 226 238 b 249 471 226 367 232 399 l 72 517 b 28 292 51 461 28 378 z m 839 601 b 864 719 856 646 864 685 b 719 876 864 818 804 876 b 596 810 664 876 626 851 l 596 942 l 501 942 l 501 703 l 439 703 l 439 601 z m 596 703 b 707 775 628 750 671 775 b 760 719 739 775 760 754 b 758 703 760 714 760 708 z "},"ﭩ":{"ha":450,"x_min":0,"x_max":0,"o":"m 0 0 b 260 75 121 0 207 19 b 450 0 294 26 354 0 b 478 83 469 0 478 21 b 450 179 478 153 469 179 b 326 307 376 179 326 217 l 326 592 l 121 592 l 121 326 b 0 179 121 204 96 179 z m 390 758 b 415 876 407 803 415 842 b 271 1033 415 975 356 1033 b 147 967 215 1033 178 1008 l 147 1099 l 53 1099 l 53 860 l -10 860 l -10 758 z m 147 860 b 258 932 179 907 222 932 b 311 876 290 932 311 911 b 310 860 311 871 311 865 z "},"ﭨ":{"ha":390,"x_min":0,"x_max":0,"o":"m 326 301 l 326 592 l 121 592 l 121 326 b 0 179 121 204 96 179 l 0 0 b 326 301 221 0 326 65 z m -10 758 l 390 758 b 415 876 407 803 415 842 b 271 1033 415 975 356 1033 b 147 967 215 1033 178 1008 l 147 1099 l 53 1099 l 53 860 l -10 860 z m 258 932 b 311 876 290 932 311 911 b 310 860 311 871 311 865 l 147 860 b 258 932 179 907 222 932 z "},"ج":{"ha":826,"x_min":0,"x_max":0,"o":"m 389 607 b 200 575 329 607 253 596 l 244 406 b 378 421 289 415 332 421 b 578 183 517 421 578 357 l 578 179 l 338 179 b 29 -101 147 179 29 75 b 351 -361 29 -264 168 -361 l 354 -361 l 346 -186 l 344 -186 b 240 -93 293 -186 240 -154 b 343 0 240 -36 279 0 l 749 0 b 769 210 763 74 769 144 b 389 607 769 446 668 607 z m 504 -46 b 411 -142 447 -46 411 -87 b 504 -232 411 -194 447 -232 b 594 -142 560 -232 594 -194 b 504 -46 594 -87 560 -46 z "},"ﺞ":{"ha":842,"x_min":0,"x_max":0,"o":"m 351 -361 l 354 -361 l 346 -186 l 344 -186 b 240 -93 293 -186 240 -154 b 343 0 240 -36 279 0 l 842 0 b 869 83 861 0 869 21 b 842 179 869 153 861 179 l 769 179 l 769 210 b 389 607 769 446 668 607 b 200 575 329 607 253 596 l 244 406 b 378 421 289 415 332 421 b 578 183 517 421 578 357 l 578 179 l 338 179 b 29 -101 147 179 29 75 b 351 -361 29 -264 168 -361 z m 504 -232 b 594 -142 560 -232 594 -194 b 504 -46 594 -87 560 -46 b 411 -142 447 -46 411 -87 b 504 -232 411 -194 447 -232 z "},"ﺠ":{"ha":654,"x_min":0,"x_max":0,"o":"m 0 179 l 0 0 l 654 0 b 682 83 674 0 682 21 b 654 179 682 153 674 179 l 599 179 b 215 607 613 438 508 607 b 25 575 179 607 93 600 l 71 406 b 203 421 115 415 158 421 b 390 179 374 421 407 303 z m 286 -314 b 386 -212 349 -314 386 -271 b 286 -107 386 -153 349 -107 b 183 -212 224 -107 183 -153 b 286 -314 183 -271 224 -314 z "},"ﺟ":{"ha":657,"x_min":0,"x_max":0,"o":"m 0 0 l 575 0 b 215 607 649 357 572 607 b 25 575 179 607 93 600 l 71 406 b 203 421 115 415 158 421 b 390 179 374 421 407 303 l 0 179 z m 286 -314 b 386 -212 349 -314 386 -271 b 286 -107 386 -153 349 -107 b 183 -212 224 -107 183 -153 b 286 -314 183 -271 224 -314 z "},"چ":{"ha":826,"x_min":0,"x_max":0,"o":"m 389 607 b 200 575 329 607 253 596 l 244 406 b 378 421 289 415 332 421 b 578 183 517 421 578 357 l 578 179 l 338 179 b 29 -101 147 179 29 75 b 351 -361 29 -264 168 -361 l 354 -361 l 346 -186 l 344 -186 b 240 -93 293 -186 240 -154 b 343 0 240 -36 279 0 l 749 0 b 769 210 763 74 769 144 b 389 607 769 446 668 607 z m 531 -112 b 460 -40 531 -72 501 -40 b 386 -112 418 -40 386 -72 b 460 -185 386 -154 418 -185 b 531 -112 501 -185 531 -154 z m 635 -40 b 561 -112 593 -40 561 -72 b 635 -185 561 -154 593 -185 b 706 -112 675 -185 706 -154 b 635 -40 706 -72 675 -40 z m 549 -186 b 476 -260 508 -186 476 -217 b 549 -331 476 -300 508 -331 b 619 -260 592 -331 619 -300 b 549 -186 619 -217 592 -186 z "},"ﭻ":{"ha":842,"x_min":0,"x_max":0,"o":"m 351 -361 l 354 -361 l 346 -186 l 344 -186 b 240 -93 293 -186 240 -154 b 343 0 240 -36 279 0 l 842 0 b 869 83 861 0 869 21 b 842 179 869 153 861 179 l 769 179 l 769 210 b 389 607 769 446 668 607 b 200 575 329 607 253 596 l 244 406 b 378 421 289 415 332 421 b 578 183 517 421 578 357 l 578 179 l 338 179 b 29 -101 147 179 29 75 b 351 -361 29 -264 168 -361 z m 460 -185 b 531 -112 501 -185 531 -154 b 460 -40 531 -72 501 -40 b 386 -112 418 -40 386 -72 b 460 -185 386 -154 418 -185 z m 561 -112 b 635 -185 561 -154 593 -185 b 706 -112 675 -185 706 -154 b 635 -40 706 -72 675 -40 b 561 -112 593 -40 561 -72 z m 549 -331 b 619 -260 592 -331 619 -300 b 549 -186 619 -217 592 -186 b 476 -260 508 -186 476 -217 b 549 -331 476 -300 508 -331 z "},"ﭽ":{"ha":654,"x_min":0,"x_max":0,"o":"m 0 179 l 0 0 l 654 0 b 682 83 674 0 682 21 b 654 179 682 153 674 179 l 599 179 b 215 607 613 438 508 607 b 25 575 179 607 93 600 l 71 406 b 203 421 115 415 158 421 b 390 179 374 421 407 303 z m 182 -422 b 286 -524 182 -481 228 -524 b 388 -422 347 -524 388 -481 b 286 -317 388 -361 347 -317 b 182 -422 228 -317 182 -361 z m 54 -212 b 158 -315 54 -272 99 -315 b 260 -212 218 -315 260 -272 b 158 -108 260 -154 218 -108 b 54 -212 99 -108 54 -154 z m 304 -212 b 408 -315 304 -272 349 -315 b 510 -212 467 -315 510 -272 b 408 -108 510 -154 467 -108 b 304 -212 349 -108 304 -154 z "},"ﭼ":{"ha":657,"x_min":0,"x_max":0,"o":"m 0 0 l 575 0 b 215 607 649 357 572 607 b 25 575 179 607 93 600 l 71 406 b 203 421 115 415 158 421 b 390 179 374 421 407 303 l 0 179 z m 158 -315 b 260 -212 218 -315 260 -272 b 158 -108 260 -154 218 -108 b 54 -212 99 -108 54 -154 b 158 -315 54 -272 99 -315 z m 408 -315 b 510 -212 467 -315 510 -272 b 408 -108 510 -154 467 -108 b 304 -212 349 -108 304 -154 b 408 -315 304 -272 349 -315 z m 286 -524 b 388 -422 347 -524 388 -481 b 286 -317 388 -361 347 -317 b 182 -422 228 -317 182 -361 b 286 -524 182 -481 228 -524 z "},"ح":{"ha":840,"x_min":0,"x_max":0,"o":"m 343 0 l 763 0 b 783 210 776 74 783 144 b 389 607 783 446 668 607 b 200 575 329 607 253 596 l 244 406 b 378 421 289 415 332 421 b 578 183 517 421 578 357 l 578 179 l 332 179 b 29 -82 147 179 29 75 b 353 -361 29 -264 168 -361 b 507 -336 419 -361 458 -351 l 471 -165 b 369 -175 438 -172 401 -175 b 235 -87 288 -175 235 -150 b 343 0 235 -32 279 0 z "},"ﺢ":{"ha":842,"x_min":0,"x_max":0,"o":"m 353 -361 b 507 -336 419 -361 458 -351 l 471 -165 b 369 -175 438 -172 401 -175 b 235 -87 288 -175 235 -150 b 343 0 235 -32 279 0 l 842 0 b 869 83 861 0 869 21 b 842 179 869 153 861 179 l 783 179 l 783 210 b 389 607 783 446 668 607 b 200 575 329 607 253 596 l 244 406 b 378 421 289 415 332 421 b 578 183 517 421 578 357 l 578 179 l 332 179 b 29 -82 147 179 29 75 b 353 -361 29 -264 168 -361 z "},"ﺤ":{"ha":654,"x_min":0,"x_max":0,"o":"m 0 0 l 654 0 b 682 83 674 0 682 21 b 654 179 682 153 674 179 l 599 179 b 215 607 613 438 508 607 b 25 575 179 607 93 600 l 71 406 b 203 421 115 415 158 421 b 390 179 374 421 407 303 l 0 179 z "},"ﺣ":{"ha":657,"x_min":0,"x_max":0,"o":"m 0 0 l 575 0 b 215 607 649 357 572 607 b 25 575 179 607 93 600 l 71 406 b 203 421 115 415 158 421 b 390 179 374 421 407 303 l 0 179 z "},"خ":{"ha":840,"x_min":0,"x_max":0,"o":"m 389 768 b 489 872 451 768 489 814 b 389 975 489 932 451 975 b 286 872 326 975 286 932 b 389 768 286 814 326 768 z m 343 0 l 763 0 b 783 210 776 74 783 144 b 389 607 783 446 668 607 b 200 575 329 607 253 596 l 244 406 b 378 421 289 415 332 421 b 578 183 517 421 578 357 l 578 179 l 332 179 b 29 -82 147 179 29 75 b 353 -361 29 -264 168 -361 b 507 -336 419 -361 458 -351 l 471 -165 b 369 -175 438 -172 401 -175 b 235 -87 288 -175 235 -150 b 343 0 235 -32 279 0 z "},"ﺦ":{"ha":842,"x_min":0,"x_max":0,"o":"m 353 -361 b 507 -336 419 -361 458 -351 l 471 -165 b 369 -175 438 -172 401 -175 b 235 -87 288 -175 235 -150 b 343 0 235 -32 279 0 l 842 0 b 869 83 861 0 869 21 b 842 179 869 153 861 179 l 783 179 l 783 210 b 389 607 783 446 668 607 b 200 575 329 607 253 596 l 244 406 b 378 421 289 415 332 421 b 578 183 517 421 578 357 l 578 179 l 332 179 b 29 -82 147 179 29 75 b 353 -361 29 -264 168 -361 z m 389 768 b 489 872 451 768 489 814 b 389 975 489 932 451 975 b 286 872 326 975 286 932 b 389 768 286 814 326 768 z "},"ﺨ":{"ha":654,"x_min":0,"x_max":0,"o":"m 0 0 l 654 0 b 682 83 674 0 682 21 b 654 179 682 153 674 179 l 599 179 b 215 607 613 438 508 607 b 25 575 179 607 93 600 l 71 406 b 203 421 115 415 158 421 b 390 179 374 421 407 303 l 0 179 z m 215 768 b 315 872 278 768 315 814 b 215 975 315 932 278 975 b 113 872 153 975 113 932 b 215 768 113 814 153 768 z "},"ﺧ":{"ha":657,"x_min":0,"x_max":0,"o":"m 215 768 b 315 872 278 768 315 814 b 215 975 315 932 278 975 b 113 872 153 975 113 932 b 215 768 113 814 153 768 z m 0 0 l 575 0 b 215 607 649 357 572 607 b 25 575 179 607 93 600 l 71 406 b 203 421 115 415 158 421 b 390 179 374 421 407 303 l 0 179 z "},"د":{"ha":692,"x_min":0,"x_max":0,"o":"m 324 639 l 199 474 b 431 179 268 433 421 308 l 42 179 l 42 0 l 636 0 l 636 93 b 324 639 636 293 592 465 z "},"ﺪ":{"ha":707,"x_min":0,"x_max":0,"o":"m 42 179 l 42 0 l 707 0 b 735 83 726 0 735 21 b 707 179 735 153 726 179 l 633 179 b 324 639 618 343 553 490 l 199 474 b 431 179 268 433 421 308 z "},"ذ":{"ha":692,"x_min":0,"x_max":0,"o":"m 253 726 b 353 831 315 726 353 772 b 253 933 353 890 315 933 b 150 831 190 933 150 890 b 253 726 150 772 190 726 z m 324 639 l 199 474 b 431 179 268 433 421 308 l 42 179 l 42 0 l 636 0 l 636 93 b 324 639 636 293 592 465 z "},"ﺬ":{"ha":707,"x_min":0,"x_max":0,"o":"m 42 0 l 707 0 b 735 83 726 0 735 21 b 707 179 735 153 726 179 l 633 179 b 324 639 618 343 553 490 l 199 474 b 431 179 268 433 421 308 l 42 179 z m 150 831 b 253 726 150 772 190 726 b 353 831 315 726 353 772 b 253 933 353 890 315 933 b 150 831 190 933 150 890 z "},"ڈ":{"ha":692,"x_min":0,"x_max":0,"o":"m 42 179 l 42 0 l 636 0 l 636 93 b 324 639 636 293 592 465 l 199 474 b 431 179 268 433 421 308 z m 19 732 l 419 732 b 444 850 436 776 444 815 b 300 1007 444 949 385 1007 b 176 940 244 1007 207 982 l 176 1072 l 82 1072 l 82 833 l 19 833 z m 176 833 b 288 906 208 881 251 906 b 340 850 319 906 340 885 b 339 833 340 844 340 839 z "},"ﮉ":{"ha":707,"x_min":0,"x_max":0,"o":"m 707 0 b 735 83 726 0 735 21 b 707 179 735 153 726 179 l 633 179 b 324 639 618 343 553 490 l 199 474 b 431 179 268 433 421 308 l 42 179 l 42 0 z m 19 732 l 419 732 b 444 850 436 776 444 815 b 300 1007 444 949 385 1007 b 176 940 244 1007 207 982 l 176 1072 l 82 1072 l 82 833 l 19 833 z m 176 833 b 288 906 208 881 251 906 b 340 850 319 906 340 885 b 339 833 340 844 340 839 z "},"ر":{"ha":439,"x_min":0,"x_max":0,"o":"m 18 -265 b 358 86 253 -256 358 -153 l 358 592 l 153 592 l 153 44 b -7 -92 153 -49 110 -79 z "},"ﺮ":{"ha":468,"x_min":0,"x_max":0,"o":"m 468 179 l 358 179 l 358 592 l 153 592 l 153 44 b -7 -92 153 -49 110 -79 l 18 -265 b 353 0 222 -257 329 -178 l 468 0 b 496 83 488 0 496 21 b 468 179 496 153 488 179 z "},"ز":{"ha":439,"x_min":0,"x_max":0,"o":"m 254 753 b 354 857 317 753 354 799 b 254 960 354 917 317 960 b 151 857 192 960 151 917 b 254 753 151 799 192 753 z m 18 -265 b 358 86 253 -256 358 -153 l 358 592 l 153 592 l 153 44 b -7 -92 153 -49 110 -79 z "},"ﺰ":{"ha":468,"x_min":0,"x_max":0,"o":"m 254 753 b 354 857 317 753 354 799 b 254 960 354 917 317 960 b 151 857 192 960 151 917 b 254 753 151 799 192 753 z m 468 179 l 358 179 l 358 592 l 153 592 l 153 44 b -7 -92 153 -49 110 -79 l 18 -265 b 353 0 222 -257 329 -178 l 468 0 b 496 83 488 0 496 21 b 468 179 496 153 488 179 z "},"ڑ":{"ha":439,"x_min":0,"x_max":0,"o":"m 18 -265 b 358 86 253 -256 358 -153 l 358 592 l 153 592 l 153 44 b -7 -92 153 -49 110 -79 z m 21 758 l 421 758 b 446 876 438 803 446 842 b 301 1033 446 975 386 1033 b 178 967 246 1033 208 1008 l 178 1099 l 83 1099 l 83 860 l 21 860 z m 289 932 b 342 876 321 932 342 911 b 340 860 342 871 342 865 l 178 860 b 289 932 210 907 253 932 z "},"ﮍ":{"ha":468,"x_min":0,"x_max":0,"o":"m 18 -265 b 353 0 222 -257 329 -178 l 468 0 b 496 83 488 0 496 21 b 468 179 496 153 488 179 l 358 179 l 358 592 l 153 592 l 153 44 b -7 -92 153 -49 110 -79 z m 421 758 b 446 876 438 803 446 842 b 301 1033 446 975 386 1033 b 178 967 246 1033 208 1008 l 178 1099 l 83 1099 l 83 860 l 21 860 l 21 758 z m 178 860 b 289 932 210 907 253 932 b 342 876 321 932 342 911 b 340 860 342 871 342 865 z "},"ژ":{"ha":439,"x_min":0,"x_max":0,"o":"m 257 949 b 360 1053 319 949 360 996 b 257 1158 360 1111 319 1158 b 156 1053 200 1158 156 1111 b 257 949 156 996 200 949 z m 128 736 b 229 842 188 736 229 782 b 128 944 229 901 188 944 b 24 842 68 944 24 901 b 128 736 24 782 68 736 z m 378 736 b 479 842 436 736 479 782 b 378 944 479 901 436 944 b 274 842 318 944 274 901 b 378 736 274 782 318 736 z m 18 -265 b 358 86 253 -256 358 -153 l 358 592 l 153 592 l 153 44 b -7 -92 153 -49 110 -79 z "},"ﮋ":{"ha":468,"x_min":0,"x_max":0,"o":"m 257 949 b 360 1053 319 949 360 996 b 257 1158 360 1111 319 1158 b 156 1053 200 1158 156 1111 b 257 949 156 996 200 949 z m 128 736 b 229 842 188 736 229 782 b 128 944 229 901 188 944 b 24 842 68 944 24 901 b 128 736 24 782 68 736 z m 274 842 b 378 736 274 782 318 736 b 479 842 436 736 479 782 b 378 944 479 901 436 944 b 274 842 318 944 274 901 z m 468 179 l 358 179 l 358 592 l 153 592 l 153 44 b -7 -92 153 -49 110 -79 l 18 -265 b 353 0 222 -257 329 -178 l 468 0 b 496 83 488 0 496 21 b 468 179 496 153 488 179 z "},"س":{"ha":1638,"x_min":0,"x_max":0,"o":"m 403 -254 b 793 26 608 -254 764 -171 b 924 0 831 7 872 0 b 1121 53 1003 0 1065 13 b 1307 0 1175 15 1242 0 b 1574 240 1463 0 1574 92 l 1574 592 l 1368 592 l 1368 290 b 1276 179 1368 221 1360 179 b 1186 257 1213 179 1186 208 l 1186 490 l 981 490 l 981 290 b 889 179 981 219 972 179 b 799 257 825 179 799 208 l 799 490 l 593 490 l 593 149 b 407 -68 593 -18 522 -68 b 219 122 290 -68 219 3 b 257 294 219 174 231 224 l 78 358 b 14 94 33 257 14 174 b 403 -254 14 -65 129 -254 z "},"ﺲ":{"ha":1697,"x_min":0,"x_max":0,"o":"m 14 94 b 403 -254 14 -65 129 -254 b 793 26 608 -254 764 -171 b 924 0 831 7 872 0 b 1121 53 1003 0 1065 13 b 1307 0 1175 15 1242 0 b 1508 74 1390 0 1461 26 b 1697 0 1543 26 1603 0 b 1725 83 1717 0 1725 21 b 1697 179 1725 153 1717 179 b 1574 307 1624 179 1574 217 l 1574 592 l 1368 592 l 1368 290 b 1276 179 1368 221 1360 179 b 1186 257 1213 179 1186 208 l 1186 490 l 981 490 l 981 290 b 889 179 981 219 972 179 b 799 257 825 179 799 208 l 799 490 l 593 490 l 593 149 b 407 -68 593 -18 522 -68 b 219 122 290 -68 219 3 b 257 294 219 174 231 224 l 78 358 b 14 94 33 257 14 174 z "},"ﺴ":{"ha":1232,"x_min":0,"x_max":0,"o":"m 0 0 l 38 0 b 254 56 151 0 206 15 b 458 0 308 11 379 0 b 656 53 536 0 600 13 b 840 0 710 15 776 0 b 1043 74 924 0 994 26 b 1232 0 1078 26 1138 0 b 1260 83 1251 0 1260 21 b 1232 179 1260 153 1251 179 b 1108 307 1158 179 1108 217 l 1108 592 l 903 592 l 903 290 b 811 179 903 221 893 179 b 721 257 747 179 721 208 l 721 490 l 515 490 l 515 290 b 424 179 515 219 507 179 b 333 257 360 179 333 208 l 333 490 l 128 490 l 128 290 b 36 179 128 219 118 179 l 0 179 z "},"ﺳ":{"ha":1172,"x_min":0,"x_max":0,"o":"m 0 179 l 0 0 l 38 0 b 254 56 151 0 206 15 b 458 0 308 11 379 0 b 656 53 536 0 600 13 b 840 0 710 15 776 0 b 1108 240 996 0 1108 92 l 1108 592 l 903 592 l 903 290 b 811 179 903 221 893 179 b 721 257 747 179 721 208 l 721 490 l 515 490 l 515 290 b 424 179 515 219 507 179 b 333 257 360 179 333 208 l 333 490 l 128 490 l 128 290 b 36 179 128 219 118 179 z "},"ش":{"ha":1638,"x_min":0,"x_max":0,"o":"m 403 -254 b 793 26 608 -254 764 -171 b 924 0 831 7 872 0 b 1121 53 1003 0 1065 13 b 1307 0 1175 15 1242 0 b 1574 240 1463 0 1574 92 l 1574 592 l 1368 592 l 1368 290 b 1276 179 1368 221 1360 179 b 1186 257 1213 179 1186 208 l 1186 490 l 981 490 l 981 290 b 889 179 981 219 972 179 b 799 257 825 179 799 208 l 799 490 l 593 490 l 593 149 b 407 -68 593 -18 522 -68 b 219 122 290 -68 219 3 b 257 294 219 174 231 224 l 78 358 b 14 94 33 257 14 174 b 403 -254 14 -65 129 -254 z m 957 635 b 1058 740 1017 635 1058 681 b 957 843 1058 800 1017 843 b 853 740 897 843 853 800 b 957 635 853 681 897 635 z m 1103 740 b 1207 635 1103 681 1147 635 b 1308 740 1265 635 1308 681 b 1207 843 1308 800 1265 843 b 1103 740 1147 843 1103 800 z m 985 951 b 1086 847 985 894 1029 847 b 1189 951 1149 847 1189 894 b 1086 1057 1189 1010 1149 1057 b 985 951 1029 1057 985 1010 z "},"ﺶ":{"ha":1697,"x_min":0,"x_max":0,"o":"m 14 94 b 403 -254 14 -65 129 -254 b 793 26 608 -254 764 -171 b 924 0 831 7 872 0 b 1121 53 1003 0 1065 13 b 1307 0 1175 15 1242 0 b 1508 74 1390 0 1461 26 b 1697 0 1543 26 1603 0 b 1725 83 1717 0 1725 21 b 1697 179 1725 153 1717 179 b 1574 307 1624 179 1574 217 l 1574 592 l 1368 592 l 1368 290 b 1276 179 1368 221 1360 179 b 1186 257 1213 179 1186 208 l 1186 490 l 981 490 l 981 290 b 889 179 981 219 972 179 b 799 257 825 179 799 208 l 799 490 l 593 490 l 593 149 b 407 -68 593 -18 522 -68 b 219 122 290 -68 219 3 b 257 294 219 174 231 224 l 78 358 b 14 94 33 257 14 174 z m 853 740 b 957 635 853 681 897 635 b 1058 740 1017 635 1058 681 b 957 843 1058 800 1017 843 b 853 740 897 843 853 800 z m 1103 740 b 1207 635 1103 681 1147 635 b 1308 740 1265 635 1308 681 b 1207 843 1308 800 1265 843 b 1103 740 1147 843 1103 800 z m 985 951 b 1086 847 985 894 1029 847 b 1189 951 1149 847 1189 894 b 1086 1057 1189 1010 1149 1057 b 985 951 1029 1057 985 1010 z "},"ﺸ":{"ha":1232,"x_min":0,"x_max":0,"o":"m 38 0 b 254 56 151 0 206 15 b 458 0 308 11 379 0 b 656 53 536 0 600 13 b 840 0 710 15 776 0 b 1043 74 924 0 994 26 b 1232 0 1078 26 1138 0 b 1260 83 1251 0 1260 21 b 1232 179 1260 153 1251 179 b 1108 307 1158 179 1108 217 l 1108 592 l 903 592 l 903 290 b 811 179 903 221 893 179 b 721 257 747 179 721 208 l 721 490 l 515 490 l 515 290 b 424 179 515 219 507 179 b 333 257 360 179 333 208 l 333 490 l 128 490 l 128 290 b 36 179 128 219 118 179 l 0 179 l 0 0 z m 386 740 b 490 635 386 681 431 635 b 592 740 550 635 592 681 b 490 843 592 800 550 843 b 386 740 431 843 386 800 z m 740 635 b 842 740 799 635 842 681 b 740 843 842 800 799 843 b 636 740 681 843 636 800 b 740 635 636 681 681 635 z m 619 847 b 722 951 682 847 722 894 b 619 1057 722 1010 682 1057 b 518 951 563 1057 518 1010 b 619 847 518 894 563 847 z "},"ﺷ":{"ha":1172,"x_min":0,"x_max":0,"o":"m 38 0 b 254 56 151 0 206 15 b 458 0 308 11 379 0 b 656 53 536 0 600 13 b 840 0 710 15 776 0 b 1108 240 996 0 1108 92 l 1108 592 l 903 592 l 903 290 b 811 179 903 221 893 179 b 721 257 747 179 721 208 l 721 490 l 515 490 l 515 290 b 424 179 515 219 507 179 b 333 257 360 179 333 208 l 333 490 l 128 490 l 128 290 b 36 179 128 219 118 179 l 0 179 l 0 0 z m 386 740 b 490 635 386 681 431 635 b 592 740 550 635 592 681 b 490 843 592 800 550 843 b 386 740 431 843 386 800 z m 636 740 b 740 635 636 681 681 635 b 842 740 799 635 842 681 b 740 843 842 800 799 843 b 636 740 681 843 636 800 z m 619 847 b 722 951 682 847 722 894 b 619 1057 722 1010 682 1057 b 518 951 563 1057 518 1010 b 619 847 518 894 563 847 z "},"ص":{"ha":1846,"x_min":0,"x_max":0,"o":"m 1451 607 b 904 179 1328 607 1083 549 b 799 272 838 183 799 224 l 799 490 l 593 490 l 593 149 b 407 -68 593 -18 522 -68 b 219 122 290 -68 219 3 b 257 294 219 174 231 224 l 78 358 b 14 94 33 257 14 174 b 403 -254 14 -65 129 -254 b 796 38 613 -254 771 -167 b 947 0 833 11 881 0 l 1753 0 b 1789 243 1778 89 1789 171 b 1451 607 1789 472 1668 607 z m 1583 179 l 1135 179 b 1424 421 1208 326 1318 421 b 1586 225 1531 421 1586 344 b 1583 179 1586 211 1585 196 z "},"ﺺ":{"ha":1865,"x_min":0,"x_max":0,"o":"m 14 94 b 403 -254 14 -65 129 -254 b 796 38 613 -254 771 -167 b 947 0 833 11 881 0 l 1865 0 b 1893 83 1885 0 1893 21 b 1865 179 1893 153 1885 179 l 1786 179 b 1789 243 1788 201 1789 222 b 1451 607 1789 472 1668 607 b 904 179 1328 607 1083 549 b 799 272 838 183 799 224 l 799 490 l 593 490 l 593 149 b 407 -68 593 -18 522 -68 b 219 122 290 -68 219 3 b 257 294 219 174 231 224 l 78 358 b 14 94 33 257 14 174 z m 1424 421 b 1586 225 1531 421 1586 344 b 1583 179 1586 211 1585 196 l 1135 179 b 1424 421 1208 326 1318 421 z "},"ﺼ":{"ha":1332,"x_min":0,"x_max":0,"o":"m 0 0 b 226 42 124 0 186 14 b 414 0 276 14 342 0 l 1332 0 b 1360 83 1351 0 1360 21 b 1332 179 1360 153 1351 179 l 1253 179 b 1256 243 1254 201 1256 222 b 919 607 1256 472 1135 607 b 372 179 794 607 550 549 b 299 258 307 181 299 207 l 299 490 l 93 490 l 93 303 b 0 179 93 192 82 179 z m 603 179 b 890 421 676 326 786 421 b 1054 225 999 421 1054 344 b 1051 179 1054 211 1053 196 z "},"ﺻ":{"ha":1313,"x_min":0,"x_max":0,"o":"m 919 607 b 372 179 794 607 550 549 b 299 258 307 181 299 207 l 299 490 l 93 490 l 93 303 b 0 179 93 192 82 179 l 0 0 b 226 42 124 0 186 14 b 414 0 276 14 342 0 l 1219 0 b 1256 243 1244 89 1256 171 b 919 607 1256 472 1135 607 z m 1051 179 l 603 179 b 890 421 676 326 786 421 b 1054 225 999 421 1054 344 b 1051 179 1054 211 1053 196 z "},"ض":{"ha":1846,"x_min":0,"x_max":0,"o":"m 1333 768 b 1433 872 1396 768 1433 814 b 1333 975 1433 932 1396 975 b 1231 872 1271 975 1231 932 b 1333 768 1231 814 1271 768 z m 1451 607 b 904 179 1328 607 1083 549 b 799 272 838 183 799 224 l 799 490 l 593 490 l 593 149 b 407 -68 593 -18 522 -68 b 219 122 290 -68 219 3 b 257 294 219 174 231 224 l 78 358 b 14 94 33 257 14 174 b 403 -254 14 -65 129 -254 b 796 38 613 -254 771 -167 b 947 0 833 11 881 0 l 1753 0 b 1789 243 1778 89 1789 171 b 1451 607 1789 472 1668 607 z m 1583 179 l 1135 179 b 1424 421 1208 326 1318 421 b 1586 225 1531 421 1586 344 b 1583 179 1586 211 1585 196 z "},"ﺾ":{"ha":1865,"x_min":0,"x_max":0,"o":"m 14 94 b 403 -254 14 -65 129 -254 b 796 38 613 -254 771 -167 b 947 0 833 11 881 0 l 1865 0 b 1893 83 1885 0 1893 21 b 1865 179 1893 153 1885 179 l 1786 179 b 1789 243 1788 201 1789 222 b 1451 607 1789 472 1668 607 b 904 179 1328 607 1083 549 b 799 272 838 183 799 224 l 799 490 l 593 490 l 593 149 b 407 -68 593 -18 522 -68 b 219 122 290 -68 219 3 b 257 294 219 174 231 224 l 78 358 b 14 94 33 257 14 174 z m 1424 421 b 1586 225 1531 421 1586 344 b 1583 179 1586 211 1585 196 l 1135 179 b 1424 421 1208 326 1318 421 z m 1231 872 b 1333 768 1231 814 1271 768 b 1433 872 1396 768 1433 814 b 1333 975 1433 932 1396 975 b 1231 872 1271 975 1231 932 z "},"ﻀ":{"ha":1332,"x_min":0,"x_max":0,"o":"m 0 0 b 226 42 124 0 186 14 b 414 0 276 14 342 0 l 1332 0 b 1360 83 1351 0 1360 21 b 1332 179 1360 153 1351 179 l 1253 179 b 1256 243 1254 201 1256 222 b 919 607 1256 472 1135 607 b 372 179 794 607 550 549 b 299 258 307 181 299 207 l 299 490 l 93 490 l 93 303 b 0 179 93 192 82 179 z m 603 179 b 890 421 676 326 786 421 b 1054 225 999 421 1054 344 b 1051 179 1054 211 1053 196 z m 779 768 b 879 872 842 768 879 814 b 779 975 879 932 842 975 b 676 872 717 975 676 932 b 779 768 676 814 717 768 z "},"ﺿ":{"ha":1313,"x_min":0,"x_max":0,"o":"m 779 768 b 879 872 842 768 879 814 b 779 975 879 932 842 975 b 676 872 717 975 676 932 b 779 768 676 814 717 768 z m 919 607 b 372 179 794 607 550 549 b 299 258 307 181 299 207 l 299 490 l 93 490 l 93 303 b 0 179 93 192 82 179 l 0 0 b 226 42 124 0 186 14 b 414 0 276 14 342 0 l 1219 0 b 1256 243 1244 89 1256 171 b 919 607 1256 472 1135 607 z m 1051 179 l 603 179 b 890 421 676 326 786 421 b 1054 225 999 421 1054 344 b 1051 179 1054 211 1053 196 z "},"ط":{"ha":1147,"x_min":0,"x_max":0,"o":"m 28 0 l 1054 0 b 1090 244 1079 90 1090 172 b 747 607 1090 472 971 607 b 351 397 626 607 469 550 l 351 1050 l 146 1050 l 146 179 l 28 179 z m 351 179 b 719 421 464 325 604 421 b 889 225 833 421 889 344 b 886 179 889 211 888 196 z "},"ﻂ":{"ha":1167,"x_min":0,"x_max":0,"o":"m 28 179 l 28 0 l 1167 0 b 1194 83 1186 0 1194 21 b 1167 179 1194 153 1186 179 l 1088 179 b 1090 244 1089 201 1090 224 b 747 607 1090 472 971 607 b 351 397 626 607 469 550 l 351 1050 l 146 1050 l 146 179 z m 351 179 b 719 421 464 325 604 421 b 889 225 833 421 889 344 b 886 179 889 211 888 196 z "},"ﻄ":{"ha":1126,"x_min":0,"x_max":0,"o":"m 0 179 l 0 0 l 1126 0 b 1154 83 1146 0 1154 21 b 1126 179 1154 153 1146 179 l 1047 179 b 1050 244 1049 201 1050 224 b 706 607 1050 472 929 607 b 311 399 586 607 431 550 l 311 1050 l 106 1050 l 106 179 z m 313 179 b 679 421 421 321 554 421 b 849 225 792 421 849 344 b 844 179 849 211 846 196 z "},"ﻃ":{"ha":1107,"x_min":0,"x_max":0,"o":"m 0 0 l 1014 0 b 1050 244 1039 90 1050 172 b 706 607 1050 472 929 607 b 311 399 586 607 431 550 l 311 1050 l 106 1050 l 106 179 l 0 179 z m 313 179 b 679 421 421 321 554 421 b 849 225 792 421 849 344 b 844 179 849 211 846 196 z "},"ظ":{"ha":1147,"x_min":0,"x_max":0,"o":"m 28 0 l 1054 0 b 1090 244 1079 90 1090 172 b 747 607 1090 472 971 607 b 351 397 626 607 469 550 l 351 1050 l 146 1050 l 146 179 l 28 179 z m 351 179 b 719 421 464 325 604 421 b 889 225 833 421 889 344 b 886 179 889 211 888 196 z m 701 768 b 801 872 764 768 801 814 b 701 975 801 932 764 975 b 599 872 639 975 599 932 b 701 768 599 814 639 768 z "},"ﻆ":{"ha":1167,"x_min":0,"x_max":0,"o":"m 28 179 l 28 0 l 1167 0 b 1194 83 1186 0 1194 21 b 1167 179 1194 153 1186 179 l 1088 179 b 1090 244 1089 201 1090 224 b 747 607 1090 472 971 607 b 351 397 626 607 469 550 l 351 1050 l 146 1050 l 146 179 z m 719 421 b 889 225 833 421 889 344 b 886 179 889 211 888 196 l 351 179 b 719 421 464 325 604 421 z m 599 872 b 701 768 599 814 639 768 b 801 872 764 768 801 814 b 701 975 801 932 764 975 b 599 872 639 975 599 932 z "},"ﻈ":{"ha":1126,"x_min":0,"x_max":0,"o":"m 0 179 l 0 0 l 1126 0 b 1154 83 1146 0 1154 21 b 1126 179 1154 153 1146 179 l 1047 179 b 1050 244 1049 201 1050 224 b 706 607 1050 472 929 607 b 311 399 586 607 431 550 l 311 1050 l 106 1050 l 106 179 z m 313 179 b 679 421 421 321 554 421 b 849 225 792 421 849 344 b 844 179 849 211 846 196 z m 642 768 b 742 872 704 768 742 814 b 642 975 742 932 704 975 b 539 872 579 975 539 932 b 642 768 539 814 579 768 z "},"ﻇ":{"ha":1107,"x_min":0,"x_max":0,"o":"m 0 0 l 1014 0 b 1050 244 1039 90 1050 172 b 706 607 1050 472 929 607 b 311 399 586 607 431 550 l 311 1050 l 106 1050 l 106 179 l 0 179 z m 313 179 b 679 421 421 321 554 421 b 849 225 792 421 849 344 b 844 179 849 211 846 196 z m 539 872 b 642 768 539 814 579 768 b 742 872 704 768 742 814 b 642 975 742 932 704 975 b 539 872 579 975 539 932 z "},"ع":{"ha":740,"x_min":0,"x_max":0,"o":"m 363 0 l 706 0 l 706 179 l 397 179 b 357 299 376 210 357 250 b 514 421 357 376 407 421 b 633 407 553 421 597 414 l 671 585 b 492 607 610 600 554 607 b 151 321 272 607 151 489 b 194 156 151 261 168 201 b 29 -97 90 115 29 26 b 354 -361 29 -275 160 -361 b 504 -339 419 -361 463 -353 l 468 -168 b 364 -175 443 -172 415 -175 b 240 -90 290 -175 240 -149 b 363 0 240 -31 285 0 z "},"ﻊ":{"ha":801,"x_min":0,"x_max":0,"o":"m 801 179 l 632 179 b 719 401 682 244 719 322 b 433 607 719 532 608 607 b 101 532 322 607 200 578 b 61 347 82 486 69 419 b 240 136 117 304 186 221 b 29 -122 92 74 29 -14 b 354 -361 29 -279 160 -361 b 504 -339 421 -361 463 -354 l 468 -168 b 364 -175 443 -172 415 -175 b 240 -104 289 -175 240 -154 b 392 28 240 -67 265 -10 b 679 0 471 11 563 0 l 801 0 b 829 83 821 0 829 21 b 801 179 829 153 821 179 z m 263 406 b 388 421 296 415 350 421 b 513 347 479 421 513 386 b 414 208 513 310 478 253 b 261 400 368 296 319 346 z "},"ﻌ":{"ha":811,"x_min":0,"x_max":0,"o":"m 811 179 l 642 179 b 728 400 690 244 728 321 b 443 607 728 532 617 607 b 110 532 332 607 208 578 b 71 346 90 486 79 419 b 221 179 117 311 172 249 l 0 179 l 0 0 l 44 0 b 406 28 194 0 296 6 b 690 0 485 10 576 0 l 811 0 b 839 83 831 0 839 21 b 811 179 839 153 831 179 z m 271 406 b 397 421 306 415 360 421 b 522 347 489 421 522 386 b 424 207 522 304 485 240 b 269 400 381 292 331 344 z "},"ﻋ":{"ha":654,"x_min":0,"x_max":0,"o":"m 0 179 l 0 0 l 619 0 l 619 179 l 304 179 b 271 299 286 210 271 250 b 426 421 271 376 322 421 b 546 407 465 421 510 414 l 585 585 b 406 607 524 600 468 607 b 65 321 186 607 65 489 b 92 179 65 276 74 222 z "},"غ":{"ha":740,"x_min":0,"x_max":0,"o":"m 492 768 b 592 872 554 768 592 814 b 492 975 592 932 554 975 b 389 872 429 975 389 932 b 492 768 389 814 429 768 z m 363 0 l 706 0 l 706 179 l 397 179 b 357 299 376 210 357 250 b 514 421 357 376 407 421 b 633 407 553 421 597 414 l 671 585 b 492 607 610 600 554 607 b 151 321 272 607 151 489 b 194 156 151 261 168 201 b 29 -97 90 115 29 26 b 354 -361 29 -275 160 -361 b 504 -339 419 -361 463 -353 l 468 -168 b 364 -175 443 -172 415 -175 b 240 -90 290 -175 240 -149 b 363 0 240 -31 285 0 z "},"ﻎ":{"ha":801,"x_min":0,"x_max":0,"o":"m 419 768 b 519 872 482 768 519 814 b 419 975 519 932 482 975 b 317 872 357 975 317 932 b 419 768 317 814 357 768 z m 801 179 l 632 179 b 719 401 682 244 719 322 b 433 607 719 532 608 607 b 101 532 322 607 200 578 b 61 347 82 486 69 419 b 240 136 117 304 186 221 b 29 -122 92 74 29 -14 b 354 -361 29 -279 160 -361 b 504 -339 421 -361 463 -354 l 468 -168 b 364 -175 443 -172 415 -175 b 240 -104 289 -175 240 -154 b 392 28 240 -67 265 -10 b 679 0 471 11 563 0 l 801 0 b 829 83 821 0 829 21 b 801 179 829 153 821 179 z m 263 406 b 388 421 296 415 350 421 b 513 347 479 421 513 386 b 414 208 513 310 478 253 b 261 400 368 296 319 346 z "},"ﻐ":{"ha":811,"x_min":0,"x_max":0,"o":"m 429 768 b 529 872 492 768 529 814 b 429 975 529 932 492 975 b 326 872 367 975 326 932 b 429 768 326 814 367 768 z m 811 179 l 642 179 b 728 400 690 244 728 321 b 443 607 728 532 617 607 b 110 532 332 607 208 578 b 71 346 90 486 79 419 b 221 179 117 311 172 249 l 0 179 l 0 0 l 44 0 b 406 28 194 0 296 6 b 690 0 485 10 576 0 l 811 0 b 839 83 831 0 839 21 b 811 179 839 153 831 179 z m 271 406 b 397 421 306 415 360 421 b 522 347 489 421 522 386 b 424 207 522 304 485 240 b 269 400 381 292 331 344 z "},"ﻏ":{"ha":654,"x_min":0,"x_max":0,"o":"m 0 0 l 619 0 l 619 179 l 304 179 b 271 299 286 210 271 250 b 426 421 271 376 322 421 b 546 407 465 421 510 414 l 585 585 b 406 607 524 600 468 607 b 65 321 186 607 65 489 b 92 179 65 276 74 222 l 0 179 z m 303 872 b 406 768 303 814 343 768 b 506 872 468 768 506 814 b 406 975 506 932 468 975 b 303 872 343 975 303 932 z "},"ف":{"ha":1522,"x_min":0,"x_max":0,"o":"m 401 0 l 1403 0 b 1458 296 1439 97 1458 208 b 1132 607 1458 411 1389 607 b 786 286 913 607 786 467 b 804 179 786 243 794 207 l 435 179 b 240 335 318 179 240 238 b 263 471 240 367 246 399 l 86 517 b 42 292 65 461 42 378 b 401 0 42 124 175 0 z m 992 290 b 1128 421 992 367 1038 421 b 1251 274 1219 421 1251 350 b 1242 179 1251 246 1247 207 l 1014 179 b 992 290 999 218 992 253 z m 1029 872 b 1132 768 1029 814 1069 768 b 1232 872 1194 768 1232 814 b 1132 975 1232 932 1194 975 b 1029 872 1069 975 1029 932 z "},"ﻒ":{"ha":1536,"x_min":0,"x_max":0,"o":"m 401 0 l 885 0 b 1124 18 971 0 1063 10 b 1381 0 1181 10 1272 0 l 1536 0 b 1564 83 1556 0 1564 21 b 1536 179 1564 153 1556 179 l 1421 179 b 1467 328 1451 226 1467 276 b 1136 607 1467 469 1351 607 b 799 319 913 607 799 463 b 838 179 799 265 815 215 l 435 179 b 240 335 318 179 240 238 b 263 471 240 367 246 399 l 86 517 b 42 292 65 461 42 378 b 401 0 42 124 175 0 z m 1133 421 b 1260 313 1213 421 1260 372 b 1131 181 1260 236 1174 183 b 1004 314 1088 188 1004 242 b 1133 421 1004 376 1057 421 z m 1033 872 b 1136 768 1033 814 1074 768 b 1236 872 1199 768 1236 814 b 1136 975 1236 932 1199 975 b 1033 872 1074 975 1033 932 z "},"ﻔ":{"ha":826,"x_min":0,"x_max":0,"o":"m 0 179 l 0 0 l 175 0 b 414 18 261 0 353 10 b 671 0 471 10 563 0 l 826 0 b 854 83 846 0 854 21 b 826 179 854 153 846 179 l 711 179 b 757 328 742 226 757 276 b 426 607 757 469 642 607 b 89 319 203 607 89 463 b 128 179 89 265 106 215 z m 294 314 b 424 421 294 376 347 421 b 550 313 503 421 550 372 b 421 181 550 236 464 183 b 294 314 378 188 294 242 z m 324 872 b 426 768 324 814 364 768 b 526 872 489 768 526 814 b 426 975 526 932 489 975 b 324 872 364 975 324 932 z "},"ﻓ":{"ha":818,"x_min":0,"x_max":0,"o":"m 0 0 l 706 0 b 761 296 742 97 761 208 b 435 607 761 411 692 607 b 89 286 215 607 89 467 b 107 179 89 243 97 207 l 0 179 z m 431 421 b 554 274 522 421 554 350 b 544 179 554 246 550 207 l 317 179 b 294 290 301 218 294 253 b 431 421 294 367 340 421 z m 332 872 b 435 768 332 814 372 768 b 535 872 497 768 535 814 b 435 975 535 932 497 975 b 332 872 372 975 332 932 z "},"ڤ":{"ha":1522,"x_min":0,"x_max":0,"o":"m 401 0 l 1403 0 b 1458 296 1439 97 1458 208 b 1132 607 1458 411 1389 607 b 786 286 913 607 786 467 b 804 179 786 243 794 207 l 435 179 b 240 335 318 179 240 238 b 263 471 240 367 246 399 l 86 517 b 42 292 65 461 42 378 b 401 0 42 124 175 0 z m 1128 421 b 1251 274 1219 421 1251 350 b 1242 179 1251 246 1247 207 l 1014 179 b 992 290 999 218 992 253 b 1128 421 992 367 1038 421 z m 1006 751 b 1107 857 1065 751 1107 797 b 1006 960 1107 917 1065 960 b 901 857 946 960 901 917 b 1006 751 901 797 946 751 z m 1256 751 b 1357 857 1314 751 1357 797 b 1256 960 1357 917 1314 960 b 1151 857 1196 960 1151 917 b 1256 751 1151 797 1196 751 z m 1033 1068 b 1135 964 1033 1011 1078 964 b 1238 1068 1197 964 1238 1011 b 1135 1174 1238 1126 1197 1174 b 1033 1068 1078 1174 1033 1126 z "},"ﭫ":{"ha":1536,"x_min":0,"x_max":0,"o":"m 401 0 l 885 0 b 1124 18 971 0 1063 10 b 1381 0 1181 10 1272 0 l 1536 0 b 1564 83 1556 0 1564 21 b 1536 179 1564 153 1556 179 l 1421 179 b 1467 328 1451 226 1467 276 b 1136 607 1467 469 1351 607 b 799 319 913 607 799 463 b 838 179 799 265 815 215 l 435 179 b 240 335 318 179 240 238 b 263 471 240 367 246 399 l 86 517 b 42 292 65 461 42 378 b 401 0 42 124 175 0 z m 1133 421 b 1260 313 1213 421 1260 372 b 1131 181 1260 236 1174 183 b 1004 314 1088 188 1004 242 b 1133 421 1004 376 1057 421 z m 1010 751 b 1111 857 1069 751 1111 797 b 1010 960 1111 917 1069 960 b 906 857 950 960 906 917 b 1010 751 906 797 950 751 z m 1156 857 b 1260 751 1156 797 1200 751 b 1361 857 1318 751 1361 797 b 1260 960 1361 917 1318 960 b 1156 857 1200 960 1156 917 z m 1139 964 b 1242 1068 1201 964 1242 1011 b 1139 1174 1242 1126 1201 1174 b 1038 1068 1082 1174 1038 1126 b 1139 964 1038 1011 1082 964 z "},"ﭭ":{"ha":826,"x_min":0,"x_max":0,"o":"m 175 0 b 414 18 261 0 353 10 b 671 0 471 10 563 0 l 826 0 b 854 83 846 0 854 21 b 826 179 854 153 846 179 l 711 179 b 757 328 742 226 757 276 b 426 607 757 469 642 607 b 89 319 203 607 89 463 b 128 179 89 265 106 215 l 0 179 l 0 0 z m 294 314 b 424 421 294 376 347 421 b 550 313 503 421 550 372 b 421 181 550 236 464 183 b 294 314 378 188 294 242 z m 300 751 b 401 857 360 751 401 797 b 300 960 401 917 360 960 b 196 857 240 960 196 917 b 300 751 196 797 240 751 z m 446 857 b 550 751 446 797 490 751 b 651 857 608 751 651 797 b 550 960 651 917 608 960 b 446 857 490 960 446 917 z m 429 964 b 532 1068 492 964 532 1011 b 429 1174 532 1126 492 1174 b 328 1068 372 1174 328 1126 b 429 964 328 1011 372 964 z "},"ﭬ":{"ha":818,"x_min":0,"x_max":0,"o":"m 0 0 l 706 0 b 761 296 742 97 761 208 b 435 607 761 411 692 607 b 89 286 215 607 89 467 b 107 179 89 243 97 207 l 0 179 z m 431 421 b 554 274 522 421 554 350 b 544 179 554 246 550 207 l 317 179 b 294 290 301 218 294 253 b 431 421 294 367 340 421 z m 308 751 b 410 857 368 751 410 797 b 308 960 410 917 368 960 b 204 857 249 960 204 917 b 308 751 204 797 249 751 z m 454 857 b 558 751 454 797 499 751 b 660 857 617 751 660 797 b 558 960 660 917 617 960 b 454 857 499 960 454 917 z m 438 964 b 540 1068 500 964 540 1011 b 438 1174 540 1126 500 1174 b 336 1068 381 1174 336 1126 b 438 964 336 1011 381 964 z "},"ڡ":{"ha":1522,"x_min":0,"x_max":0,"o":"m 42 292 b 401 0 42 124 175 0 l 1403 0 b 1458 296 1439 97 1458 208 b 1132 607 1458 411 1389 607 b 786 286 913 607 786 467 b 804 179 786 243 794 207 l 435 179 b 240 335 318 179 240 238 b 263 471 240 367 246 399 l 86 517 b 42 292 65 461 42 378 z m 992 290 b 1128 421 992 367 1038 421 b 1251 274 1219 421 1251 350 b 1242 179 1251 246 1247 207 l 1014 179 b 992 290 999 218 992 253 z "},"ٯ":{"ha":1119,"x_min":0,"x_max":0,"o":"m 542 -254 b 1056 133 918 -254 1056 -106 l 1056 297 b 746 607 1056 451 964 607 b 413 303 539 607 413 463 b 724 26 413 128 533 26 b 849 39 771 26 811 31 b 551 -68 838 -18 751 -68 b 219 128 268 -68 219 25 b 233 240 219 160 224 199 l 51 290 b 14 94 26 219 14 149 b 542 -254 14 -115 164 -254 z m 757 214 b 618 314 660 214 618 249 b 733 421 618 379 667 421 b 850 256 831 421 850 329 l 850 221 b 757 214 828 217 801 214 z "},"ق":{"ha":1119,"x_min":0,"x_max":0,"o":"m 619 768 b 721 872 679 768 721 814 b 619 975 721 932 679 975 b 515 872 560 975 515 932 b 619 768 515 814 560 768 z m 869 768 b 971 872 928 768 971 814 b 869 975 971 932 928 975 b 765 872 810 975 765 932 b 869 768 765 814 810 768 z m 542 -254 b 1056 133 918 -254 1056 -106 l 1056 297 b 746 607 1056 451 964 607 b 413 303 539 607 413 463 b 724 26 413 128 533 26 b 849 39 771 26 811 31 b 551 -68 838 -18 751 -68 b 219 128 268 -68 219 25 b 233 240 219 160 224 199 l 51 290 b 14 94 26 219 14 149 b 542 -254 14 -115 164 -254 z m 757 214 b 618 314 660 214 618 249 b 733 421 618 379 667 421 b 850 256 831 421 850 329 l 850 221 b 757 214 828 217 801 214 z "},"ﻖ":{"ha":1150,"x_min":0,"x_max":0,"o":"m 14 94 b 549 -254 14 -115 164 -254 b 1038 0 843 -254 990 -160 l 1150 0 b 1178 83 1169 0 1178 21 b 1150 179 1178 153 1169 179 l 1056 179 l 1056 311 b 753 607 1056 465 967 607 b 426 288 560 607 426 463 b 776 0 426 118 533 0 l 844 0 b 551 -68 814 -44 738 -68 b 225 128 268 -68 225 25 b 239 240 225 160 229 199 l 51 290 b 14 94 26 219 14 149 z m 743 421 b 850 283 818 421 850 369 l 850 179 l 765 179 b 638 299 679 179 638 225 b 743 421 638 368 679 421 z m 626 768 b 728 872 686 768 728 814 b 626 975 728 932 686 975 b 522 872 567 975 522 932 b 626 768 522 814 567 768 z m 876 768 b 978 872 935 768 978 814 b 876 975 978 932 935 975 b 772 872 817 975 772 932 b 876 768 772 814 817 768 z "},"ﻘ":{"ha":826,"x_min":0,"x_max":0,"o":"m 0 0 l 175 0 b 414 18 261 0 353 10 b 671 0 471 10 563 0 l 826 0 b 854 83 846 0 854 21 b 826 179 854 153 846 179 l 711 179 b 757 328 742 226 757 276 b 426 607 757 469 642 607 b 89 319 203 607 89 463 b 128 179 89 265 106 215 l 0 179 z m 294 314 b 424 421 294 376 347 421 b 550 313 503 421 550 372 b 421 181 550 236 464 183 b 294 314 378 188 294 242 z m 300 768 b 401 872 360 768 401 814 b 300 975 401 932 360 975 b 196 872 240 975 196 932 b 300 768 196 814 240 768 z m 446 872 b 550 768 446 814 490 768 b 651 872 608 768 651 814 b 550 975 651 932 608 975 b 446 872 490 975 446 932 z "},"ﻗ":{"ha":818,"x_min":0,"x_max":0,"o":"m 0 0 l 706 0 b 761 296 742 97 761 208 b 435 607 761 411 692 607 b 89 286 215 607 89 467 b 107 179 89 243 97 207 l 0 179 z m 431 421 b 554 274 522 421 554 350 b 544 179 554 246 550 207 l 317 179 b 294 290 301 218 294 253 b 431 421 294 367 340 421 z m 204 872 b 308 768 204 814 249 768 b 410 872 368 768 410 814 b 308 975 410 932 368 975 b 204 872 249 975 204 932 z m 454 872 b 558 768 454 814 499 768 b 660 872 617 768 660 814 b 558 975 660 932 617 975 b 454 872 499 975 454 932 z "},"ك":{"ha":1207,"x_min":0,"x_max":0,"o":"m 28 292 b 388 0 28 124 161 0 l 800 0 b 1126 301 1021 0 1126 65 l 1126 1050 l 921 1050 l 921 326 b 800 179 921 218 897 179 l 421 179 b 226 335 304 179 226 238 b 249 471 226 367 232 399 l 72 517 b 28 292 51 461 28 378 z m 725 444 l 725 547 l 617 547 b 601 589 607 558 601 575 b 651 628 601 615 621 628 b 696 622 665 628 682 625 l 710 724 b 636 735 690 729 665 735 b 478 604 532 735 478 671 b 492 547 478 585 482 565 l 439 547 l 439 444 z "},"ﻚ":{"ha":1249,"x_min":0,"x_max":0,"o":"m 28 292 b 388 0 28 124 161 0 l 800 0 b 1060 75 919 0 1006 19 b 1249 0 1094 26 1154 0 b 1276 83 1268 0 1276 21 b 1249 179 1276 153 1268 179 b 1126 283 1182 179 1135 210 l 1126 1050 l 921 1050 l 921 326 b 800 179 921 218 897 179 l 421 179 b 226 335 304 179 226 238 b 249 471 226 367 232 399 l 72 517 b 28 292 51 461 28 378 z m 439 444 l 725 444 l 725 547 l 617 547 b 601 589 607 558 601 575 b 651 628 601 615 621 628 b 696 622 665 628 682 625 l 710 724 b 636 735 690 729 665 735 b 478 604 532 735 478 671 b 492 547 478 585 482 565 l 439 547 z "},"ﻜ":{"ha":700,"x_min":0,"x_max":0,"o":"m 0 0 l 700 0 b 728 83 719 0 728 21 b 700 179 728 153 719 179 l 607 179 b 240 607 600 363 546 519 l 560 915 l 426 1051 l 33 672 l 33 479 b 403 179 338 422 400 328 l 0 179 z "},"ﻛ":{"ha":664,"x_min":0,"x_max":0,"o":"m 240 607 l 560 915 l 426 1051 l 33 672 l 33 479 b 403 179 338 422 400 328 l 0 179 l 0 0 l 608 0 l 608 129 b 240 607 608 335 574 511 z "},"ک":{"ha":1208,"x_min":0,"x_max":0,"o":"m 785 607 l 1104 915 l 971 1051 l 578 672 l 578 479 b 947 179 882 422 944 328 l 421 179 b 226 335 304 179 226 238 b 249 471 226 367 232 399 l 72 517 b 28 292 51 461 28 378 b 388 0 28 124 161 0 l 1153 0 l 1153 129 b 785 607 1153 335 1118 511 z "},"ﮏ":{"ha":1236,"x_min":0,"x_max":0,"o":"m 388 0 l 1236 0 b 1264 83 1256 0 1264 21 b 1236 179 1264 153 1256 179 l 1151 179 b 785 607 1144 363 1090 519 l 1104 915 l 971 1051 l 578 672 l 578 479 b 947 179 882 422 944 328 l 421 179 b 226 335 304 179 226 238 b 249 471 226 367 232 399 l 72 517 b 28 292 51 461 28 378 b 388 0 28 124 161 0 z "},"ﮑ":{"ha":700,"x_min":0,"x_max":0,"o":"m 0 0 l 700 0 b 728 83 719 0 728 21 b 700 179 728 153 719 179 l 607 179 b 240 607 600 363 546 519 l 560 915 l 426 1051 l 33 672 l 33 479 b 403 179 338 422 400 328 l 0 179 z "},"ﮐ":{"ha":664,"x_min":0,"x_max":0,"o":"m 240 607 l 560 915 l 426 1051 l 33 672 l 33 479 b 403 179 338 422 400 328 l 0 179 l 0 0 l 608 0 l 608 129 b 240 607 608 335 574 511 z "},"گ":{"ha":1208,"x_min":0,"x_max":0,"o":"m 917 1107 l 822 1203 l 458 856 l 554 760 z m 785 607 l 1104 915 l 971 1051 l 578 672 l 578 479 b 947 179 882 422 944 328 l 421 179 b 226 335 304 179 226 238 b 249 471 226 367 232 399 l 72 517 b 28 292 51 461 28 378 b 388 0 28 124 161 0 l 1153 0 l 1153 129 b 785 607 1153 335 1118 511 z "},"ﮓ":{"ha":1236,"x_min":0,"x_max":0,"o":"m 388 0 l 1236 0 b 1264 83 1256 0 1264 21 b 1236 179 1264 153 1256 179 l 1151 179 b 785 607 1144 363 1090 519 l 1104 915 l 971 1051 l 578 672 l 578 479 b 947 179 882 422 944 328 l 421 179 b 226 335 304 179 226 238 b 249 471 226 367 232 399 l 72 517 b 28 292 51 461 28 378 b 388 0 28 124 161 0 z m 554 760 l 917 1107 l 822 1203 l 458 856 z "},"ﮕ":{"ha":700,"x_min":0,"x_max":0,"o":"m 0 179 l 0 0 l 700 0 b 728 83 719 0 728 21 b 700 179 728 153 719 179 l 607 179 b 240 607 600 363 546 519 l 560 915 l 426 1051 l 33 672 l 33 479 b 403 179 338 422 400 328 z m -86 856 l 10 760 l 372 1107 l 278 1203 z "},"ﮔ":{"ha":664,"x_min":0,"x_max":0,"o":"m 372 1107 l 278 1203 l -86 856 l 10 760 z m 240 607 l 560 915 l 426 1051 l 33 672 l 33 479 b 403 179 338 422 400 328 l 0 179 l 0 0 l 608 0 l 608 129 b 240 607 608 335 574 511 z "},"ل":{"ha":879,"x_min":0,"x_max":0,"o":"m 403 -254 b 799 97 632 -254 799 -150 l 799 1050 l 593 1050 l 593 149 b 407 -68 593 -17 524 -68 b 219 122 290 -68 219 3 b 257 294 219 174 231 224 l 79 358 b 14 94 33 257 14 174 b 403 -254 14 -67 129 -254 z "},"ﻞ":{"ha":938,"x_min":0,"x_max":0,"o":"m 403 -254 b 799 97 632 -254 799 -150 l 799 1050 l 593 1050 l 593 149 b 407 -68 593 -17 524 -68 b 219 122 290 -68 219 3 b 257 294 219 174 231 224 l 79 358 b 14 94 33 257 14 174 b 403 -254 14 -67 129 -254 z m 938 0 b 965 83 957 0 965 21 b 938 179 965 153 957 179 l 811 179 l 811 0 z "},"ﻠ":{"ha":449,"x_min":0,"x_max":0,"o":"m 449 179 b 326 283 382 179 335 210 l 326 1050 l 121 1050 l 121 326 b 0 179 121 218 97 179 l 0 0 b 260 75 119 0 206 19 b 449 0 294 26 354 0 b 476 83 468 0 476 21 b 449 179 476 153 468 179 z "},"ﻟ":{"ha":407,"x_min":0,"x_max":0,"o":"m 0 0 b 326 301 221 0 326 65 l 326 1050 l 121 1050 l 121 326 b 0 179 121 218 97 179 z "},"م":{"ha":943,"x_min":0,"x_max":0,"o":"m 569 607 b 225 314 368 607 225 488 b 257 176 225 274 232 222 b 29 -67 113 163 29 76 l 29 -361 l 229 -361 l 229 -103 b 338 0 229 -22 268 0 l 524 0 b 888 314 824 0 888 181 b 569 607 888 457 783 607 z m 551 179 l 461 179 b 431 286 446 206 431 243 b 560 421 431 386 504 421 b 682 304 632 421 682 374 b 551 179 682 244 663 179 z "},"ﻢ":{"ha":1040,"x_min":0,"x_max":0,"o":"m 229 -361 l 229 -103 b 338 0 229 -22 268 0 l 371 0 b 474 -99 396 -35 431 -68 l 614 -99 b 890 0 735 -99 829 -64 l 1040 0 b 1068 83 1060 0 1068 21 b 1040 179 1068 153 1060 179 l 965 179 b 967 211 967 189 967 200 b 651 535 967 404 846 535 b 306 203 442 535 306 393 l 306 179 l 303 179 b 29 -67 131 179 29 92 l 29 -361 z m 513 179 b 511 199 511 186 511 193 b 640 347 511 282 563 347 b 761 215 719 347 761 281 b 617 81 761 128 704 81 l 549 81 b 513 179 529 104 517 146 z "},"ﻤ":{"ha":800,"x_min":0,"x_max":0,"o":"m 0 179 l 0 0 l 131 0 b 233 -99 157 -35 190 -68 l 375 -99 b 650 0 496 -99 590 -64 l 800 0 b 828 83 819 0 828 21 b 800 179 828 153 819 179 l 725 179 b 726 211 726 189 726 200 b 411 535 726 404 606 535 b 65 203 201 535 65 393 l 65 179 z m 272 179 b 271 199 271 186 271 193 b 400 347 271 282 317 347 b 521 215 479 347 521 281 b 376 81 521 128 464 81 l 301 81 b 272 179 288 104 275 146 z "},"ﻣ":{"ha":781,"x_min":0,"x_max":0,"o":"m 361 0 b 725 314 663 0 725 181 b 407 607 725 457 621 607 b 64 314 207 607 64 488 b 93 179 64 263 74 217 l 0 179 l 0 0 z m 269 286 b 399 421 269 376 325 421 b 519 304 471 421 519 374 b 385 179 519 244 496 179 l 300 179 b 269 286 282 210 269 250 z "},"ن":{"ha":893,"x_min":0,"x_max":0,"o":"m 432 568 b 532 672 494 568 532 614 b 432 775 532 732 494 775 b 329 672 369 775 329 732 b 432 568 329 614 369 568 z m 417 -254 b 813 97 646 -254 813 -150 l 813 490 l 607 490 l 607 149 b 421 -68 607 -18 536 -68 b 233 122 304 -68 233 3 b 271 294 233 174 244 224 l 92 358 b 28 94 47 257 28 174 b 417 -254 28 -65 143 -254 z "},"ﻦ":{"ha":911,"x_min":0,"x_max":0,"o":"m 432 568 b 532 672 494 568 532 614 b 432 775 532 732 494 775 b 329 672 369 775 329 732 b 432 568 329 614 369 568 z m 911 179 l 813 179 l 813 490 l 607 490 l 607 149 b 421 -68 607 -18 536 -68 b 233 122 304 -68 233 3 b 271 294 233 174 244 224 l 92 358 b 28 94 47 257 28 174 b 417 -254 28 -65 143 -254 b 803 0 613 -254 764 -178 l 911 0 b 939 83 931 0 939 21 b 911 179 939 153 931 179 z "},"ﻨ":{"ha":450,"x_min":0,"x_max":0,"o":"m 224 753 b 324 857 286 753 324 799 b 224 960 324 917 286 960 b 121 857 161 960 121 917 b 224 753 121 799 161 753 z m 450 179 b 326 307 376 179 326 217 l 326 592 l 121 592 l 121 326 b 0 179 121 204 96 179 l 0 0 b 260 75 121 0 207 19 b 450 0 294 26 354 0 b 478 83 469 0 478 21 b 450 179 478 153 469 179 z "},"ﻧ":{"ha":390,"x_min":0,"x_max":0,"o":"m 224 753 b 324 857 286 753 324 799 b 224 960 324 917 286 960 b 121 857 161 960 121 917 b 224 753 121 799 161 753 z m 0 0 b 326 301 221 0 326 65 l 326 592 l 121 592 l 121 326 b 0 179 121 204 96 179 z "},"ں":{"ha":893,"x_min":0,"x_max":0,"o":"m 417 -254 b 813 97 646 -254 813 -150 l 813 490 l 607 490 l 607 149 b 421 -68 607 -18 536 -68 b 233 122 304 -68 233 3 b 271 294 233 174 244 224 l 92 358 b 28 94 47 257 28 174 b 417 -254 28 -65 143 -254 z "},"ﮟ":{"ha":911,"x_min":0,"x_max":0,"o":"m 911 179 l 813 179 l 813 490 l 607 490 l 607 149 b 421 -68 607 -18 536 -68 b 233 122 304 -68 233 3 b 271 294 233 174 244 224 l 92 358 b 28 94 47 257 28 174 b 417 -254 28 -65 143 -254 b 803 0 613 -254 764 -178 l 911 0 b 939 83 931 0 939 21 b 911 179 939 153 931 179 z "},"ه":{"ha":731,"x_min":0,"x_max":0,"o":"m 354 -7 b 675 278 557 -7 675 99 b 354 607 675 475 546 607 b 29 278 163 607 29 481 b 354 -7 29 94 163 -7 z m 354 179 b 240 296 281 179 240 221 b 354 421 240 375 286 421 b 464 293 417 421 464 375 b 354 179 464 221 417 179 z "},"ﻩ":{"ha":731,"x_min":0,"x_max":0,"o":"m 354 -7 b 675 278 557 -7 675 99 b 354 607 675 475 546 607 b 29 278 163 607 29 481 b 354 -7 29 94 163 -7 z m 354 179 b 240 296 281 179 240 221 b 354 421 240 375 286 421 b 464 293 417 421 464 375 b 354 179 464 221 417 179 z "},"ﻪ":{"ha":789,"x_min":0,"x_max":0,"o":"m 789 179 b 689 288 708 179 689 208 l 689 592 l 404 592 b 29 289 142 592 29 436 b 356 10 29 100 183 10 b 546 51 431 10 493 26 b 789 0 590 15 668 0 b 817 83 808 0 817 21 b 789 179 817 153 808 179 z m 472 210 b 385 197 451 201 415 197 b 235 303 276 197 235 238 b 376 413 235 371 288 413 l 472 413 z "},"ﻬ":{"ha":715,"x_min":0,"x_max":0,"o":"m 0 179 l 0 0 l 57 0 l 57 -43 b 385 -333 57 -221 142 -333 b 665 -119 567 -333 665 -243 b 628 0 665 -78 650 -36 l 715 0 b 743 83 735 0 743 21 b 715 179 743 153 735 179 l 631 179 b 661 311 650 221 661 267 b 367 600 661 413 599 600 b 57 250 167 600 57 453 l 57 179 z m 263 175 l 263 290 b 364 414 263 365 301 414 b 456 308 428 414 456 364 b 318 175 456 219 401 175 z m 263 0 l 436 0 b 460 -75 451 -22 460 -50 b 371 -147 460 -111 440 -147 b 263 -25 292 -147 263 -107 z "},"ﻫ":{"ha":899,"x_min":0,"x_max":0,"o":"m 0 179 l 0 0 l 149 0 b 315 28 222 0 279 11 b 478 0 357 11 413 0 l 835 0 b 856 178 849 67 856 125 b 71 640 856 579 475 629 l 47 481 b 126 478 74 479 100 479 b 67 311 82 431 67 367 b 99 179 67 263 78 217 z m 236 331 b 322 436 236 394 269 436 b 408 331 376 436 408 396 b 318 182 408 267 372 213 b 236 331 272 214 236 264 z m 544 179 b 578 315 565 218 578 265 b 564 392 578 340 574 367 b 685 199 640 350 685 289 b 683 179 685 193 685 186 z "},"ہ":{"ha":731,"x_min":0,"x_max":0,"o":"m 354 -7 b 675 278 557 -7 675 99 b 354 607 675 475 546 607 b 29 278 163 607 29 481 b 354 -7 29 94 163 -7 z m 354 179 b 240 296 281 179 240 221 b 354 421 240 375 286 421 b 464 293 417 421 464 375 b 354 179 464 221 417 179 z "},"ﮧ":{"ha":803,"x_min":0,"x_max":0,"o":"m 199 -31 b 417 236 269 126 354 236 b 510 149 447 236 468 214 b 803 0 583 35 649 0 b 831 83 822 0 831 21 b 803 179 831 153 822 179 b 651 276 733 179 707 196 b 435 415 586 376 525 415 b 42 36 272 415 140 264 z "},"ﮩ":{"ha":724,"x_min":0,"x_max":0,"o":"m 0 0 l 40 0 b 36 -51 38 -18 36 -35 b 439 -336 36 -233 215 -336 b 488 -335 456 -336 471 -336 b 485 -257 485 -307 485 -282 b 715 0 485 -72 554 0 l 724 0 b 751 83 743 0 751 21 b 724 179 751 153 743 179 l 713 179 b 325 -158 476 179 331 79 b 229 0 246 -133 229 -76 b 276 179 233 54 253 118 l 0 179 z "},"ﮨ":{"ha":390,"x_min":0,"x_max":0,"o":"m 0 0 b 326 301 221 0 326 65 l 326 592 l 121 592 l 121 326 b 0 179 121 204 96 179 z m 121 -412 l 272 -343 b 214 -167 233 -287 214 -228 b 225 -85 214 -139 218 -111 l 94 -58 b 64 -215 75 -104 64 -160 b 121 -412 64 -282 81 -353 z "},"ۂ":{"ha":731,"x_min":0,"x_max":0,"o":"m 29 278 b 354 -7 29 94 163 -7 b 675 278 557 -7 675 99 b 354 607 675 475 546 607 b 29 278 163 607 29 481 z m 190 882 l 190 764 l 504 764 l 504 882 l 364 882 b 350 928 356 896 350 911 b 413 978 350 963 374 978 b 468 971 435 978 453 975 l 488 1086 b 394 1096 463 1092 428 1096 b 228 956 292 1096 228 1038 b 249 882 228 931 235 906 z m 240 296 b 354 421 240 375 286 421 b 464 293 417 421 464 375 b 354 179 464 221 417 179 b 240 296 281 179 240 221 z "},"ھ":{"ha":1083,"x_min":0,"x_max":0,"o":"m 256 640 l 232 481 b 311 478 258 479 285 479 b 251 311 267 431 251 367 b 283 179 251 263 263 218 b 83 215 215 183 139 196 l 42 40 b 310 0 113 14 204 0 b 501 28 393 0 458 11 b 663 0 542 11 597 0 l 1019 0 b 1040 178 1033 67 1040 125 b 256 640 1040 579 660 629 z m 504 182 b 421 331 457 214 421 264 b 508 436 421 394 454 436 b 593 331 561 436 593 396 b 504 182 593 267 557 214 z m 871 199 b 869 179 871 193 871 186 l 729 179 b 763 315 750 218 763 265 b 749 392 763 342 758 367 b 871 199 825 350 871 289 z "},"ﮫ":{"ha":1001,"x_min":0,"x_max":0,"o":"m 42 40 b 336 0 119 14 219 0 l 343 0 l 343 -43 b 671 -333 343 -221 428 -333 b 951 -119 853 -333 951 -243 b 914 0 951 -78 936 -36 l 1001 0 b 1029 83 1021 0 1029 21 b 1001 179 1029 153 1021 179 l 921 179 b 947 311 939 221 947 267 b 653 600 947 413 885 600 b 343 250 453 600 343 453 l 343 179 l 338 179 b 83 215 254 179 156 193 z m 549 179 l 549 290 b 650 414 549 365 588 414 b 742 308 714 414 742 364 b 604 179 742 217 686 179 z m 722 0 b 746 -75 738 -22 746 -50 b 657 -147 746 -111 726 -147 b 549 -25 578 -147 549 -107 l 549 0 z "},"ﮭ":{"ha":715,"x_min":0,"x_max":0,"o":"m 0 179 l 0 0 l 57 0 l 57 -43 b 385 -333 57 -221 142 -333 b 665 -119 567 -333 665 -243 b 628 0 665 -78 650 -36 l 715 0 b 743 83 735 0 743 21 b 715 179 743 153 735 179 l 631 179 b 661 311 650 221 661 267 b 367 600 661 413 599 600 b 57 250 167 600 57 453 l 57 179 z m 263 175 l 263 290 b 364 414 263 365 301 414 b 456 308 428 414 456 364 b 318 175 456 219 401 175 z m 263 0 l 436 0 b 460 -75 451 -22 460 -50 b 371 -147 460 -111 440 -147 b 263 -25 292 -147 263 -107 z "},"ﮬ":{"ha":899,"x_min":0,"x_max":0,"o":"m 0 179 l 0 0 l 149 0 b 315 28 222 0 279 11 b 478 0 357 11 413 0 l 835 0 b 856 178 849 67 856 125 b 71 640 856 579 475 629 l 47 481 b 126 478 74 479 100 479 b 67 311 82 431 67 367 b 99 179 67 263 78 217 z m 236 331 b 322 436 236 394 269 436 b 408 331 376 436 408 396 b 318 182 408 267 372 213 b 236 331 272 214 236 264 z m 544 179 b 578 315 565 218 578 265 b 564 392 578 340 574 367 b 685 199 640 350 685 289 b 683 179 685 193 685 186 z "},"ة":{"ha":731,"x_min":0,"x_max":0,"o":"m 228 768 b 329 872 288 768 329 814 b 228 975 329 932 288 975 b 124 872 168 975 124 932 b 228 768 124 814 168 768 z m 478 768 b 579 872 536 768 579 814 b 478 975 579 932 536 975 b 374 872 418 975 374 932 b 478 768 374 814 418 768 z m 354 -7 b 675 278 557 -7 675 99 b 354 607 675 475 546 607 b 29 278 163 607 29 481 b 354 -7 29 94 163 -7 z m 354 179 b 240 296 281 179 240 221 b 354 421 240 375 286 421 b 464 293 417 421 464 375 b 354 179 464 221 417 179 z "},"ﺔ":{"ha":789,"x_min":0,"x_max":0,"o":"m 278 753 b 379 857 338 753 379 799 b 278 960 379 917 338 960 b 174 857 218 960 174 917 b 278 753 174 799 218 753 z m 528 753 b 629 857 586 753 629 799 b 528 960 629 917 586 960 b 424 857 468 960 424 917 b 528 753 424 799 468 753 z m 789 179 b 689 288 708 179 689 208 l 689 592 l 404 592 b 29 289 142 592 29 436 b 356 10 29 100 183 10 b 546 51 431 10 493 26 b 789 0 590 15 668 0 b 817 83 808 0 817 21 b 789 179 817 153 808 179 z m 472 210 b 385 197 451 201 415 197 b 235 303 276 197 235 238 b 376 413 235 371 288 413 l 472 413 z "},"ۃ":{"ha":731,"x_min":0,"x_max":0,"o":"m 228 768 b 329 872 288 768 329 814 b 228 975 329 932 288 975 b 124 872 168 975 124 932 b 228 768 124 814 168 768 z m 478 768 b 579 872 536 768 579 814 b 478 975 579 932 536 975 b 374 872 418 975 374 932 b 478 768 374 814 418 768 z m 354 -7 b 675 278 557 -7 675 99 b 354 607 675 475 546 607 b 29 278 163 607 29 481 b 354 -7 29 94 163 -7 z m 354 179 b 240 296 281 179 240 221 b 354 421 240 375 286 421 b 464 293 417 421 464 375 b 354 179 464 221 417 179 z "},"و":{"ha":763,"x_min":0,"x_max":0,"o":"m 200 -265 b 297 -269 235 -268 267 -269 b 699 33 643 -269 699 -106 l 699 311 b 396 607 699 465 614 607 b 69 303 196 607 69 465 b 368 26 69 128 190 26 b 492 39 414 26 454 31 b 272 -85 493 -46 410 -85 b 189 -81 246 -85 218 -83 z m 401 214 b 275 313 318 214 275 250 b 388 421 275 375 324 421 b 493 276 456 421 493 379 l 493 221 b 401 214 472 218 440 214 z "},"ﻮ":{"ha":785,"x_min":0,"x_max":0,"o":"m 407 0 l 488 0 b 289 -86 471 -62 400 -86 b 189 -81 258 -86 225 -83 l 200 -265 b 299 -269 235 -268 268 -269 b 694 0 590 -269 675 -149 l 785 0 b 813 83 804 0 813 21 b 785 179 813 153 804 179 l 699 179 l 699 311 b 396 607 699 465 610 607 b 69 288 204 607 69 464 b 407 0 69 118 197 0 z m 281 300 b 390 421 281 363 321 421 b 493 283 463 421 493 369 l 493 179 l 408 179 b 281 300 324 179 281 225 z "},"ؤ":{"ha":763,"x_min":0,"x_max":0,"o":"m 69 303 b 368 26 69 128 190 26 b 492 39 414 26 454 31 b 272 -85 493 -46 410 -85 b 189 -81 246 -85 218 -83 l 200 -265 b 297 -269 235 -268 267 -269 b 699 33 643 -269 699 -106 l 699 311 b 396 607 699 465 614 607 b 69 303 196 607 69 465 z m 232 882 l 232 764 l 546 764 l 546 882 l 406 882 b 392 928 397 896 392 911 b 454 978 392 963 415 978 b 510 971 476 978 494 975 l 529 1086 b 436 1096 504 1092 469 1096 b 269 956 333 1096 269 1038 b 290 882 269 931 276 906 z m 388 421 b 493 276 456 421 493 379 l 493 221 b 401 214 472 218 440 214 b 275 313 318 214 275 250 b 388 421 275 375 324 421 z "},"ﺆ":{"ha":785,"x_min":0,"x_max":0,"o":"m 69 288 b 407 0 69 118 197 0 l 488 0 b 289 -86 471 -62 400 -86 b 189 -81 258 -86 225 -83 l 200 -265 b 299 -269 235 -268 268 -269 b 694 0 590 -269 675 -149 l 785 0 b 813 83 804 0 813 21 b 785 179 813 153 804 179 l 699 179 l 699 311 b 396 607 699 465 610 607 b 69 288 204 607 69 464 z m 232 882 l 232 764 l 546 764 l 546 882 l 406 882 b 392 928 397 896 392 911 b 454 978 392 963 415 978 b 510 971 476 978 494 975 l 529 1086 b 436 1096 504 1092 469 1096 b 269 956 333 1096 269 1038 b 290 882 269 931 276 906 z m 281 300 b 390 421 281 363 321 421 b 493 283 463 421 493 369 l 493 179 l 408 179 b 281 300 324 179 281 225 z "},"ى":{"ha":1074,"x_min":0,"x_max":0,"o":"m 525 -269 b 1017 29 918 -269 1017 -90 b 688 349 1017 229 688 261 b 818 407 688 381 728 407 b 938 392 856 407 904 400 l 972 586 b 808 607 928 597 879 607 b 474 360 589 607 474 489 b 806 15 474 138 806 83 b 525 -69 806 -33 713 -69 b 225 136 329 -69 225 -1 b 240 243 225 154 228 188 l 51 290 b 14 94 21 199 14 139 b 525 -269 14 -161 226 -269 z "},"ﻰ":{"ha":1074,"x_min":0,"x_max":0,"o":"m 1074 179 l 919 179 b 782 192 875 179 831 181 l 594 236 l 543 83 l 750 29 b 857 -62 831 8 857 -25 b 554 -161 857 -118 765 -161 b 219 19 307 -161 219 -110 b 233 136 219 51 222 79 l 51 185 b 14 -11 21 93 14 32 b 540 -361 14 -215 172 -361 b 1063 -115 878 -361 1063 -249 b 1021 0 1063 -71 1049 -32 l 1074 0 b 1101 83 1093 0 1101 21 b 1074 179 1101 153 1093 179 z "},"ي":{"ha":1074,"x_min":0,"x_max":0,"o":"m 525 -269 b 1017 29 918 -269 1017 -90 b 688 349 1017 229 688 261 b 818 407 688 381 728 407 b 938 392 856 407 904 400 l 972 586 b 808 607 928 597 879 607 b 474 360 589 607 474 489 b 806 15 474 138 806 83 b 525 -69 806 -33 713 -69 b 225 136 329 -69 225 -1 b 240 243 225 154 228 188 l 51 290 b 14 94 21 199 14 139 b 525 -269 14 -161 226 -269 z m 396 -583 b 497 -482 456 -583 497 -540 b 396 -376 497 -422 456 -376 b 292 -482 336 -376 292 -422 b 396 -583 292 -540 336 -583 z m 646 -583 b 747 -482 704 -583 747 -540 b 646 -376 747 -422 704 -376 b 542 -482 586 -376 542 -422 b 646 -583 542 -540 586 -583 z "},"ﻲ":{"ha":1074,"x_min":0,"x_max":0,"o":"m 1074 179 l 919 179 b 782 192 875 179 831 181 l 594 236 l 543 83 l 750 29 b 857 -62 831 8 857 -25 b 554 -161 857 -118 765 -161 b 219 19 307 -161 219 -110 b 233 136 219 51 222 79 l 51 185 b 14 -11 21 93 14 32 b 540 -361 14 -215 172 -361 b 1063 -115 878 -361 1063 -249 b 1021 0 1063 -71 1049 -32 l 1074 0 b 1101 83 1093 0 1101 21 b 1074 179 1101 153 1093 179 z m 413 -468 b 308 -574 353 -468 308 -514 b 413 -675 308 -632 353 -675 b 514 -574 472 -675 514 -632 b 413 -468 514 -514 472 -468 z m 663 -468 b 558 -574 603 -468 558 -514 b 663 -675 558 -632 603 -675 b 764 -574 721 -675 764 -632 b 663 -468 764 -514 721 -468 z "},"ﻴ":{"ha":504,"x_min":0,"x_max":0,"o":"m 504 179 b 381 307 431 179 381 217 l 381 592 l 175 592 l 175 326 b 40 179 175 208 151 179 l 0 179 l 0 0 l 46 0 b 314 75 174 0 261 21 b 504 0 349 26 408 0 b 532 83 524 0 532 21 b 504 179 532 153 524 179 z m 124 -107 b 19 -212 64 -107 19 -153 b 124 -314 19 -271 64 -314 b 225 -212 183 -314 225 -271 b 124 -107 225 -153 183 -107 z m 374 -107 b 269 -212 314 -107 269 -153 b 374 -314 269 -271 314 -314 b 475 -212 432 -314 475 -271 b 374 -107 475 -153 432 -107 z "},"ﻳ":{"ha":486,"x_min":0,"x_max":0,"o":"m 0 0 l 46 0 b 381 301 285 0 381 71 l 381 592 l 175 592 l 175 326 b 40 179 175 208 151 179 l 0 179 z m 106 -314 b 207 -212 165 -314 207 -271 b 106 -107 207 -153 165 -107 b 1 -212 46 -107 1 -153 b 106 -314 1 -271 46 -314 z m 356 -314 b 457 -212 414 -314 457 -271 b 356 -107 457 -153 414 -107 b 251 -212 296 -107 251 -153 b 356 -314 251 -271 296 -314 z "},"ئ":{"ha":1074,"x_min":0,"x_max":0,"o":"m 14 94 b 525 -269 14 -161 226 -269 b 1017 29 918 -269 1017 -90 b 688 349 1017 229 688 261 b 818 407 688 381 728 407 b 938 392 856 407 904 400 l 972 586 b 808 607 928 597 879 607 b 474 360 589 607 474 489 b 806 15 474 138 806 83 b 525 -69 806 -33 713 -69 b 225 136 329 -69 225 -1 b 240 243 225 154 228 188 l 51 290 b 14 94 21 199 14 139 z m 64 522 l 64 404 l 378 404 l 378 522 l 238 522 b 224 568 229 536 224 551 b 286 618 224 603 247 618 b 342 611 308 618 326 615 l 361 726 b 268 736 336 732 301 736 b 101 596 165 736 101 678 b 122 522 101 571 108 546 z "},"ﺊ":{"ha":1074,"x_min":0,"x_max":0,"o":"m 14 -11 b 540 -361 14 -215 172 -361 b 1063 -115 878 -361 1063 -249 b 1021 0 1063 -71 1049 -32 l 1074 0 b 1101 83 1093 0 1101 21 b 1074 179 1101 153 1093 179 l 919 179 b 782 192 875 179 831 181 l 594 236 l 543 83 l 750 29 b 857 -62 831 8 857 -25 b 554 -161 857 -118 765 -161 b 219 19 307 -161 219 -110 b 233 136 219 51 222 79 l 51 185 b 14 -11 21 93 14 32 z m 89 417 l 89 299 l 403 299 l 403 417 l 263 417 b 249 463 254 431 249 446 b 311 513 249 497 272 513 b 367 506 333 513 351 510 l 386 621 b 293 631 361 626 326 631 b 126 490 190 631 126 572 b 147 417 126 465 133 440 z "},"ﺌ":{"ha":504,"x_min":0,"x_max":0,"o":"m 46 0 b 314 75 174 0 261 21 b 504 0 349 26 408 0 b 532 83 524 0 532 21 b 504 179 532 153 524 179 b 381 307 431 179 381 217 l 381 592 l 175 592 l 175 326 b 40 179 175 208 151 179 l 0 179 l 0 0 z m 86 867 l 86 749 l 400 749 l 400 867 l 260 867 b 246 913 251 881 246 896 b 308 963 246 947 269 963 b 364 956 331 963 349 960 l 383 1071 b 290 1081 358 1076 324 1081 b 124 940 188 1081 124 1022 b 144 867 124 915 131 890 z "},"ﺋ":{"ha":486,"x_min":0,"x_max":0,"o":"m 0 0 l 46 0 b 381 301 285 0 381 71 l 381 592 l 175 592 l 175 326 b 40 179 175 208 151 179 l 0 179 z m 86 749 l 400 749 l 400 867 l 260 867 b 246 913 251 881 246 896 b 308 963 246 947 269 963 b 364 956 331 963 349 960 l 383 1071 b 290 1081 358 1076 324 1081 b 124 940 188 1081 124 1022 b 144 867 124 915 131 890 l 86 867 z "},"ی":{"ha":1074,"x_min":0,"x_max":0,"o":"m 525 -269 b 1017 29 918 -269 1017 -90 b 688 349 1017 229 688 261 b 818 407 688 381 728 407 b 938 392 856 407 904 400 l 972 586 b 808 607 928 597 879 607 b 474 360 589 607 474 489 b 806 15 474 138 806 83 b 525 -69 806 -33 713 -69 b 225 136 329 -69 225 -1 b 240 243 225 154 228 188 l 51 290 b 14 94 21 199 14 139 b 525 -269 14 -161 226 -269 z "},"ﯽ":{"ha":1074,"x_min":0,"x_max":0,"o":"m 1074 179 l 919 179 b 782 192 875 179 831 181 l 594 236 l 543 83 l 750 29 b 857 -62 831 8 857 -25 b 554 -161 857 -118 765 -161 b 219 19 307 -161 219 -110 b 233 136 219 51 222 79 l 51 185 b 14 -11 21 93 14 32 b 540 -361 14 -215 172 -361 b 1063 -115 878 -361 1063 -249 b 1021 0 1063 -71 1049 -32 l 1074 0 b 1101 83 1093 0 1101 21 b 1074 179 1101 153 1093 179 z "},"ﯿ":{"ha":504,"x_min":0,"x_max":0,"o":"m 504 179 b 381 307 431 179 381 217 l 381 592 l 175 592 l 175 326 b 40 179 175 208 151 179 l 0 179 l 0 0 l 46 0 b 314 75 174 0 261 21 b 504 0 349 26 408 0 b 532 83 524 0 532 21 b 504 179 532 153 524 179 z m 124 -107 b 19 -212 64 -107 19 -153 b 124 -314 19 -271 64 -314 b 225 -212 183 -314 225 -271 b 124 -107 225 -153 183 -107 z m 374 -107 b 269 -212 314 -107 269 -153 b 374 -314 269 -271 314 -314 b 475 -212 432 -314 475 -271 b 374 -107 475 -153 432 -107 z "},"ﯾ":{"ha":486,"x_min":0,"x_max":0,"o":"m 0 0 l 46 0 b 381 301 285 0 381 71 l 381 592 l 175 592 l 175 326 b 40 179 175 208 151 179 l 0 179 z m 106 -314 b 207 -212 165 -314 207 -271 b 106 -107 207 -153 165 -107 b 1 -212 46 -107 1 -153 b 106 -314 1 -271 46 -314 z m 356 -314 b 457 -212 414 -314 457 -271 b 356 -107 457 -153 414 -107 b 251 -212 296 -107 251 -153 b 356 -314 251 -271 296 -314 z "},"ے":{"ha":1081,"x_min":0,"x_max":0,"o":"m 519 -18 b 1072 24 692 -18 893 -4 l 1065 201 b 551 164 893 176 713 164 b 235 218 271 164 235 183 b 506 514 235 288 506 311 l 506 579 l 315 579 l 315 526 b 42 194 315 414 42 407 b 519 -18 42 51 151 -18 z "},"ﮯ":{"ha":613,"x_min":0,"x_max":0,"o":"m 504 -361 b 1056 -319 676 -361 878 -347 l 1049 -142 b 536 -181 876 -168 696 -181 b 219 -89 272 -181 219 -146 b 411 0 219 -31 272 0 l 613 0 b 640 83 632 0 640 21 b 613 179 640 153 632 179 l 424 179 b 25 -94 161 179 25 100 b 504 -361 25 -274 136 -361 z "},"ۓ":{"ha":1081,"x_min":0,"x_max":0,"o":"m 519 -18 b 1072 24 692 -18 893 -4 l 1065 201 b 551 164 893 176 713 164 b 235 218 271 164 235 183 b 506 514 235 288 506 311 l 506 579 l 315 579 l 315 526 b 42 194 315 414 42 407 b 519 -18 42 51 151 -18 z m 249 854 l 249 736 l 563 736 l 563 854 l 422 854 b 408 900 414 868 408 883 b 471 950 408 935 432 950 b 526 943 493 950 511 947 l 546 1058 b 453 1068 521 1064 486 1068 b 286 928 350 1068 286 1010 b 307 854 286 903 293 878 z "},"ﮱ":{"ha":613,"x_min":0,"x_max":0,"o":"m 25 -94 b 504 -361 25 -274 136 -361 b 1056 -319 676 -361 878 -347 l 1049 -142 b 536 -181 876 -168 696 -181 b 219 -89 272 -181 219 -146 b 411 0 219 -31 272 0 l 613 0 b 640 83 632 0 640 21 b 613 179 640 153 632 179 l 424 179 b 25 -94 161 179 25 100 z m 218 454 l 218 336 l 532 336 l 532 454 l 392 454 b 378 500 383 468 378 483 b 440 550 378 535 401 550 b 496 543 463 550 481 547 l 515 658 b 422 668 490 664 456 668 b 256 528 319 668 256 610 b 276 454 256 503 263 478 z "},"ە":{"ha":731,"x_min":0,"x_max":0,"o":"m 354 -7 b 675 278 557 -7 675 99 b 354 607 675 475 546 607 b 29 278 163 607 29 481 b 354 -7 29 94 163 -7 z m 354 179 b 240 296 281 179 240 221 b 354 421 240 375 286 421 b 464 293 417 421 464 375 b 354 179 464 221 417 179 z "},"ـ":{"ha":72,"x_min":0,"x_max":0,"o":"m 0 0 l 72 0 b 100 83 92 0 100 21 b 72 179 100 153 92 179 l 0 179 z "},"ﻻ":{"ha":931,"x_min":0,"x_max":0,"o":"m 28 179 l 28 0 l 592 0 b 850 254 768 0 850 107 l 850 1050 l 644 1050 l 644 306 b 533 179 644 225 617 179 l 474 179 l 474 764 l 268 764 l 268 179 z "},"ﻼ":{"ha":974,"x_min":0,"x_max":0,"o":"m 28 179 l 28 0 l 592 0 b 786 72 679 0 744 26 b 974 0 822 25 881 0 b 1001 83 993 0 1001 21 b 974 179 1001 153 993 179 b 850 307 900 179 850 217 l 850 1050 l 644 1050 l 644 306 b 533 179 644 225 617 179 l 474 179 l 474 764 l 268 764 l 268 179 z "},"ﻷ":{"ha":931,"x_min":0,"x_max":0,"o":"m 28 179 l 28 0 l 592 0 b 850 254 768 0 850 107 l 850 1050 l 644 1050 l 644 306 b 533 179 644 225 617 179 l 474 179 l 474 764 l 268 764 l 268 179 z m 243 960 l 243 867 l 490 867 l 490 960 l 379 960 b 369 994 374 971 369 982 b 418 1035 369 1022 389 1035 b 461 1029 435 1035 450 1032 l 478 1118 b 404 1128 458 1124 431 1128 b 272 1017 322 1128 272 1082 b 288 960 272 997 278 978 z "},"ﻸ":{"ha":974,"x_min":0,"x_max":0,"o":"m 28 179 l 28 0 l 592 0 b 786 72 679 0 744 26 b 974 0 822 25 881 0 b 1001 83 993 0 1001 21 b 974 179 1001 153 993 179 b 850 307 900 179 850 217 l 850 1050 l 644 1050 l 644 306 b 533 179 644 225 617 179 l 474 179 l 474 764 l 268 764 l 268 179 z m 490 867 l 490 960 l 379 960 b 369 994 374 971 369 982 b 418 1035 369 1022 389 1035 b 461 1029 435 1035 450 1032 l 478 1118 b 404 1128 458 1124 431 1128 b 272 1017 322 1128 272 1082 b 288 960 272 997 278 978 l 243 960 l 243 867 z "},"ﻹ":{"ha":931,"x_min":0,"x_max":0,"o":"m 28 179 l 28 0 l 592 0 b 850 254 768 0 850 107 l 850 1050 l 644 1050 l 644 306 b 533 179 644 225 617 179 l 474 179 l 474 764 l 268 764 l 268 179 z m 244 -268 l 244 -360 l 492 -360 l 492 -268 l 382 -268 b 371 -232 375 -257 371 -244 b 419 -192 371 -204 390 -192 b 463 -197 436 -192 451 -194 l 479 -108 b 406 -99 460 -103 432 -99 b 274 -210 324 -99 274 -144 b 290 -268 274 -229 279 -250 z "},"ﻺ":{"ha":974,"x_min":0,"x_max":0,"o":"m 28 179 l 28 0 l 592 0 b 786 72 679 0 744 26 b 974 0 822 25 881 0 b 1001 83 993 0 1001 21 b 974 179 1001 153 993 179 b 850 307 900 179 850 217 l 850 1050 l 644 1050 l 644 306 b 533 179 644 225 617 179 l 474 179 l 474 764 l 268 764 l 268 179 z m 492 -360 l 492 -268 l 382 -268 b 371 -232 375 -257 371 -244 b 419 -192 371 -204 390 -192 b 463 -197 436 -192 451 -194 l 479 -108 b 406 -99 460 -103 432 -99 b 274 -210 324 -99 274 -144 b 290 -268 274 -229 279 -250 l 244 -268 l 244 -360 z "},"ﻵ":{"ha":931,"x_min":0,"x_max":0,"o":"m 28 179 l 28 0 l 592 0 b 850 254 768 0 850 107 l 850 1050 l 644 1050 l 644 306 b 533 179 644 225 617 179 l 474 179 l 474 764 l 268 764 l 268 179 z m 129 964 l 188 883 b 253 907 201 893 222 907 b 472 869 297 907 399 869 b 601 943 522 869 560 889 l 536 1014 b 467 982 510 990 492 982 b 254 1022 406 982 308 1022 b 129 964 207 1022 161 996 z "},"ﻶ":{"ha":974,"x_min":0,"x_max":0,"o":"m 28 179 l 28 0 l 592 0 b 786 72 679 0 744 26 b 974 0 822 25 881 0 b 1001 83 993 0 1001 21 b 974 179 1001 153 993 179 b 850 307 900 179 850 217 l 850 1050 l 644 1050 l 644 306 b 533 179 644 225 617 179 l 474 179 l 474 764 l 268 764 l 268 179 z m 129 964 l 188 883 b 253 907 201 893 222 907 b 472 869 297 907 399 869 b 601 943 522 869 560 889 l 536 1014 b 467 982 510 990 492 982 b 254 1022 406 982 308 1022 b 129 964 207 1022 161 996 z "},"ﷲ":{"ha":2053,"x_min":0,"x_max":0,"o":"m 29 289 b 361 10 29 100 189 10 b 551 51 436 10 499 26 b 794 0 594 15 672 0 b 1054 75 914 0 1000 19 b 1243 0 1089 28 1147 1 b 1568 301 1464 0 1568 65 l 1568 1050 l 1363 1050 l 1363 326 b 1243 179 1363 218 1339 179 b 1119 301 1160 179 1119 218 l 1119 814 l 914 814 l 914 326 b 794 179 914 218 890 179 b 694 288 714 179 694 208 l 694 592 l 410 592 b 29 289 147 592 29 436 z m 1767 0 l 1972 0 l 1972 1050 l 1767 1050 z m 382 413 l 478 413 l 478 210 b 390 197 457 201 421 197 b 240 303 282 197 240 238 b 382 413 240 371 293 413 z m 835 981 b 936 881 835 918 872 881 b 1014 917 974 881 999 894 b 1089 890 1032 903 1057 890 b 1176 990 1140 890 1176 928 b 1151 1089 1176 1018 1169 1051 l 1088 1064 b 1097 1017 1094 1046 1097 1029 b 1068 979 1097 994 1088 979 b 1032 989 1056 979 1042 983 l 1032 993 b 1026 1043 1032 1010 1029 1026 l 969 1032 b 971 1013 971 1025 971 1019 b 939 968 971 985 963 968 b 901 1013 919 968 901 979 b 906 1044 901 1022 903 1032 l 850 1058 b 835 981 839 1029 835 1004 z m 967 1106 l 1053 1129 l 1053 1301 l 958 1301 l 958 1106 z "},"ﷺ":{"ha":1619,"x_min":0,"x_max":0,"o":"m 49 368 b 165 257 49 297 99 257 b 249 272 199 257 225 261 b 336 256 267 261 299 256 l 361 256 b 461 271 407 256 439 258 b 532 256 476 261 499 256 l 722 256 l 722 17 b 696 -12 722 -7 715 -12 l 485 -12 b 353 93 474 58 419 93 b 207 -12 272 93 221 50 l 192 -12 b 76 -133 118 -12 76 -50 l 76 -264 l 197 -264 l 197 -161 b 215 -135 197 -139 203 -135 l 221 -135 b 251 -183 228 -151 238 -168 l 350 -183 b 461 -135 400 -183 439 -167 l 701 -135 b 794 -119 743 -135 772 -132 b 865 -135 808 -128 831 -135 l 883 -135 b 971 -119 919 -135 942 -132 b 1050 -135 994 -131 1019 -135 b 1124 -119 1074 -135 1097 -132 b 1192 -135 1146 -129 1167 -135 b 1306 -47 1265 -135 1306 -104 l 1306 119 l 1179 119 l 1179 -7 b 1168 -12 1179 -11 1176 -12 b 1157 -8 1160 -12 1157 -11 l 1157 83 l 1031 83 l 1031 -6 b 1019 -12 1031 -11 1028 -12 b 1010 -7 1011 -12 1010 -11 l 1010 83 l 882 83 l 882 -4 b 872 -12 882 -10 879 -12 l 865 -12 b 849 3 853 -12 849 -8 l 849 256 l 1085 256 b 1176 271 1125 256 1156 258 b 1247 256 1192 261 1213 256 l 1610 256 l 1610 378 l 1521 378 b 1518 390 1518 383 1518 386 b 1540 406 1518 400 1525 406 b 1574 401 1549 406 1563 404 l 1596 507 b 1518 518 1565 515 1543 518 b 1383 410 1432 518 1383 475 b 1389 378 1383 403 1386 390 l 1251 378 b 1232 396 1238 378 1232 383 l 1232 608 l 1104 608 l 1104 410 b 1081 378 1104 383 1096 378 l 849 378 l 849 447 l 722 447 l 722 378 l 542 378 b 517 404 522 378 517 386 l 517 500 l 389 500 l 389 410 b 357 378 389 383 382 378 l 353 378 b 328 408 333 378 328 389 l 328 500 l 217 500 b 49 368 99 500 49 451 z m 615 617 b 806 483 615 536 675 483 b 1026 607 944 483 1026 540 b 1014 646 1026 624 1021 638 b 1069 661 1031 646 1050 650 b 1125 646 1079 653 1099 646 b 1208 661 1171 646 1192 651 b 1286 646 1231 651 1253 646 l 1586 646 b 1603 757 1597 689 1603 728 b 1464 908 1603 858 1553 908 b 1279 768 1381 908 1319 854 b 1263 783 1267 768 1263 771 l 1263 872 l 1135 872 l 1135 785 b 1121 768 1135 771 1131 768 b 1106 785 1113 768 1106 772 l 1106 1043 l 981 1043 l 981 801 b 958 768 981 775 975 768 b 858 783 929 768 910 771 l 825 676 b 894 642 889 657 894 651 b 813 607 894 624 869 607 b 747 640 771 607 747 621 b 753 663 747 647 750 657 l 635 685 b 615 617 621 658 615 638 z m 39 758 b 156 647 39 688 89 647 b 239 663 189 647 215 651 b 326 646 257 651 289 646 b 419 661 368 646 399 649 b 488 646 432 653 456 646 b 631 779 589 646 631 667 l 631 1043 l 503 1043 l 503 796 b 488 768 503 774 500 768 b 474 785 476 768 474 774 l 474 968 l 347 968 l 347 788 b 333 768 347 772 346 768 b 318 785 321 768 318 774 l 318 890 l 208 890 b 39 758 89 890 39 840 z m 1332 8 b 1449 -114 1332 -71 1382 -114 b 1476 -112 1457 -114 1468 -114 b 1400 -144 1479 -133 1451 -144 b 1353 -142 1386 -144 1371 -143 l 1360 -256 b 1408 -257 1390 -257 1397 -257 b 1604 -97 1543 -257 1604 -211 l 1604 -18 b 1471 125 1604 58 1572 125 b 1332 8 1382 125 1332 76 z m 664 701 l 792 701 l 792 1043 l 664 1043 z m 321 175 b 379 119 321 143 344 119 b 435 175 411 119 435 143 b 379 233 435 208 410 233 b 321 175 344 233 321 208 z m 447 175 b 506 119 447 143 471 119 b 560 175 536 119 560 143 b 506 233 560 208 536 233 b 447 175 471 233 447 208 z m 329 1026 b 371 981 329 996 343 981 b 410 992 390 981 403 986 b 442 982 421 985 431 982 b 485 1026 464 982 485 996 b 475 1069 485 1038 482 1053 l 431 1057 b 433 1040 432 1053 433 1046 b 426 1031 433 1035 432 1031 l 422 1031 b 421 1053 422 1036 422 1043 l 383 1049 l 383 1038 b 378 1031 383 1032 382 1031 b 372 1038 374 1031 372 1033 b 374 1053 372 1040 372 1044 l 335 1060 b 329 1026 331 1047 329 1036 z m 346 -19 b 374 -47 365 -19 374 -31 b 339 -76 374 -64 361 -76 l 324 -76 b 319 -50 319 -62 319 -54 b 346 -19 319 -31 326 -19 z m 1447 1 b 1468 24 1447 17 1454 24 b 1489 -4 1483 24 1489 14 l 1489 -19 l 1468 -19 b 1447 1 1454 -19 1447 -12 z m 1407 768 b 1454 796 1419 785 1436 796 b 1479 769 1471 796 1479 788 l 1479 768 z m 203 406 l 208 406 l 208 367 l 194 367 b 169 386 178 367 169 372 b 203 406 169 399 178 406 z m 160 776 b 193 796 160 789 168 796 l 199 796 l 199 757 l 185 757 b 160 776 168 757 160 763 z "},"¹":{"ha":535,"x_min":0,"x_max":0,"o":"m 404 992 l 271 992 l 50 829 l 131 738 l 254 842 l 254 401 l 404 401 z "},"²":{"ha":535,"x_min":0,"x_max":0,"o":"m 276 1000 b 36 808 133 1000 46 933 l 178 800 b 269 875 181 842 215 875 b 351 821 318 875 351 856 b 304 754 351 800 332 778 l 33 525 l 33 401 l 501 401 l 501 518 l 222 518 l 222 521 l 421 674 b 501 833 481 719 501 749 b 276 1000 501 940 407 1000 z "},"³":{"ha":535,"x_min":0,"x_max":0,"o":"m 271 1000 b 29 842 138 1000 57 946 l 182 814 b 271 875 192 853 226 875 b 349 829 318 875 349 858 b 244 767 349 799 335 767 l 199 767 l 199 650 l 247 650 b 361 585 338 650 361 626 b 267 518 361 538 321 518 b 175 588 213 518 185 544 l 24 557 b 267 393 47 453 128 393 b 511 571 411 393 511 460 b 383 710 511 639 463 701 l 383 713 b 499 842 460 726 499 776 b 271 1000 499 943 400 1000 z "},"⁄":{"ha":232,"x_min":0,"x_max":0,"o":"m 339 1028 l -224 15 l -118 -44 l 456 963 z "},"½":{"ha":1235,"x_min":0,"x_max":0,"o":"m 825 1028 l 263 15 l 368 -44 l 942 963 z m 365 992 l 232 992 l 11 829 l 92 738 l 215 842 l 215 401 l 365 401 z m 999 599 b 758 407 856 599 768 532 l 900 399 b 992 474 903 440 938 474 b 1074 419 1040 474 1074 454 b 1026 353 1074 399 1054 376 l 756 124 l 756 0 l 1224 0 l 1224 117 l 944 117 l 944 119 l 1143 272 b 1224 432 1203 318 1224 347 b 999 599 1224 539 1129 599 z "},"¼":{"ha":1235,"x_min":0,"x_max":0,"o":"m 994 118 l 994 0 l 1144 0 l 1144 118 l 1224 118 l 1224 235 l 1144 235 l 1144 590 l 981 590 l 704 226 l 704 118 z m 263 15 l 368 -44 l 942 963 l 825 1028 z m 92 738 l 215 842 l 215 401 l 365 401 l 365 992 l 232 992 l 11 829 z m 992 424 l 994 424 l 994 235 l 854 235 z "},"¾":{"ha":1235,"x_min":0,"x_max":0,"o":"m 6 557 b 249 393 29 453 110 393 b 493 571 393 393 493 460 b 365 710 493 639 444 701 l 365 713 b 481 842 442 726 481 776 b 253 1000 481 943 382 1000 b 11 842 119 1000 39 946 l 164 814 b 253 875 174 853 208 875 b 331 829 300 875 331 858 b 226 767 331 799 317 767 l 181 767 l 181 650 l 229 650 b 343 585 319 650 343 626 b 249 518 343 538 303 518 b 157 588 194 518 167 544 z m 710 226 l 710 118 l 1000 118 l 1000 0 l 1150 0 l 1150 118 l 1229 118 l 1229 235 l 1150 235 l 1150 590 l 986 590 z m 401 -44 l 975 963 l 858 1028 l 296 15 z m 860 235 l 997 424 l 1000 424 l 1000 235 z "},"٫":{"ha":386,"x_min":0,"x_max":0,"o":"m 318 103 l 119 103 l 17 -287 l 193 -287 z "},"٬":{"ha":349,"x_min":0,"x_max":0,"o":"m 281 179 l 89 179 l 17 -103 l 192 -103 z "},"٠":{"ha":750,"x_min":0,"x_max":0,"o":"m 375 236 l 546 407 l 375 574 l 203 408 z "},"١":{"ha":750,"x_min":0,"x_max":0,"o":"m 274 0 l 479 0 l 479 907 l 274 907 z "},"٢":{"ha":750,"x_min":0,"x_max":0,"o":"m 74 0 l 279 0 l 279 553 b 422 533 317 540 367 533 b 693 910 632 533 714 638 l 488 899 b 394 721 497 764 472 721 b 279 744 360 721 317 729 l 279 907 l 74 907 z "},"٣":{"ha":750,"x_min":0,"x_max":0,"o":"m 35 907 l 35 0 l 240 0 l 240 572 b 300 565 258 567 279 565 b 401 592 342 565 375 574 b 521 565 438 574 474 565 b 731 910 683 565 747 672 l 551 896 b 483 743 564 771 556 743 l 475 743 b 475 910 481 789 481 844 l 313 897 b 267 743 325 771 317 743 b 240 744 258 743 249 743 l 240 907 z "},"٤":{"ha":750,"x_min":0,"x_max":0,"o":"m 640 185 b 489 178 593 181 532 178 b 292 247 335 178 292 203 b 581 381 292 303 367 363 l 582 572 b 482 565 544 567 511 565 b 331 639 381 565 331 593 b 556 722 331 689 389 722 b 607 721 572 722 589 721 l 607 908 b 544 910 572 910 565 910 b 119 649 263 910 119 824 b 264 465 119 563 167 503 b 81 211 138 401 81 313 b 453 -17 81 38 215 -17 b 649 -4 513 -17 590 -12 z "},"٥":{"ha":750,"x_min":0,"x_max":0,"o":"m 375 -11 b 714 396 594 -11 714 107 b 375 908 714 724 589 908 b 36 396 163 908 36 724 b 375 -11 36 107 156 -11 z m 375 181 b 242 408 282 181 242 253 b 375 717 242 568 278 717 b 508 408 472 717 508 568 b 375 181 508 253 468 181 z "},"٦":{"ha":750,"x_min":0,"x_max":0,"o":"m 442 0 l 647 0 l 647 907 l 65 907 l 65 717 l 442 717 z "},"٧":{"ha":750,"x_min":0,"x_max":0,"o":"m 539 924 l 375 258 l 211 924 l 4 878 l 246 0 l 504 0 l 746 878 z "},"٨":{"ha":750,"x_min":0,"x_max":0,"o":"m 746 15 l 504 893 l 246 893 l 4 15 l 211 -31 l 375 635 l 539 -31 z "},"٩":{"ha":750,"x_min":0,"x_max":0,"o":"m 32 608 b 374 335 32 444 132 335 b 456 339 399 335 426 336 l 456 1 l 661 1 l 661 907 l 357 907 b 32 608 144 907 32 792 z m 243 619 b 386 717 243 676 278 717 l 456 717 l 456 528 b 389 524 431 525 408 524 b 243 619 276 524 243 565 z "},"۰":{"ha":750,"x_min":0,"x_max":0,"o":"m 375 236 l 546 407 l 375 574 l 203 408 z "},"۱":{"ha":750,"x_min":0,"x_max":0,"o":"m 274 0 l 479 0 l 479 907 l 274 907 z "},"۲":{"ha":750,"x_min":0,"x_max":0,"o":"m 74 0 l 279 0 l 279 553 b 422 533 317 540 367 533 b 693 910 632 533 714 638 l 488 899 b 394 721 497 764 472 721 b 279 744 360 721 317 729 l 279 907 l 74 907 z "},"۳":{"ha":750,"x_min":0,"x_max":0,"o":"m 35 907 l 35 0 l 240 0 l 240 572 b 300 565 258 567 279 565 b 401 592 342 565 375 574 b 521 565 438 574 474 565 b 731 910 683 565 747 672 l 551 896 b 483 743 564 771 556 743 l 475 743 b 475 910 481 789 481 844 l 313 897 b 267 743 325 771 317 743 b 240 744 258 743 249 743 l 240 907 z "},"۴":{"ha":750,"x_min":0,"x_max":0,"o":"m 18 0 l 224 0 l 224 514 b 449 488 293 496 369 488 b 728 517 542 488 638 499 l 706 686 b 489 663 635 672 561 665 b 482 701 485 675 482 690 b 549 760 482 740 504 760 b 626 744 572 760 603 754 l 668 903 b 528 922 624 915 572 922 b 331 736 397 922 331 860 b 340 668 331 715 335 690 b 224 688 300 672 261 679 l 224 907 l 18 907 z "},"۵":{"ha":750,"x_min":0,"x_max":0,"o":"m 240 -8 b 375 56 310 -8 347 19 b 511 -8 403 19 440 -8 b 726 351 646 -8 726 90 b 375 908 726 711 554 908 b 24 351 196 908 24 710 b 240 -8 24 90 104 -8 z m 304 185 b 235 364 256 185 235 242 b 375 715 235 488 267 715 b 515 364 483 715 515 488 b 447 185 515 243 494 185 b 375 226 418 185 392 206 b 304 185 358 206 332 185 z "},"۶":{"ha":750,"x_min":0,"x_max":0,"o":"m 547 618 l 468 529 b 297 629 347 540 297 578 b 500 725 297 686 361 725 b 579 721 524 725 550 724 l 579 908 b 493 911 549 910 521 911 b 86 628 224 911 86 815 b 314 351 86 481 171 388 l 90 97 l 250 -36 l 706 485 z "},"۷":{"ha":750,"x_min":0,"x_max":0,"o":"m 539 924 l 375 258 l 211 924 l 4 878 l 246 0 l 504 0 l 746 878 z "},"۸":{"ha":750,"x_min":0,"x_max":0,"o":"m 746 15 l 504 893 l 246 893 l 4 15 l 211 -31 l 375 635 l 539 -31 z "},"۹":{"ha":750,"x_min":0,"x_max":0,"o":"m 32 608 b 374 335 32 444 132 335 b 456 339 399 335 426 336 l 456 1 l 661 1 l 661 907 l 357 907 b 32 608 144 907 32 792 z m 243 619 b 386 717 243 676 278 717 l 456 717 l 456 528 b 389 524 431 525 408 524 b 243 619 276 524 243 565 z "},"…":{"ha":1389,"x_min":0,"x_max":0,"o":"m 232 247 b 104 119 163 247 104 190 b 232 -8 104 50 161 -8 b 360 119 304 -8 360 51 b 232 247 360 189 303 247 z m 694 247 b 567 119 625 247 567 190 b 694 -8 567 50 624 -8 b 822 119 767 -8 822 50 b 694 247 822 188 767 247 z m 1157 247 b 1029 119 1086 247 1029 190 b 1157 -8 1029 50 1085 -8 b 1285 119 1226 -8 1285 49 b 1157 247 1285 188 1231 247 z "},"¡":{"ha":617,"x_min":0,"x_max":0,"o":"m 308 683 b 181 556 239 683 181 626 b 308 428 181 486 238 428 b 436 556 381 428 436 488 b 308 683 436 629 376 683 z m 413 350 l 204 350 l 204 -308 l 413 -308 z "},"¿":{"ha":772,"x_min":0,"x_max":0,"o":"m 368 683 b 240 556 299 683 240 625 b 368 428 240 486 297 428 b 496 556 438 428 496 485 b 368 683 496 624 440 683 z m 472 350 l 264 350 l 264 319 b 203 208 264 271 251 246 b 38 -60 93 124 38 56 b 350 -333 38 -229 168 -333 b 697 -32 543 -333 678 -228 l 483 -18 b 346 -142 476 -96 422 -142 b 246 -44 285 -142 246 -101 b 303 53 246 -14 264 18 l 394 136 b 472 300 461 196 472 222 z "},"·":{"ha":411,"x_min":0,"x_max":0,"o":"m 206 521 b 78 393 133 521 78 463 b 206 265 78 322 135 265 b 333 393 275 265 333 321 b 206 521 333 463 278 521 z "},"•":{"ha":694,"x_min":0,"x_max":0,"o":"m 347 738 b 101 492 210 738 101 625 b 347 246 101 350 217 246 b 593 492 481 246 593 353 b 347 738 593 625 486 738 z "},"­":{"ha":411,"x_min":0,"x_max":0,"o":"m 376 429 l 35 429 l 35 263 l 376 263 z "},"–":{"ha":694,"x_min":0,"x_max":0,"o":"m 694 429 l 0 429 l 0 263 l 694 263 z "},"—":{"ha":1389,"x_min":0,"x_max":0,"o":"m 1389 429 l 0 429 l 0 263 l 1389 263 z "},"‑":{"ha":411,"x_min":0,"x_max":0,"o":"m 376 429 l 35 429 l 35 263 l 376 263 z "},"‚":{"ha":411,"x_min":0,"x_max":0,"o":"m 357 217 l 157 217 l 54 -175 l 232 -175 z "},"„":{"ha":722,"x_min":0,"x_max":0,"o":"m 358 -175 l 536 -175 l 661 217 l 461 217 z m 61 -175 l 239 -175 l 364 217 l 164 217 z "},"“":{"ha":722,"x_min":0,"x_max":0,"o":"m 358 592 l 558 592 l 661 983 l 483 983 z m 61 592 l 261 592 l 364 983 l 186 983 z "},"”":{"ha":722,"x_min":0,"x_max":0,"o":"m 358 592 l 536 592 l 661 983 l 461 983 z m 61 592 l 239 592 l 364 983 l 164 983 z "},"‘":{"ha":411,"x_min":0,"x_max":0,"o":"m 357 983 l 179 983 l 54 592 l 254 592 z "},"’":{"ha":411,"x_min":0,"x_max":0,"o":"m 357 983 l 157 983 l 54 592 l 232 592 z "},"«":{"ha":747,"x_min":0,"x_max":0,"o":"m 372 586 l 246 671 l 25 346 l 246 21 l 372 106 l 211 346 z m 708 586 l 582 671 l 361 346 l 582 21 l 708 106 l 547 346 z "},"»":{"ha":747,"x_min":0,"x_max":0,"o":"m 165 671 l 39 586 l 200 346 l 39 106 l 165 21 l 386 346 z m 501 671 l 375 586 l 536 346 l 375 106 l 501 21 l 722 346 z "},"‹":{"ha":411,"x_min":0,"x_max":0,"o":"m 372 586 l 246 671 l 25 346 l 246 21 l 372 106 l 211 346 z "},"›":{"ha":411,"x_min":0,"x_max":0,"o":"m 165 671 l 39 586 l 200 346 l 39 106 l 165 21 l 386 346 z "},"۔":{"ha":519,"x_min":0,"x_max":0,"o":"m 114 226 l 42 88 b 263 0 96 18 172 0 l 478 0 l 478 179 l 263 179 b 114 226 197 179 147 196 z "},"،":{"ha":411,"x_min":0,"x_max":0,"o":"m 61 0 l 260 0 l 363 390 l 186 390 z "},"؛":{"ha":411,"x_min":0,"x_max":0,"o":"m 60 322 l 258 322 l 360 686 l 185 686 z m 165 -8 b 292 118 238 -8 292 47 b 165 244 292 189 236 244 b 39 118 94 244 39 189 b 165 -8 39 47 94 -8 z "},"؟":{"ha":769,"x_min":0,"x_max":0,"o":"m 288 322 l 493 322 l 493 385 b 443 513 493 442 479 478 b 268 719 361 592 268 653 b 369 819 268 782 311 819 b 507 694 456 819 501 763 l 718 708 b 372 1008 697 903 567 1008 b 61 735 200 1008 61 910 b 232 463 61 622 114 556 b 288 364 276 428 288 399 z m 390 -8 b 517 118 463 -8 517 47 b 390 244 517 189 463 244 b 264 118 319 244 264 189 b 390 -8 264 47 319 -8 z "},"٭":{"ha":1169,"x_min":0,"x_max":0,"o":"m 282 -136 l 592 139 l 894 -136 l 932 -108 l 763 263 l 1125 469 l 1110 521 l 694 469 l 613 869 l 571 869 l 483 469 l 68 521 l 57 469 l 406 261 l 249 -108 z "},"﴾":{"ha":711,"x_min":0,"x_max":0,"o":"m 124 410 l 124 332 b 143 306 124 317 129 306 b 163 317 149 306 157 311 l 263 406 b 282 415 271 414 276 415 b 299 404 294 415 299 410 b 288 381 299 396 296 388 l 208 271 b 219 239 197 256 204 239 b 224 239 221 239 222 239 l 318 254 b 644 -135 360 96 592 -135 b 647 -110 660 -135 661 -122 b 436 257 550 -12 454 117 l 442 257 l 503 249 b 513 247 506 249 510 247 b 522 274 532 247 535 260 l 435 374 b 419 399 426 386 419 394 b 433 410 419 410 426 410 b 442 410 436 410 439 410 b 453 406 444 408 449 408 l 556 329 b 581 318 565 322 574 318 b 590 332 588 318 590 322 l 590 410 b 674 478 621 421 674 446 b 590 544 674 508 621 533 l 590 621 b 581 635 590 631 588 635 b 556 624 574 635 565 631 l 453 549 b 442 544 449 546 444 546 b 433 544 439 544 436 544 b 419 554 426 544 419 544 b 435 578 419 560 426 568 l 522 681 b 513 707 535 694 532 707 b 503 706 510 707 506 706 l 436 697 b 442 729 438 708 439 719 b 647 1064 465 835 549 946 b 644 1089 660 1078 660 1089 b 318 700 592 1089 360 858 l 224 715 b 219 715 222 715 221 715 b 208 683 204 715 199 699 l 288 574 b 299 550 296 567 299 558 b 282 538 299 544 294 538 b 263 547 276 538 272 540 l 163 636 b 143 649 157 640 149 649 b 124 621 129 649 124 636 l 124 544 b 42 478 67 517 42 494 b 124 410 42 460 67 438 z m 338 661 b 442 864 353 722 393 814 l 442 806 b 396 660 415 743 401 704 l 489 678 l 401 589 l 401 625 l 376 625 l 376 669 l 349 625 l 318 625 l 318 588 l 253 682 z m 318 365 l 318 326 l 349 326 l 376 283 l 376 326 l 401 326 l 401 365 l 489 275 l 396 293 b 442 149 401 249 415 210 l 442 89 b 338 292 393 139 353 232 l 253 272 z m 294 478 b 360 544 294 513 325 544 b 426 478 397 544 426 515 b 360 410 426 439 399 410 b 318 426 344 410 329 417 b 294 478 304 440 294 458 z m 464 436 l 519 436 l 519 461 b 561 476 536 463 551 469 b 519 493 551 485 536 492 l 519 518 l 464 518 l 561 592 l 561 519 b 640 478 581 515 640 497 b 561 435 640 456 581 440 l 561 363 z m 124 507 b 156 519 133 511 143 515 l 156 593 l 256 514 l 194 514 l 194 492 b 156 478 178 488 167 485 b 194 463 167 469 178 467 l 194 439 l 256 439 l 156 361 l 156 435 b 76 478 139 440 76 464 b 124 507 76 485 93 496 z "},"﴿":{"ha":711,"x_min":0,"x_max":0,"o":"m 42 478 b 125 410 42 446 94 421 l 125 332 b 135 318 125 322 128 318 b 160 329 142 318 150 322 l 263 406 b 274 410 267 408 271 408 b 282 410 276 410 279 410 b 296 399 289 410 296 410 b 281 374 296 394 289 386 l 193 274 b 203 247 181 260 183 247 b 213 249 206 247 210 249 l 274 257 l 279 257 b 68 -110 261 117 165 -12 b 71 -135 54 -122 56 -135 b 397 254 124 -135 356 96 l 492 239 b 496 239 493 239 494 239 b 507 271 511 239 518 256 l 428 381 b 417 404 419 388 417 396 b 433 415 417 410 421 415 b 453 406 439 415 444 414 l 553 317 b 572 306 558 311 567 306 b 592 332 586 306 592 317 l 592 410 b 674 478 649 438 674 460 b 592 544 674 494 649 517 l 592 621 b 572 649 592 636 586 649 b 553 636 567 649 558 640 l 453 547 b 433 538 443 540 439 538 b 417 550 421 538 417 544 b 428 574 417 558 419 567 l 507 683 b 496 715 517 699 511 715 b 492 715 494 715 493 715 l 397 700 b 71 1089 356 858 124 1089 b 68 1064 56 1089 56 1078 b 274 729 167 946 250 835 b 279 697 276 719 278 708 l 213 706 b 203 707 210 706 206 707 b 193 681 183 707 181 694 l 281 578 b 296 554 289 568 296 560 b 282 544 296 544 289 544 b 274 544 279 544 276 544 b 263 549 271 546 267 546 l 160 624 b 135 635 150 631 142 635 b 125 621 128 635 125 631 l 125 544 b 42 478 94 533 42 508 z m 226 678 l 319 660 b 274 806 314 704 300 743 l 274 864 b 378 661 322 814 363 722 l 463 682 l 397 588 l 397 625 l 367 625 l 339 669 l 339 625 l 314 625 l 314 589 z m 319 293 l 226 275 l 314 365 l 314 326 l 339 326 l 339 283 l 367 326 l 397 326 l 397 365 l 463 272 l 378 292 b 274 89 363 232 322 139 l 274 149 b 319 293 300 210 314 249 z m 289 478 b 356 544 289 515 318 544 b 421 478 390 544 421 513 b 397 426 421 458 411 440 b 356 410 386 417 371 410 b 289 478 317 410 289 439 z m 154 435 b 75 478 135 440 75 456 b 154 519 75 497 135 515 l 154 592 l 251 518 l 196 518 l 196 493 b 154 479 179 492 164 485 b 196 461 164 469 179 463 l 196 436 l 251 436 l 154 363 z m 460 514 l 560 593 l 560 519 b 592 507 572 515 582 511 b 639 478 622 496 639 485 b 560 435 639 464 576 440 l 560 361 l 460 439 l 521 439 l 521 463 b 560 478 538 467 549 469 b 521 492 549 485 538 488 l 521 514 z "}," ":{"ha":1588,"x_min":0,"x_max":0,"o":""}," ":{"ha":794,"x_min":0,"x_max":0,"o":""}," ":{"ha":32,"x_min":0,"x_max":0,"o":""}," ":{"ha":411,"x_min":0,"x_max":0,"o":""}," ":{"ha":158,"x_min":0,"x_max":0,"o":""},"‎":{"ha":0,"x_min":0,"x_max":0,"o":"m 42 1247 l 151 1357 l 42 1467 l 15 1439 l 81 1376 l -119 1376 l -119 1340 l 81 1340 l 15 1275 z "},"‏":{"ha":0,"x_min":0,"x_max":0,"o":"m -42 1249 l -15 1275 l -79 1340 l 121 1340 l 121 1376 l -81 1376 l -15 1442 l -42 1467 l -151 1357 z "},"‍":{"ha":0,"x_min":0,"x_max":0,"o":"m -157 1376 l -157 1267 l -121 1267 l -121 1340 l 122 1340 l 122 1267 l 158 1267 l 158 1376 z "},"‌":{"ha":0,"x_min":0,"x_max":0,"o":"m -108 1439 l -26 1357 l -108 1275 l -83 1247 l 0 1331 l 82 1249 l 107 1275 l 26 1357 l 107 1439 l 82 1465 l 0 1382 l -83 1467 z "},"‪":{"ha":0,"x_min":0,"x_max":0,"o":"m 81 1340 l 15 1275 l 42 1247 l 151 1357 l 42 1467 l 15 1439 l 81 1376 l 1 1376 l 1 1340 z m -44 1340 l -44 1376 l -135 1376 l -135 1340 z "},"‭":{"ha":0,"x_min":0,"x_max":0,"o":"m -33 1247 l 76 1357 l -33 1467 l -58 1439 l 6 1376 l -164 1376 l -164 1340 l 7 1340 l -58 1275 z m 69 1247 l 179 1357 l 69 1467 l 44 1439 l 129 1357 l 44 1275 z "},"‬":{"ha":0,"x_min":0,"x_max":0,"o":"m -19 1246 l 18 1246 l 18 1407 l 82 1343 l 108 1369 l 0 1478 l -108 1369 l -82 1343 l -19 1407 z "},"‫":{"ha":0,"x_min":0,"x_max":0,"o":"m -151 1357 l -42 1249 l -15 1275 l -79 1340 l -1 1340 l -1 1376 l -81 1376 l -15 1442 l -42 1467 z m 44 1340 l 135 1340 l 135 1376 l 44 1376 z "},"‮":{"ha":0,"x_min":0,"x_max":0,"o":"m -69 1286 l -44 1313 l -128 1396 l -44 1479 l -69 1506 l -179 1396 z m 33 1286 l 60 1313 l -6 1378 l 165 1378 l 165 1413 l -6 1413 l 60 1479 l 33 1506 l -75 1396 z "},"﻿":{"ha":0,"x_min":0,"x_max":0,"o":""},"¢":{"ha":822,"x_min":0,"x_max":0,"o":"m 106 338 b 431 -17 106 147 235 -7 l 431 -112 l 514 -112 l 514 -17 b 756 69 614 -15 706 19 l 629 218 b 514 158 594 183 557 158 l 514 517 b 619 464 544 517 581 503 l 753 606 b 514 692 682 665 610 692 l 514 783 l 431 783 l 431 692 b 106 338 231 667 106 532 z m 431 517 l 431 158 b 306 339 350 183 306 249 b 431 517 306 433 353 503 z "},"¤":{"ha":822,"x_min":0,"x_max":0,"o":"m 133 853 l 50 771 l 118 703 b 50 492 75 643 50 571 b 118 281 50 413 75 340 l 50 213 l 133 131 l 201 197 b 411 131 261 154 332 131 b 621 197 490 131 561 154 l 689 131 l 772 213 l 704 281 b 772 492 750 343 772 413 b 704 703 772 571 750 639 l 772 771 l 689 853 l 621 786 b 411 853 561 829 490 853 b 201 786 332 853 260 828 z m 233 492 b 410 678 233 599 315 678 b 589 492 511 678 589 594 b 411 306 589 390 513 306 b 233 492 313 306 233 388 z "},"€":{"ha":822,"x_min":0,"x_max":0,"o":"m 14 308 l 126 308 b 503 -17 169 93 299 -17 b 803 104 624 -17 738 29 l 689 244 b 522 164 644 190 594 164 b 343 308 428 164 371 219 l 565 308 l 606 433 l 322 433 b 321 493 322 450 321 471 b 324 553 321 511 322 536 l 638 553 l 679 681 l 353 681 b 560 814 393 775 465 814 b 711 779 625 814 682 797 l 775 960 b 558 1000 746 979 626 1000 b 133 681 336 1000 190 893 l 61 681 l 18 553 l 113 553 b 110 485 111 531 110 518 b 111 433 110 472 110 443 l 53 433 z "},"ƒ":{"ha":822,"x_min":0,"x_max":0,"o":"m -28 -160 b 126 -193 19 -179 74 -193 b 406 53 285 -193 372 -111 l 486 461 l 689 461 l 689 603 l 514 603 l 536 708 b 644 817 551 783 582 817 b 717 801 668 817 693 811 l 790 958 b 608 1000 731 986 676 1000 b 338 743 442 1000 375 933 l 310 603 l 124 603 l 124 461 l 282 461 l 217 142 b 108 -10 201 68 188 -10 b 44 6 86 -10 64 -6 z "},"₺":{"ha":822,"x_min":0,"x_max":0,"o":"m 38 708 l 38 567 l 149 614 l 149 508 l 38 460 l 38 319 l 149 367 l 149 -1 b 326 -12 219 -10 254 -12 b 797 490 640 -12 797 188 l 797 507 l 592 507 l 592 493 b 353 179 592 325 524 182 l 349 179 l 349 458 l 563 547 l 563 689 l 349 600 l 349 706 l 563 794 l 563 936 l 349 847 l 349 983 l 149 983 l 149 756 z "},"₹":{"ha":822,"x_min":0,"x_max":0,"o":"m 224 850 b 396 751 306 850 371 829 l 106 751 l 104 618 l 390 618 b 219 519 367 546 296 519 l 104 519 l 104 404 l 378 0 l 635 0 l 346 399 b 603 618 486 407 589 481 l 779 618 l 779 751 l 604 751 b 561 850 599 782 585 819 l 779 850 l 779 983 l 103 983 l 103 850 z "},"£":{"ha":822,"x_min":0,"x_max":0,"o":"m 67 433 l 200 433 l 200 158 l 67 158 l 67 0 l 760 0 l 760 158 l 408 158 l 408 433 l 625 433 l 625 575 l 408 575 l 408 635 b 569 817 408 708 429 817 b 696 757 608 817 658 794 l 835 906 b 544 1000 772 965 667 1000 b 200 667 339 1000 200 860 l 200 575 l 67 575 z "},"¥":{"ha":822,"x_min":0,"x_max":0,"o":"m -50 983 l 207 581 l 68 581 l 68 447 l 286 447 l 303 419 l 303 353 l 68 353 l 68 219 l 303 219 l 303 0 l 519 0 l 519 219 l 754 219 l 754 353 l 519 353 l 519 419 l 536 447 l 754 447 l 754 581 l 615 581 l 872 983 l 619 983 l 411 617 l 203 983 z "},"∙":{"ha":411,"x_min":0,"x_max":0,"o":"m 206 521 b 78 393 133 521 78 463 b 206 265 78 322 135 265 b 333 393 275 265 333 321 b 206 521 333 463 278 521 z "},"∕":{"ha":232,"x_min":0,"x_max":0,"o":"m 339 1028 l -224 15 l -118 -44 l 456 963 z "},"−":{"ha":925,"x_min":0,"x_max":0,"o":"m 843 508 l 82 508 l 82 333 l 843 333 z "},"×":{"ha":925,"x_min":0,"x_max":0,"o":"m 464 549 l 218 792 l 89 660 l 336 421 l 94 169 l 218 50 l 464 296 l 708 51 l 836 181 l 586 421 l 826 671 l 703 790 z "},"÷":{"ha":925,"x_min":0,"x_max":0,"o":"m 463 803 b 343 683 396 803 343 747 b 463 564 343 618 397 564 b 582 683 531 564 582 619 b 463 803 582 747 529 803 z m 843 508 l 82 508 l 82 333 l 843 333 z m 463 278 b 343 158 397 278 343 222 b 463 39 343 93 399 39 b 582 158 531 39 582 94 b 463 278 582 222 529 278 z "},"≠":{"ha":925,"x_min":0,"x_max":0,"o":"m 82 467 l 396 467 l 357 375 l 82 375 l 82 200 l 282 200 l 235 88 l 376 35 l 449 200 l 843 200 l 843 375 l 525 375 l 565 467 l 843 467 l 843 642 l 642 642 l 686 743 l 539 803 l 469 642 l 82 642 z "},"≥":{"ha":925,"x_min":0,"x_max":0,"o":"m 96 860 l 96 665 l 549 515 l 96 364 l 96 172 l 765 435 l 765 592 z m 90 -21 l 771 -21 l 771 150 l 90 150 z "},"≤":{"ha":925,"x_min":0,"x_max":0,"o":"m 96 592 l 96 435 l 765 172 l 765 364 l 313 515 l 765 665 l 765 860 z m 90 150 l 90 -21 l 771 -21 l 771 150 z "},"±":{"ha":925,"x_min":0,"x_max":0,"o":"m 82 449 l 375 449 l 375 271 l 550 271 l 550 449 l 843 449 l 843 624 l 550 624 l 550 801 l 375 801 l 375 624 l 82 624 z m 82 40 l 843 40 l 843 215 l 82 215 z "},"≈":{"ha":925,"x_min":0,"x_max":0,"o":"m 821 592 l 713 697 b 603 581 674 626 636 581 b 338 676 525 581 429 676 b 104 503 251 676 160 613 l 214 399 b 329 515 268 481 304 515 b 603 418 424 515 508 418 b 821 592 693 418 767 481 z m 821 317 l 713 421 b 601 306 668 346 636 306 b 338 401 503 306 451 401 b 104 224 254 401 158 335 l 214 115 b 329 233 263 197 299 233 b 601 135 435 233 497 135 b 821 317 683 135 761 200 z "},"¬":{"ha":925,"x_min":0,"x_max":0,"o":"m 843 642 l 82 642 l 82 467 l 668 467 l 668 197 l 843 197 z "},"∞":{"ha":1115,"x_min":0,"x_max":0,"o":"m 307 643 b 68 397 167 643 68 538 b 294 154 68 267 163 154 b 558 317 415 154 488 226 b 815 154 622 232 703 154 b 1046 404 953 154 1046 267 b 824 643 1046 538 960 643 b 564 485 708 643 635 565 b 307 643 499 569 421 643 z m 172 396 b 301 543 172 476 217 543 b 503 392 399 543 451 460 b 308 257 453 336 393 257 b 172 396 231 257 172 315 z m 617 401 b 811 543 665 458 725 543 b 942 397 896 543 942 478 b 818 257 942 329 893 257 b 617 401 724 257 668 339 z "},"∫":{"ha":569,"x_min":0,"x_max":0,"o":"m 453 1213 b 194 842 296 1213 194 1111 b 217 144 194 664 217 318 b 113 -104 217 -40 189 -104 b 50 -89 88 -104 67 -93 l 26 -221 b 140 -244 49 -232 94 -244 b 381 144 306 -244 381 -118 b 358 808 381 325 358 646 b 469 1081 358 896 351 1081 b 522 1068 489 1081 506 1076 l 542 1196 b 453 1213 524 1203 490 1213 z "},"Ω":{"ha":1043,"x_min":0,"x_max":0,"o":"m 54 0 l 449 0 l 449 113 b 269 506 318 193 269 360 b 524 840 269 667 349 840 b 772 513 697 840 772 664 b 593 113 772 363 729 196 l 593 0 l 986 0 l 986 151 l 785 151 l 785 156 b 967 551 899 253 967 401 b 525 994 967 783 793 994 b 75 544 268 994 75 801 b 253 156 75 392 139 257 l 253 151 l 54 151 z "},"∆":{"ha":963,"x_min":0,"x_max":0,"o":"m 600 1001 l 371 1001 l 38 108 l 38 0 l 924 0 l 924 110 z m 475 806 l 479 806 b 560 558 501 726 533 642 l 715 151 l 236 151 l 401 579 b 475 806 424 653 456 731 z "},"∏":{"ha":1054,"x_min":0,"x_max":0,"o":"m 33 810 l 183 810 l 183 -135 l 371 -135 l 371 810 l 682 810 l 682 -135 l 869 -135 l 869 810 l 1019 810 l 1019 979 l 33 979 z "},"∑":{"ha":817,"x_min":0,"x_max":0,"o":"m 767 979 l 46 979 l 46 849 l 382 422 l 32 -17 l 32 -135 l 790 -135 l 790 38 l 272 38 l 272 42 l 596 451 l 303 814 l 303 819 l 767 819 z "},"√":{"ha":867,"x_min":0,"x_max":0,"o":"m 882 1175 l 749 1175 l 503 143 b 478 7 494 110 488 63 l 476 8 b 447 129 468 36 456 92 l 296 576 l 44 474 l 76 371 l 183 414 l 401 -197 l 553 -197 z "},"µ":{"ha":797,"x_min":0,"x_max":0,"o":"m 74 -317 l 282 -317 l 282 -12 b 324 -17 294 -15 310 -17 b 521 92 408 -17 483 24 l 524 92 l 524 0 l 724 0 l 724 675 l 515 675 l 515 333 b 390 167 515 221 478 167 b 282 329 314 167 282 215 l 282 675 l 74 675 z "},"∂":{"ha":842,"x_min":0,"x_max":0,"o":"m 367 1107 b 94 1024 268 1107 174 1082 l 149 886 b 342 953 206 928 271 953 b 588 621 513 953 588 767 b 586 575 588 610 588 585 l 585 575 b 368 690 539 646 456 690 b 53 324 193 690 53 549 b 360 -11 53 150 171 -11 b 774 569 671 -11 774 310 b 367 1107 774 892 610 1107 z m 242 318 b 408 542 242 417 297 542 b 568 422 478 542 549 488 b 378 144 558 329 500 144 b 242 318 286 144 242 238 z "},"‰":{"ha":1621,"x_min":0,"x_max":0,"o":"m 767 1028 l 204 15 l 310 -44 l 883 963 z m 289 1000 b 44 756 154 1000 44 890 b 289 510 44 622 153 510 b 535 756 424 510 535 622 b 289 1000 535 889 425 1000 z m 178 756 b 289 867 178 817 229 867 b 401 756 347 867 401 819 b 289 643 401 696 351 643 b 178 756 229 643 178 693 z m 793 474 b 549 229 657 474 549 363 b 793 -17 549 96 657 -17 b 1038 229 926 -17 1038 94 b 793 474 1038 361 929 474 z m 1331 474 b 1086 229 1196 474 1086 364 b 1331 -17 1086 96 1194 -17 b 1576 229 1464 -17 1576 93 b 1331 474 1576 363 1464 474 z m 682 229 b 792 340 682 289 732 340 b 904 229 853 340 904 292 b 793 117 904 171 858 117 b 682 229 733 117 682 169 z m 1219 229 b 1331 340 1219 292 1271 340 b 1443 229 1390 340 1443 292 b 1331 117 1443 164 1389 117 b 1219 229 1271 117 1219 165 z "},"◌":{"ha":639,"x_min":0,"x_max":0,"o":"m 319 475 b 357 514 344 475 357 489 b 319 551 357 540 344 551 b 282 514 294 551 282 540 b 319 475 282 489 294 475 z m 199 444 b 239 485 226 444 239 458 b 199 521 239 508 226 521 b 163 485 175 521 163 508 b 199 444 163 458 175 444 z m 439 444 b 475 485 463 444 475 458 b 439 521 475 508 463 521 b 399 485 414 521 399 508 b 439 444 399 458 414 444 z m 111 357 b 150 396 138 357 150 369 b 111 433 150 421 138 433 b 75 396 86 433 75 421 b 111 357 75 369 86 357 z m 526 357 b 564 396 551 357 564 369 b 526 433 564 421 551 433 b 489 396 500 433 489 421 b 526 357 489 369 500 357 z m 81 239 b 119 276 106 239 119 251 b 81 314 119 303 106 314 b 44 276 57 314 44 301 b 81 239 44 251 57 239 z m 557 239 b 594 276 582 239 594 251 b 557 314 594 301 582 314 b 519 276 532 314 519 301 b 557 239 519 251 532 239 z m 111 119 b 150 157 138 119 150 132 b 111 194 150 182 138 194 b 75 157 86 194 75 182 b 111 119 75 132 86 119 z m 526 119 b 564 157 551 119 564 132 b 526 194 564 182 551 194 b 489 157 500 194 489 182 b 526 119 489 132 500 119 z m 199 32 b 239 69 226 32 239 44 b 199 107 239 94 226 107 b 163 69 175 107 163 94 b 199 32 163 44 175 32 z m 439 32 b 475 69 463 32 475 44 b 439 107 475 94 463 107 b 399 69 414 107 399 93 b 439 32 399 43 414 32 z m 319 1 b 357 39 344 1 357 14 b 319 78 357 64 344 78 b 282 39 294 78 282 64 b 319 1 282 14 294 1 z "},"◊":{"ha":865,"x_min":0,"x_max":0,"o":"m 511 1049 l 360 1049 l 71 489 l 354 -71 l 504 -71 l 794 489 z m 431 899 l 435 899 b 469 804 443 865 456 832 l 628 485 l 460 151 b 435 78 457 146 440 101 l 429 78 b 401 160 421 108 410 143 l 238 493 l 403 818 b 431 899 413 840 425 874 z "},"❊":{"ha":885,"x_min":0,"x_max":0,"o":"m 367 -12 l 443 226 l 519 -12 l 692 71 l 556 279 l 788 192 l 829 378 l 582 400 l 796 528 l 676 676 l 504 496 l 539 743 l 347 743 l 381 496 l 210 676 l 90 528 l 304 400 l 56 378 l 99 192 l 331 279 l 194 72 z "},"¶":{"ha":861,"x_min":0,"x_max":0,"o":"m 18 736 b 328 499 18 585 128 499 l 328 -185 l 478 -185 l 478 850 l 629 850 l 629 -185 l 779 -185 l 779 983 l 354 983 b 18 736 124 983 18 906 z "},"§":{"ha":822,"x_min":0,"x_max":0,"o":"m 407 1008 b 108 772 265 1008 108 932 b 196 613 108 706 140 649 b 75 407 119 565 75 499 b 493 29 75 139 493 160 b 382 -43 493 -28 428 -43 b 231 53 321 -43 246 -12 l 53 -35 b 376 -210 113 -167 240 -210 b 718 44 529 -210 718 -135 b 642 210 718 108 690 169 b 758 390 708 242 758 315 b 325 768 758 642 325 633 b 415 842 325 818 371 842 b 543 757 471 842 524 810 l 718 857 b 407 1008 661 972 526 1008 z m 267 446 b 315 528 267 483 283 510 l 492 444 b 567 351 531 426 567 397 b 521 267 567 317 550 286 l 519 267 l 344 347 b 267 446 303 367 267 397 z "},"©":{"ha":1111,"x_min":0,"x_max":0,"o":"m 556 1008 b 39 492 271 1008 39 775 b 556 -25 39 207 269 -25 b 1072 492 839 -25 1072 204 b 556 1008 1072 776 840 1008 z m 181 492 b 554 883 181 697 342 883 b 931 492 768 883 931 701 b 556 100 931 285 771 100 b 181 492 344 100 181 282 z m 567 788 b 293 496 390 788 293 667 b 569 199 293 329 396 199 b 817 417 703 199 799 286 l 686 417 b 575 324 683 351 636 324 b 443 499 481 324 443 415 b 578 663 443 588 479 663 b 686 582 631 663 675 638 l 817 582 b 567 788 797 714 697 788 z "},"®":{"ha":1111,"x_min":0,"x_max":0,"o":"m 39 492 b 556 -25 39 207 269 -25 b 1072 492 839 -25 1072 204 b 556 1008 1072 776 840 1008 b 39 492 271 1008 39 775 z m 554 883 b 931 492 768 883 931 701 b 556 100 931 285 771 100 b 181 492 344 100 181 282 b 554 883 181 697 342 883 z m 499 226 l 499 435 l 522 435 l 646 226 l 792 226 l 653 442 b 779 593 740 454 779 506 b 556 768 779 707 707 768 l 357 768 l 357 226 z m 557 660 b 638 601 618 660 638 638 b 557 543 638 556 607 543 l 497 543 l 497 660 z "},"™":{"ha":1389,"x_min":0,"x_max":0,"o":"m 658 411 l 808 411 l 808 783 l 811 783 l 947 411 l 1044 411 l 1181 783 l 1183 783 l 1183 411 l 1333 411 l 1333 983 l 1132 983 l 996 611 l 860 983 l 658 983 z m 221 850 l 221 411 l 371 411 l 371 850 l 536 850 l 536 983 l 56 983 l 56 850 z "},"°":{"ha":556,"x_min":0,"x_max":0,"o":"m 278 1000 b 39 761 147 1000 39 894 b 278 522 39 626 149 522 b 517 761 411 522 517 631 b 278 1000 517 892 411 1000 z m 156 761 b 278 883 156 829 211 883 b 400 761 346 883 400 828 b 278 639 400 693 344 639 b 156 761 210 639 156 693 z "},"¦":{"ha":308,"x_min":0,"x_max":0,"o":"m 242 451 l 242 938 l 67 938 l 67 451 z m 67 243 l 67 -243 l 242 -243 l 242 243 z "},"ℓ":{"ha":758,"x_min":0,"x_max":0,"o":"m 418 1078 b 154 722 247 1078 154 933 l 154 369 b 33 272 117 335 68 301 l 82 174 b 156 229 96 182 108 192 b 421 -12 167 107 239 -12 b 731 189 556 -12 663 57 l 653 269 b 461 140 597 183 529 140 b 339 285 385 140 340 207 l 338 339 b 628 826 540 528 628 675 b 418 1078 628 979 550 1078 z m 338 510 l 338 733 b 426 946 338 864 374 946 b 504 832 483 946 504 901 b 338 510 504 739 444 629 z "},"†":{"ha":822,"x_min":0,"x_max":0,"o":"m 47 517 l 311 517 l 311 -185 l 503 -185 l 503 517 l 775 517 l 775 692 l 503 692 l 503 983 l 311 983 l 311 692 l 47 692 z "},"‡":{"ha":822,"x_min":0,"x_max":0,"o":"m 47 567 l 315 567 l 315 232 l 47 232 l 47 65 l 315 65 l 315 -185 l 507 -185 l 507 65 l 775 65 l 775 232 l 507 232 l 507 567 l 775 567 l 775 733 l 507 733 l 507 983 l 315 983 l 315 733 l 47 733 z "},"℮":{"ha":1356,"x_min":0,"x_max":0,"o":"m 679 -26 b 1149 174 915 -26 1036 38 l 1049 174 b 675 10 949 79 838 10 b 326 160 524 10 401 64 b 315 201 318 169 315 188 l 315 465 b 324 474 315 472 318 474 l 1250 474 b 676 1004 1250 718 1117 1004 b 104 476 321 1004 104 747 b 679 -26 104 207 314 -26 z m 315 511 l 315 782 b 329 822 315 799 321 813 b 671 968 429 925 558 968 b 1024 819 772 968 928 939 b 1040 781 1033 808 1040 796 l 1040 511 b 1032 503 1040 504 1036 503 l 324 503 b 315 511 318 503 315 504 z "},"٪":{"ha":750,"x_min":0,"x_max":0,"o":"m 263 -24 l 656 878 l 506 933 l 113 31 z m 167 640 l 308 779 l 167 918 l 29 779 z m 585 0 l 725 138 l 585 278 l 446 138 z "},"ˉ":{"ha":361,"x_min":0,"x_max":0,"o":"m 417 954 l -56 954 l -56 821 l 417 821 z "},"´":{"ha":361,"x_min":0,"x_max":0,"o":"m 465 983 l 182 983 l 42 783 l 225 783 z "},"˘":{"ha":361,"x_min":0,"x_max":0,"o":"m -75 983 b 181 783 -67 839 46 783 b 436 983 313 783 421 842 l 326 983 b 182 917 304 917 239 917 b 36 983 136 917 47 924 z "},"ˇ":{"ha":361,"x_min":0,"x_max":0,"o":"m -101 983 l 60 783 l 286 783 l 451 983 l 264 983 l 178 875 l 90 983 z "},"¸":{"ha":361,"x_min":0,"x_max":0,"o":"m 233 0 l 140 0 l 54 -129 l 99 -169 b 149 -158 115 -162 131 -158 b 218 -206 183 -158 218 -175 b 122 -250 218 -249 151 -250 b 19 -226 107 -250 76 -249 l -15 -292 b 157 -333 43 -319 111 -333 b 351 -199 256 -333 351 -286 b 185 -83 351 -122 300 -83 l 176 -83 z "},"ˆ":{"ha":361,"x_min":0,"x_max":0,"o":"m 92 783 l 178 892 l 265 783 l 457 783 l 296 983 l 69 983 l -96 783 z "},"¨":{"ha":361,"x_min":0,"x_max":0,"o":"m 32 1008 b -81 894 -29 1008 -81 954 b 35 775 -81 832 -32 775 b 153 894 104 775 153 829 b 32 1008 153 965 90 1008 z m 321 1008 b 208 894 261 1008 208 956 b 324 775 208 829 260 775 b 442 894 393 775 442 829 b 321 1008 442 961 385 1008 z "},"˙":{"ha":361,"x_min":0,"x_max":0,"o":"m 176 1008 b 64 894 117 1008 64 956 b 179 775 64 832 114 775 b 297 894 249 775 297 829 b 176 1008 297 961 242 1008 z "},"˝":{"ha":361,"x_min":0,"x_max":0,"o":"m 225 783 l 408 783 l 649 983 l 365 983 z m -142 783 l 42 783 l 282 983 l -1 983 z "},"¯":{"ha":361,"x_min":0,"x_max":0,"o":"m 417 954 l -56 954 l -56 821 l 417 821 z "},"˛":{"ha":361,"x_min":0,"x_max":0,"o":"m 228 17 l 133 17 b -12 -204 50 -49 -12 -136 b 133 -333 -12 -279 46 -333 b 285 -275 192 -333 238 -311 l 246 -201 b 171 -233 224 -219 196 -233 b 113 -169 139 -233 113 -203 b 228 17 113 -121 157 -49 z "},"˚":{"ha":361,"x_min":0,"x_max":0,"o":"m 181 1065 b 26 911 96 1065 26 993 b 181 757 26 828 99 757 b 335 911 268 757 335 832 b 181 1065 335 992 267 1065 z m 110 911 b 179 982 110 951 144 982 b 251 911 221 982 251 950 b 181 840 251 874 221 840 b 110 911 142 840 110 872 z "},"˜":{"ha":361,"x_min":0,"x_max":0,"o":"m 85 983 b -92 792 -7 983 -74 903 l 18 792 b 76 850 28 824 49 850 b 164 821 106 850 136 833 b 272 792 199 806 232 792 b 453 983 369 792 431 851 l 344 983 b 283 933 332 956 315 933 b 206 954 265 933 244 938 b 85 983 168 969 131 983 z "},"ؕ":{"ha":0,"x_min":0,"x_max":0,"o":"m -212 764 l 188 764 b 213 882 204 808 213 847 b 68 1039 213 981 153 1039 b -56 972 13 1039 -25 1014 l -56 1104 l -150 1104 l -150 865 l -212 865 z m -56 865 b 56 938 -24 913 19 938 b 108 882 88 938 108 917 b 107 865 108 876 108 871 z "},"﮲":{"ha":0,"x_min":0,"x_max":0,"o":"m 1 758 b 101 863 64 758 101 804 b 1 965 101 922 64 965 b -101 863 -61 965 -101 922 b 1 758 -101 804 -61 758 z "},"﮳":{"ha":0,"x_min":0,"x_max":0,"o":"m 1 -314 b 101 -212 64 -314 101 -271 b 1 -107 101 -153 64 -107 b -101 -212 -61 -107 -101 -153 b 1 -314 -101 -271 -61 -314 z "},"﮴":{"ha":0,"x_min":0,"x_max":0,"o":"m -124 758 b -22 863 -64 758 -22 804 b -124 965 -22 922 -64 965 b -228 863 -183 965 -228 922 b -124 758 -228 804 -183 758 z m 126 758 b 228 863 185 758 228 804 b 126 965 228 922 185 965 b 22 863 67 965 22 922 b 126 758 22 804 67 758 z "},"﮵":{"ha":0,"x_min":0,"x_max":0,"o":"m -124 -314 b -22 -212 -64 -314 -22 -271 b -124 -107 -22 -153 -64 -107 b -228 -212 -183 -107 -228 -153 b -124 -314 -228 -271 -183 -314 z m 126 -314 b 228 -212 185 -314 228 -271 b 126 -107 228 -153 185 -107 b 22 -212 67 -107 22 -153 b 126 -314 22 -271 67 -314 z "},"﮹":{"ha":0,"x_min":0,"x_max":0,"o":"m -124 -315 b -22 -212 -64 -315 -22 -272 b -124 -108 -22 -154 -64 -108 b -228 -212 -183 -108 -228 -154 b -124 -315 -228 -272 -183 -315 z m 126 -315 b 228 -212 185 -315 228 -272 b 126 -108 228 -154 185 -108 b 22 -212 67 -108 22 -154 b 126 -315 22 -272 67 -315 z m 4 -524 b 106 -422 65 -524 106 -481 b 4 -317 106 -361 65 -317 b -100 -422 -54 -317 -100 -361 b 4 -524 -100 -481 -54 -524 z "},"﮶":{"ha":0,"x_min":0,"x_max":0,"o":"m 6 954 b 108 1058 68 954 108 1001 b 6 1164 108 1117 68 1164 b -96 1058 -51 1164 -96 1117 b 6 954 -96 1001 -51 954 z m -124 742 b -22 847 -64 742 -22 788 b -124 950 -22 907 -64 950 b -228 847 -183 950 -228 907 b -124 742 -228 788 -183 742 z m 126 742 b 228 847 185 742 228 788 b 126 950 228 907 185 950 b 22 847 67 950 22 907 b 126 742 22 788 67 742 z "},"ٰ":{"ha":0,"x_min":0,"x_max":0,"o":"m -47 757 l -39 757 l 47 781 l 47 1015 l -47 1015 z "},"ٖ":{"ha":0,"x_min":0,"x_max":0,"o":"m -47 -400 l -39 -400 l 47 -376 l 47 -142 l -47 -142 z "},"ٔ":{"ha":0,"x_min":0,"x_max":0,"o":"m -124 832 l -124 739 l 124 739 l 124 832 l 13 832 b 3 867 7 843 3 854 b 51 907 3 894 22 907 b 94 901 68 907 83 904 l 111 990 b 38 1000 92 996 64 1000 b -94 889 -44 1000 -94 954 b -79 832 -94 869 -89 850 z "},"ٕ":{"ha":0,"x_min":0,"x_max":0,"o":"m -124 -268 l -124 -360 l 124 -360 l 124 -268 l 14 -268 b 3 -232 7 -257 3 -244 b 51 -192 3 -204 22 -192 b 94 -197 68 -192 83 -194 l 111 -108 b 38 -99 92 -103 64 -99 b -94 -210 -44 -99 -94 -144 b -78 -268 -94 -229 -89 -250 z "},"ً":{"ha":0,"x_min":0,"x_max":0,"o":"m -161 906 l 150 953 l 165 1042 l 161 1043 l -150 996 l -165 907 z m -161 742 l 150 789 l 165 878 l 161 879 l -150 832 l -165 743 z "},"ٌ":{"ha":0,"x_min":0,"x_max":0,"o":"m 100 1092 b -12 965 32 1092 -12 1029 b 100 871 -12 897 40 871 l 107 871 b 51 839 96 851 76 839 b -104 921 -7 839 -35 921 b -207 843 -139 921 -181 888 l -151 799 b -108 831 -132 824 -121 831 b 47 750 -71 831 -50 750 b 207 953 125 750 207 808 b 100 1092 207 1036 164 1092 z m 103 943 b 65 969 79 943 65 954 b 94 1003 65 986 78 1003 b 126 949 114 1003 126 983 l 126 944 b 103 943 119 943 113 943 z "},"ٍ":{"ha":0,"x_min":0,"x_max":0,"o":"m -162 -251 l 149 -204 l 164 -115 l 160 -114 l -151 -161 l -167 -250 z m -162 -396 l 149 -349 l 164 -260 l 160 -258 l -151 -306 l -167 -394 z "},"َ":{"ha":0,"x_min":0,"x_max":0,"o":"m -161 742 l 150 789 l 165 878 l 161 879 l -150 832 l -165 743 z "},"ُ":{"ha":0,"x_min":0,"x_max":0,"o":"m 21 1092 b -93 965 -49 1092 -93 1029 b 28 871 -93 897 -40 871 l 29 871 b -33 839 17 851 -3 839 b -93 853 -51 839 -71 843 l -128 775 b -33 750 -99 758 -68 750 b 128 953 47 750 128 808 b 21 1092 128 1036 85 1092 z m 31 943 b -14 972 6 943 -14 954 b 14 1003 -14 986 -4 1003 b 47 943 43 1003 47 964 z "},"ِ":{"ha":0,"x_min":0,"x_max":0,"o":"m -161 -251 l 150 -204 l 165 -115 l 161 -114 l -150 -161 l -165 -250 z "},"ّ":{"ha":0,"x_min":0,"x_max":0,"o":"m 147 958 l 82 933 b 92 886 89 915 92 899 b 63 850 92 864 82 850 b 28 858 50 850 38 853 l 28 863 b 22 913 28 879 25 896 l -37 901 b -36 882 -36 894 -36 889 b -68 839 -36 856 -44 839 b -104 882 -86 839 -104 849 b -100 914 -104 892 -103 901 l -157 928 b -172 850 -168 899 -172 874 b -71 750 -172 788 -135 750 b 8 786 -33 750 -7 764 b 85 760 28 772 53 760 b 172 860 136 760 172 797 b 147 958 172 888 165 921 z "},"ْ":{"ha":0,"x_min":0,"x_max":0,"o":"m 1 750 b 117 864 78 750 117 797 b 1 994 117 926 75 994 b -117 864 -75 994 -117 926 b 1 750 -117 797 -78 750 z m 1 839 b -32 869 -24 839 -32 854 b 1 908 -32 888 -22 908 b 32 869 22 908 32 886 b 1 839 32 854 24 839 z "},"ٓ":{"ha":0,"x_min":0,"x_max":0,"o":"m 107 742 b 236 815 157 742 194 761 l 171 886 b 101 854 144 863 126 854 b -111 894 40 854 -57 894 b -236 836 -158 894 -204 868 l -178 756 b -112 779 -164 765 -143 779 b 107 742 -68 779 33 742 z "},"٘":{"ha":0,"x_min":0,"x_max":0,"o":"m -107 961 b -132 858 -119 931 -132 899 b 3 742 -132 785 -78 742 b 132 881 82 742 132 794 l 132 957 l 50 957 l 50 881 b 3 824 50 843 36 824 b -50 872 -33 824 -50 843 b -35 936 -50 889 -46 906 z "}}}
